<svg width="137" height="137" viewBox="0 0 137 137" fill="none" xmlns="http://www.w3.org/2000/svg">
<circle cx="68.5339" cy="68.3151" r="68.3151" fill="white"/>
<circle cx="68.5339" cy="68.3151" r="63.4355" stroke="#797CD0" stroke-opacity="0.7" stroke-width="9.7593"/>
<path d="M38.9258 90.0814C38.9221 91.5098 39.362 92.9095 40.1936 94.1156C41.0252 95.3217 42.2139 96.284 43.6197 96.8891C45.0256 97.4942 46.59 97.717 48.1288 97.5312C49.6675 97.3454 51.1166 96.7587 52.3053 95.8403C53.494 94.9219 54.3728 93.71 54.8382 92.3473C55.3037 90.9845 55.3364 89.5278 54.9326 88.1485C54.5287 86.7693 53.705 85.5249 52.5586 84.5621C51.4122 83.5993 49.9907 82.958 48.4616 82.7138V73.8727C48.4616 72.0037 49.2682 70.2112 50.7041 68.8896C52.14 67.568 54.0874 66.8255 56.118 66.8255H79.157C81.926 66.8255 84.5816 65.813 86.5396 64.0108C88.4976 62.2086 89.5976 59.7643 89.5976 57.2156V43.4415L95.2355 48.6308C95.5036 48.8159 95.8352 48.9057 96.1695 48.8838C96.5037 48.862 96.8182 48.7299 97.0551 48.5118C97.2921 48.2937 97.4356 48.0042 97.4594 47.6966C97.4831 47.3889 97.3855 47.0837 97.1844 46.837L89.18 39.4053C88.9198 39.1706 88.5699 39.0391 88.2055 39.0391C87.8411 39.0391 87.4913 39.1706 87.2311 39.4053L79.2266 46.7729C79.0255 47.0196 78.9279 47.3249 78.9517 47.6325C78.9754 47.9402 79.119 48.2296 79.3559 48.4477C79.5928 48.6658 79.9073 48.7979 80.2416 48.8198C80.5758 48.8416 80.9074 48.7518 81.1755 48.5667L86.8134 43.3774V57.2156C86.8134 59.0847 86.0068 60.8772 84.5709 62.1988C83.135 63.5204 81.1876 64.2629 79.157 64.2629H56.118C53.349 64.2629 50.6934 65.2753 48.7354 67.0775C46.7774 68.8797 45.6774 71.324 45.6774 73.8727V82.7138C43.7905 83.0151 42.0793 83.9189 40.8445 85.2663C39.6097 86.6138 38.9304 88.3186 38.9258 90.0814ZM47.0695 85.1483C48.1295 85.1483 49.1657 85.4376 50.0471 85.9797C50.9284 86.5217 51.6154 87.2922 52.021 88.1936C52.4267 89.095 52.5328 90.0868 52.326 91.0438C52.1192 92.0007 51.6088 92.8797 50.8592 93.5696C50.1097 94.2595 49.1547 94.7293 48.1151 94.9196C47.0754 95.11 45.9978 95.0123 45.0185 94.6389C44.0392 94.2655 43.2021 93.6333 42.6132 92.822C42.0243 92.0108 41.71 91.057 41.71 90.0814C41.71 88.773 42.2746 87.5183 43.2797 86.5932C44.2848 85.668 45.6481 85.1483 47.0695 85.1483Z" fill="#797CD0"/>
<path d="M78.7324 92.259H78.9412C79.2424 92.259 79.5355 92.1691 79.7764 92.0028L90.3563 84.9555C90.5857 84.74 90.7252 84.4569 90.7501 84.156C90.7751 83.8552 90.6838 83.5559 90.4925 83.3108C90.3011 83.0658 90.022 82.8908 89.7042 82.8166C89.3864 82.7425 89.0504 82.7739 88.7554 82.9054L79.2892 89.2479L76.0874 85.1477C75.8751 84.8674 75.5505 84.6761 75.185 84.6161C74.8196 84.556 74.4431 84.632 74.1385 84.8274C73.8339 85.0228 73.6261 85.3216 73.5609 85.658C73.4956 85.9944 73.5782 86.3409 73.7905 86.6213L77.7579 91.7465C77.8728 91.8895 78.0188 92.0089 78.1866 92.0972C78.3543 92.1854 78.5402 92.2405 78.7324 92.259Z" fill="#797CD0"/>
<path d="M52.7047 43.6953C52.3355 43.6953 51.9815 43.8303 51.7204 44.0706C51.4593 44.3109 51.3127 44.6368 51.3127 44.9766V49.3331H46.5796C46.2104 49.3331 45.8563 49.4681 45.5952 49.7084C45.3342 49.9487 45.1875 50.2746 45.1875 50.6144C45.1875 50.9542 45.3342 51.2801 45.5952 51.5204C45.8563 51.7607 46.2104 51.8957 46.5796 51.8957H51.3127V56.2522C51.3127 56.592 51.4593 56.9179 51.7204 57.1582C51.9815 57.3985 52.3355 57.5335 52.7047 57.5335C53.0739 57.5335 53.428 57.3985 53.6891 57.1582C53.9502 56.9179 54.0968 56.592 54.0968 56.2522V51.8957H58.8299C59.1991 51.8957 59.5532 51.7607 59.8143 51.5204C60.0753 51.2801 60.222 50.9542 60.222 50.6144C60.222 50.2746 60.0753 49.9487 59.8143 49.7084C59.5532 49.4681 59.1991 49.3331 58.8299 49.3331H54.0968V44.9766C54.0968 44.6368 53.9502 44.3109 53.6891 44.0706C53.428 43.8303 53.0739 43.6953 52.7047 43.6953Z" fill="#797CD0"/>
</svg>
