<svg width="21" height="18" viewBox="0 0 21 18" fill="none" xmlns="http://www.w3.org/2000/svg">
<path fill-rule="evenodd" clip-rule="evenodd" d="M2.98853 8.75807V15.0646C2.98853 15.3597 3.16261 15.628 3.43233 15.7475C8.45381 17.9769 12.0938 17.9762 17.4695 15.755C17.7489 15.6399 17.9312 15.3672 17.9312 15.0646V8.75807L10.7707 12.0372C10.5734 12.1276 10.3463 12.1276 10.1491 12.0372L2.98853 8.75807ZM0 12.0933V12.8352C0 13.2476 0.334715 13.5823 0.747133 13.5823C1.15955 13.5823 1.49427 13.2476 1.49427 12.8352V12.0933C1.49427 11.6809 1.15955 11.3461 0.747133 11.3461C0.334715 11.3461 0 11.6809 0 12.0933ZM0.611155 5.4281C0.263738 5.49235 0 5.79718 0 6.16328V9.8698C0 10.2822 0.334715 10.6169 0.747133 10.6169C1.15955 10.6169 1.49427 10.2822 1.49427 9.8698V7.37139L10.1468 11.3648C10.3455 11.4567 10.5742 11.4567 10.7729 11.3648L20.4856 6.88202C20.7426 6.76322 20.9108 6.50995 20.9197 6.22678C20.9279 5.94362 20.7763 5.67988 20.5267 5.54615L10.814 0.316218C10.5928 0.196677 10.3269 0.196677 10.1057 0.316218L0.611155 5.4281Z" fill="#797CD0"/>
</svg>
