<svg width="138" height="137" viewBox="0 0 138 137" fill="none" xmlns="http://www.w3.org/2000/svg">
<circle cx="69.1432" cy="68.3151" r="68.3151" fill="white"/>
<circle cx="69.1432" cy="68.3151" r="63.4355" stroke="#797CD0" stroke-opacity="0.7" stroke-width="9.7593"/>
<path d="M81.7735 70.1698H79.8718C79.4535 70.1698 79.0843 69.9063 78.9533 69.5141C78.697 68.7488 78.3836 67.993 78.0225 67.2682C77.8372 66.8965 77.9115 66.4481 78.2073 66.1522L79.5526 64.8065C80.6964 63.6628 80.6964 61.801 79.5526 60.6573L76.7158 57.8196C75.573 56.6769 73.7118 56.676 72.568 57.8196L71.2222 59.1653C70.9269 59.4617 70.4791 59.5361 70.107 59.3502C69.3825 58.989 68.6269 58.6755 67.8614 58.4191C67.4698 58.2881 67.2064 57.9187 67.2064 57.5004V55.598C67.2064 53.9802 65.8906 52.6641 64.2733 52.6641H60.2613C58.644 52.6641 57.3283 53.9802 57.3283 55.598V57.5004C57.3283 57.9187 57.0648 58.2881 56.6728 58.4191C55.9077 58.6755 55.1522 58.989 54.4276 59.3502C54.056 59.5361 53.6073 59.4603 53.3119 59.1653L51.9667 57.8196C50.8224 56.675 48.9612 56.676 47.8189 57.8196L44.982 60.6573C43.8383 61.801 43.8383 63.6628 44.982 64.8065L46.3273 66.1527C46.6232 66.4481 46.6975 66.8965 46.5122 67.2682C46.1511 67.993 45.8376 68.7488 45.5813 69.5146C45.4503 69.9063 45.0811 70.1698 44.6629 70.1698H42.7612C41.1439 70.1698 39.8281 71.486 39.8281 73.1038V77.1171C39.8281 78.7349 41.1439 80.0511 42.7612 80.0511H44.6629C45.0811 80.0511 45.4503 80.3146 45.5813 80.7068C45.8376 81.4721 46.1511 82.2279 46.5122 82.9527C46.6975 83.3244 46.6232 83.7728 46.3273 84.0687L44.982 85.4144C43.8383 86.5581 43.8383 88.4199 44.982 89.5636L47.8189 92.4013C48.9622 93.5449 50.8234 93.5459 51.9667 92.4013L53.3124 91.0556C53.6073 90.7592 54.056 90.6853 54.4276 90.8707C55.1522 91.2319 55.9077 91.5454 56.6733 91.8018C57.0648 91.9328 57.3283 92.3022 57.3283 92.7205V94.6229C57.3283 96.2407 58.644 97.5568 60.2613 97.5568H64.2733C65.8906 97.5568 67.2064 96.2407 67.2064 94.6229V92.7205C67.2064 92.3022 67.4698 91.9328 67.8619 91.8018C68.6269 91.5454 69.3825 91.2319 70.107 90.8707C70.4791 90.6853 70.9278 90.7606 71.2227 91.0556L72.568 92.4013C73.7108 93.5449 75.572 93.544 76.7158 92.4013L79.5526 89.5636C80.6964 88.4199 80.6964 86.5581 79.5526 85.4144L78.2073 84.0682C77.9115 83.7728 77.8372 83.3244 78.0225 82.9527C78.3836 82.2279 78.697 81.4721 78.9533 80.7063C79.0843 80.3146 79.4535 80.0511 79.8718 80.0511H81.7735C83.3908 80.0511 84.7065 78.7349 84.7065 77.1171V73.1038C84.7065 71.486 83.3908 70.1698 81.7735 70.1698ZM82.7553 77.1171C82.7553 77.6584 82.3146 78.0992 81.7735 78.0992H79.8718C78.6137 78.0992 77.5009 78.8979 77.1031 80.0864C76.8754 80.7664 76.5972 81.4378 76.2761 82.0816C75.7159 83.2062 75.9379 84.559 76.8277 85.4487L78.173 86.7945C78.5556 87.1776 78.5556 87.8004 78.173 88.1835L75.3362 91.0212C74.9532 91.4044 74.3306 91.4044 73.9476 91.0212L72.6028 89.6755C71.7134 88.7844 70.3586 88.5624 69.2362 89.1237C68.5926 89.4449 67.9214 89.7232 67.2421 89.951C66.0536 90.3489 65.2551 91.462 65.2551 92.7205V94.6229C65.2551 95.1642 64.8145 95.605 64.2733 95.605H60.2613C59.7201 95.605 59.2795 95.1642 59.2795 94.6229V92.7205C59.2795 91.462 58.4811 90.3489 57.293 89.951C56.6132 89.7232 55.942 89.4449 55.2984 89.1237C54.8845 88.9174 54.44 88.8173 53.9989 88.8173C53.2414 88.8173 52.494 89.1128 51.9324 89.6755L50.5871 91.0212C50.205 91.4049 49.5824 91.4049 49.1984 91.0212L46.3616 88.1835C45.9791 87.8004 45.9791 87.1776 46.3616 86.7945L47.7069 85.4492C48.5968 84.5591 48.8188 83.2062 48.2586 82.0816C47.9375 81.4378 47.6593 80.7664 47.4316 80.0868C47.0338 78.8979 45.921 78.0992 44.6629 78.0992H42.7612C42.22 78.0992 41.7794 77.6584 41.7794 77.1171V73.1038C41.7794 72.5625 42.22 72.1217 42.7612 72.1217H44.6629C45.921 72.1217 47.0338 71.323 47.4316 70.1345C47.6593 69.4545 47.9375 68.7831 48.2586 68.1393C48.8188 67.0147 48.5968 65.6619 47.7069 64.7722L46.3616 63.4265C45.9791 63.0433 45.9791 62.4205 46.3616 62.0374L49.1984 59.1996C49.5819 58.8165 50.2045 58.8165 50.5871 59.1996L51.9319 60.5454C52.8213 61.4355 54.1742 61.6576 55.2984 61.0972C55.942 60.776 56.6132 60.4977 57.2925 60.2699C58.4811 59.872 59.2795 58.7589 59.2795 57.5004V55.598C59.2795 55.0567 59.7202 54.6159 60.2613 54.6159H64.2734C64.8145 54.6159 65.2552 55.0567 65.2552 55.598V57.5004C65.2552 58.7589 66.0536 59.872 67.2417 60.2699C67.9214 60.4977 68.5927 60.776 69.2362 61.0972C70.361 61.6581 71.7134 61.4365 72.6023 60.5454L73.9476 59.1996C74.3311 58.817 74.9537 58.817 75.3362 59.1996L78.1731 62.0374C78.5556 62.4205 78.5556 63.0433 78.1731 63.4265L76.8278 64.7717C75.9379 65.6618 75.7159 67.0147 76.2761 68.1393C76.5972 68.7831 76.8754 69.4545 77.1031 70.1341C77.5009 71.323 78.6137 72.1217 79.8718 72.1217H81.7735C82.3147 72.1217 82.7553 72.5625 82.7553 73.1038L82.7553 77.1171Z" fill="#797CD0"/>
<path d="M62.4174 62.9609C55.4237 62.9609 49.7344 68.6521 49.7344 75.648C49.7344 82.6439 55.4237 88.3351 62.4174 88.3351C69.4111 88.3351 75.1004 82.6439 75.1004 75.648C75.1004 68.6521 69.4111 62.9609 62.4174 62.9609ZM62.4174 86.3833C56.4999 86.3833 51.6856 81.5675 51.6856 75.648C51.6856 69.7286 56.4999 64.9128 62.4174 64.9128C68.335 64.9128 73.1492 69.7286 73.1492 75.648C73.1492 81.5675 68.335 86.3833 62.4174 86.3833Z" fill="#797CD0"/>
<path d="M95.8845 52.5272H94.4148C94.1871 52.5272 93.9861 52.3842 93.9151 52.1717C93.7136 51.5703 93.4678 50.9771 93.1844 50.4081C93.0838 50.206 93.1243 49.9625 93.2854 49.8015L94.3248 48.7612C94.795 48.2913 95.0537 47.6661 95.0537 47.0014C95.0537 46.3366 94.795 45.7114 94.3248 45.2416L92.133 43.0491C91.1936 42.1084 89.5539 42.1084 88.6145 43.0491L87.5746 44.0888C87.4135 44.2499 87.1692 44.2899 86.9681 44.1899C86.3993 43.9063 85.8063 43.6604 85.2046 43.4589C84.9926 43.3879 84.8497 43.1868 84.8497 42.959V41.4889C84.8497 40.1165 83.7335 39 82.3616 39H79.2613C77.8894 39 76.7732 40.1165 76.7732 41.4889V42.959C76.7732 43.1868 76.6303 43.3879 76.4178 43.4589C75.8167 43.6604 75.2236 43.9063 74.6548 44.1899C74.4537 44.2899 74.2094 44.2499 74.0483 44.0888L73.0084 43.0491C72.0385 42.0788 70.4598 42.0788 69.4899 43.0491L67.2981 45.2416C66.3277 46.2118 66.3277 47.791 67.2981 48.7612L68.3375 49.8015C68.4986 49.9625 68.5391 50.206 68.4385 50.4076C68.2509 50.7841 68.0803 51.1701 67.9269 51.5646C67.7316 52.0669 67.9808 52.6325 68.4828 52.8279C68.9859 53.0228 69.5509 52.774 69.7457 52.2718C69.8772 51.9335 70.0239 51.6018 70.1849 51.2782C70.6599 50.3247 70.4722 49.1767 69.7171 48.4214L68.6777 47.3812C68.4686 47.1715 68.4686 46.8313 68.6777 46.6216L70.8695 44.4291C71.0791 44.2194 71.4192 44.2204 71.6288 44.4291L72.6688 45.4689C73.4233 46.2242 74.5724 46.4114 75.5246 45.9368C76.0129 45.6933 76.5222 45.4827 77.0376 45.3097C78.0466 44.9718 78.7245 44.0269 78.7245 42.959V41.4889C78.7245 41.193 78.9655 40.9519 79.2613 40.9519H82.3616C82.6574 40.9519 82.8985 41.193 82.8985 41.4889V42.959C82.8985 44.0269 83.5763 44.9718 84.5848 45.3097C85.1007 45.4827 85.61 45.6933 86.0983 45.9368C87.0501 46.4114 88.1991 46.2242 88.9542 45.4689L89.9941 44.4291C90.2037 44.2194 90.5438 44.2194 90.7534 44.4291L92.9452 46.6216C93.1544 46.8313 93.1544 47.1715 92.9452 47.3812L91.9058 48.4214C91.1507 49.1767 90.963 50.3247 91.438 51.2782C91.6814 51.7667 91.892 52.2761 92.0649 52.7926C92.4036 53.8014 93.3478 54.4791 94.4149 54.4791H95.8845C96.1803 54.4791 96.4214 54.7202 96.4214 55.0161V58.1174C96.4214 58.4133 96.1803 58.6544 95.8845 58.6544H94.4149C93.3478 58.6544 92.4036 59.332 92.0649 60.3413C91.892 60.8574 91.6814 61.3668 91.438 61.8552C90.963 62.8088 91.1507 63.9567 91.9058 64.712L92.9452 65.7523C93.1544 65.962 93.1544 66.3022 92.9452 66.5119L90.7534 68.7044C90.5438 68.9141 90.2037 68.9131 89.9941 68.7044L88.9542 67.6646C88.1991 66.9084 87.0515 66.722 86.0978 67.1967C85.7748 67.3577 85.4442 67.5045 85.1055 67.636C84.6029 67.8309 84.3538 68.3966 84.5491 68.8988C84.7444 69.4011 85.3099 69.6508 85.8115 69.4554C86.2064 69.302 86.5923 69.1314 86.9682 68.9436C87.1692 68.8431 87.4136 68.8836 87.5746 69.0447L88.6145 70.0844C89.0995 70.5695 89.7369 70.8121 90.3738 70.8121C91.0107 70.8121 91.6481 70.5695 92.133 70.0844L94.3248 67.8919C95.2952 66.9217 95.2952 65.3425 94.3248 64.3723L93.2854 63.332C93.1244 63.171 93.0839 62.9275 93.1844 62.7254C93.4678 62.1564 93.7136 61.5631 93.9151 60.9622C93.9861 60.7492 94.1871 60.6063 94.4149 60.6063H95.8845C97.2564 60.6063 98.3726 59.4898 98.3726 58.1174V55.0161C98.3726 53.6437 97.2564 52.5272 95.8845 52.5272Z" fill="#797CD0"/>
<path d="M82.4793 64.4959C81.952 64.6065 81.6137 65.1235 81.7238 65.651C81.8318 66.1825 82.3644 66.5174 82.8785 66.4068C87.5051 65.4389 90.8631 61.2998 90.8631 56.5655C90.8631 51.0221 86.3542 46.5117 80.812 46.5117C76.0787 46.5117 71.9414 49.8708 70.9739 54.4983C70.8639 55.0258 71.2021 55.5429 71.7294 55.6534C72.2568 55.7611 72.7741 55.4256 72.8841 54.8977C73.6635 51.1693 76.9977 48.4636 80.812 48.4636C85.278 48.4636 88.9118 52.0981 88.9118 56.5655C88.9118 60.3811 86.2065 63.7163 82.4793 64.4959Z" fill="#797CD0"/>
<path d="M66.3723 70.3799L60.2065 77.0461L56.9488 74.5953C56.4421 74.2141 55.6212 74.2141 55.1144 74.5953C54.6077 74.9765 54.6077 75.5941 55.1144 75.9753L59.4686 79.251C59.7398 79.4556 60.1206 79.5587 60.5004 79.5331C60.8837 79.5073 61.2314 79.3558 61.4506 79.1185L68.5019 71.495C68.911 71.0523 68.766 70.4442 68.1782 70.1364C67.5885 69.8276 66.7808 69.9372 66.3723 70.3799Z" fill="#797CD0"/>
</svg>
