<svg width="138" height="137" viewBox="0 0 138 137" fill="none" xmlns="http://www.w3.org/2000/svg">
<circle cx="68.7526" cy="68.3151" r="68.3151" fill="white"/>
<circle cx="68.7526" cy="68.3151" r="63.4355" stroke="#797CD0" stroke-opacity="0.7" stroke-width="9.7593"/>
<path d="M73.5519 86.6053C73.3909 86.6053 73.2262 86.5946 73.0627 86.5731C72.0893 86.4468 71.2211 85.9536 70.6206 85.184C70.0212 84.4144 69.7609 83.4614 69.8905 82.5L71.0468 73.8546L67.389 70.9168C66.9204 70.9501 66.5051 71.2527 66.3465 71.7066L65.0497 75.4092C64.8596 75.9513 64.5364 76.4481 64.1162 76.846L57.1905 83.3804C55.7194 84.7742 53.1344 84.6408 51.8122 83.0956C50.5651 81.6363 50.7358 79.4121 52.1984 78.0313L58.325 72.2499L61.6087 59.7374L59.5915 60.1746L57.6845 62.9218C56.9943 63.9142 55.855 64.5051 54.6345 64.5051C53.6489 64.5051 52.7178 64.1227 52.012 63.4281C50.7673 62.1999 50.6195 60.2235 51.6596 58.7272L54.3221 54.8899C54.8537 54.1251 55.654 53.5926 56.5742 53.3924L63.9164 51.5411C64.0835 51.4994 64.2579 51.4935 64.4274 51.5197L74.0967 53.0994C74.2529 53.1244 74.4031 53.1792 74.5387 53.2602L77.2702 54.8983L83.1898 52.026C84.1281 51.5721 85.219 51.5292 86.184 51.9069C87.1503 52.2833 87.9143 53.0517 88.2823 54.0155C88.9374 55.7358 88.0814 57.7491 86.333 58.5973L78.7704 62.2666C77.7 62.786 76.3767 62.7503 75.339 62.1808L73.9042 61.3934L72.9852 66.0383L77.3053 69.5074C78.303 70.3092 78.7982 71.5375 78.6311 72.7943L77.206 83.4483C76.9675 85.2472 75.3959 86.6053 73.5519 86.6053ZM68.7354 68.851L73.1511 72.3952C73.4829 72.6621 73.6524 73.0802 73.5955 73.4996L72.3484 82.8193C72.2612 83.4697 72.7285 84.069 73.3909 84.1547C74.0955 84.2417 74.6622 83.7723 74.7481 83.1302L76.1732 72.4762C76.2277 72.064 76.0643 71.6602 75.7374 71.3969L70.8434 67.4667C70.4886 67.1832 70.3227 66.7305 70.4099 66.2885L71.7975 59.2752C71.8737 58.8916 72.1316 58.5675 72.4912 58.4019C72.8533 58.2375 73.271 58.2507 73.6185 58.4436L76.5486 60.0507C76.8925 60.2378 77.3211 60.2473 77.6758 60.0781L85.236 56.4101C85.845 56.1146 86.1695 55.4248 85.96 54.8721C85.8365 54.548 85.5908 54.3002 85.2699 54.1751C84.9466 54.0477 84.5967 54.062 84.2843 54.2145L77.7557 57.3822C77.3768 57.5692 76.9239 57.5478 76.5619 57.331L73.4538 55.4677L64.2785 53.969L57.1493 55.7656C56.8067 55.8406 56.5451 56.0145 56.3708 56.2659L53.7071 60.1043C53.3438 60.625 53.3705 61.3135 53.7664 61.7043C54.0691 62.0021 54.4057 62.0653 54.6345 62.0653C55.0365 62.0653 55.4106 61.8711 55.6371 61.5458L57.8201 58.3996C57.9981 58.1422 58.2693 57.9624 58.5781 57.8956L63.0471 56.9271C63.4709 56.8366 63.908 56.9676 64.2058 57.2714C64.5049 57.5764 64.6211 58.0124 64.5133 58.4234L60.6376 73.1958C60.5807 73.415 60.462 73.6139 60.2962 73.7712L53.9153 79.7921C53.4007 80.2782 53.3087 81.0549 53.7095 81.5243C54.1466 82.0366 54.9856 82.0806 55.4724 81.6208L62.3981 75.0864C62.5361 74.9554 62.6427 74.7921 62.7056 74.6134L64.0024 70.912C64.586 69.2382 66.3077 68.2303 68.0755 68.5234C68.3249 68.5639 68.555 68.6783 68.7354 68.851Z" fill="#797CD0"/>
<path d="M70.796 50.4424C67.5996 50.4424 65 47.8846 65 44.7407C65 41.5968 67.5996 39.0391 70.796 39.0391C73.9913 39.0391 76.5909 41.5968 76.5909 44.7407C76.5909 47.8846 73.9913 50.4424 70.796 50.4424ZM70.796 41.4789C68.9678 41.4789 67.4797 42.9418 67.4797 44.7407C67.4797 46.5396 68.9678 48.0026 70.796 48.0026C72.6243 48.0026 74.1112 46.5396 74.1112 44.7407C74.1112 42.9418 72.6243 41.4789 70.796 41.4789Z" fill="#797CD0"/>
<path d="M78.0832 97.5938H69.0289C68.3436 97.5938 67.7891 97.0482 67.7891 96.3739V85.384C67.7891 84.7097 68.3436 84.1641 69.0289 84.1641H78.0832C78.7685 84.1641 79.323 84.7097 79.323 85.384V96.3739C79.323 97.0482 78.7685 97.5938 78.0832 97.5938ZM70.2688 95.154H76.8433V86.6039H70.2688V95.154Z" fill="#797CD0"/>
<path d="M69.0285 97.5954H59.9742C59.2889 97.5954 58.7344 97.0497 58.7344 96.3754V89.0012C58.7344 88.3269 59.2889 87.7812 59.9742 87.7812H69.0285C69.7138 87.7812 70.2683 88.3269 70.2683 89.0012V96.3754C70.2683 97.0497 69.7138 97.5954 69.0285 97.5954ZM61.2141 95.1555H67.7887V90.2211H61.2141V95.1555Z" fill="#797CD0"/>
<path d="M59.9738 97.5955H50.9195C50.2342 97.5955 49.6797 97.0498 49.6797 96.3756V91.4113C49.6797 90.737 50.2342 90.1914 50.9195 90.1914H59.9738C60.6591 90.1914 61.2137 90.737 61.2137 91.4113V96.3756C61.2137 97.0498 60.6591 97.5955 59.9738 97.5955ZM52.1594 95.1556H58.734V92.6312H52.1594V95.1556Z" fill="#797CD0"/>
</svg>
