<svg width="44" height="45" viewBox="0 0 44 45" fill="none" xmlns="http://www.w3.org/2000/svg">
<circle cx="22" cy="22.1289" r="22" fill="#797CD0" fill-opacity="0.7"/>
<path d="M24.5708 28.9439L17.958 22.6523C17.8795 22.5774 17.8241 22.4963 17.7916 22.4089C17.7587 22.3215 17.7422 22.2279 17.7422 22.128C17.7422 22.0282 17.7587 21.9345 17.7916 21.8471C17.8241 21.7598 17.8795 21.6786 17.958 21.6037L24.5708 15.2934C24.7539 15.1186 24.9829 15.0312 25.2576 15.0312C25.5323 15.0312 25.7678 15.1249 25.964 15.3121C26.1602 15.4994 26.2583 15.7178 26.2583 15.9675C26.2583 16.2172 26.1602 16.4356 25.964 16.6229L20.195 22.128L25.964 27.6332C26.1471 27.8079 26.2387 28.0232 26.2387 28.2788C26.2387 28.535 26.1406 28.7567 25.9444 28.9439C25.7481 29.1312 25.5192 29.2248 25.2576 29.2248C24.9959 29.2248 24.767 29.1312 24.5708 28.9439Z" fill="white"/>
</svg>
