<svg width="44" height="44" viewBox="0 0 44 44" fill="none" xmlns="http://www.w3.org/2000/svg">
<circle cx="22" cy="22" r="22" transform="matrix(-1 0 0 1 44 0)" fill="#797CD0" fill-opacity="0.7"/>
<path d="M19.4292 28.815L26.042 22.5234C26.1205 22.4485 26.1759 22.3674 26.2084 22.28C26.2413 22.1926 26.2578 22.099 26.2578 21.9991C26.2578 21.8993 26.2413 21.8056 26.2084 21.7182C26.1759 21.6309 26.1205 21.5497 26.042 21.4748L19.4292 15.1645C19.2461 14.9897 19.0171 14.9023 18.7424 14.9023C18.4677 14.9023 18.2322 14.996 18.036 15.1832C17.8398 15.3705 17.7417 15.5889 17.7417 15.8386C17.7417 16.0883 17.8398 16.3067 18.036 16.494L23.805 21.9991L18.036 27.5043C17.8529 27.679 17.7613 27.8942 17.7613 28.1499C17.7613 28.4061 17.8594 28.6278 18.0556 28.815C18.2519 29.0023 18.4808 29.0959 18.7424 29.0959C19.0041 29.0959 19.233 29.0023 19.4292 28.815Z" fill="white"/>
</svg>
