<svg width="137" height="137" viewBox="0 0 137 137" fill="none" xmlns="http://www.w3.org/2000/svg">
<circle cx="68.3151" cy="68.3151" r="68.3151" fill="white"/>
<circle cx="68.3151" cy="68.3151" r="63.4355" stroke="#797CD0" stroke-opacity="0.7" stroke-width="9.7593"/>
<path d="M87.8433 61.5414H69.854V56.0995C69.854 55.5934 69.4272 55.1835 68.9002 55.1835H67.4083C66.3631 55.1835 65.5133 54.3654 65.5133 53.3597C65.5133 52.3559 66.3638 51.5396 67.4083 51.5396H68.9002C69.4272 51.5396 69.854 51.1297 69.854 50.6236V44.2632C69.854 43.7571 69.4272 43.3472 68.9002 43.3472C64.1041 43.3472 59.4685 45.0126 55.8464 48.0362C55.4489 48.3678 55.4066 48.9462 55.7525 49.3281C56.0978 49.7099 56.7 49.7505 57.0975 49.4183C60.1317 46.8853 63.9529 45.4069 67.9465 45.2032V49.7081H67.4083C65.3117 49.7081 63.6058 51.3466 63.6058 53.3603C63.6058 55.3759 65.3117 57.0156 67.4083 57.0156H67.9465V62.4575C67.9465 62.9636 68.3733 63.3735 68.9002 63.3735H86.864C86.5094 69.7571 82.4692 75.5032 76.3685 78.1814C76.0288 78.3302 75.8116 78.6559 75.8116 79.0144V81.94H61.9857V79.0144C61.9857 78.6565 61.7686 78.3308 61.4295 78.182C59.904 77.5104 58.4843 76.6391 57.2102 75.5922C56.8101 75.2636 56.2079 75.3084 55.8657 75.6926C55.5235 76.0768 55.5702 76.6553 55.9702 76.9839C57.2226 78.0135 58.6025 78.8889 60.0789 79.5922V81.9526C58.4208 82.0906 57.115 83.4297 57.115 85.0574C57.115 86.4802 58.1135 87.6831 59.4723 88.0548C59.2495 88.4766 59.1232 88.9523 59.1232 89.4566C59.1232 91.0204 60.3283 92.3183 61.893 92.54C62.8088 95.4883 65.6427 97.56 68.9009 97.56C72.1565 97.56 74.9892 95.4883 75.9043 92.5406C77.4709 92.3201 78.6779 91.0216 78.6779 89.4566C78.6779 88.9523 78.5516 88.476 78.3288 88.0536C79.6863 87.6807 80.683 86.479 80.683 85.0568C80.683 83.4291 79.3771 82.09 77.7191 81.952V79.5916C84.4688 76.3804 88.797 69.7189 88.797 62.4563C88.797 61.9513 88.3702 61.5414 87.8433 61.5414ZM68.9009 95.7285C66.7034 95.7285 64.7667 94.4533 63.9299 92.574H73.8687C73.0319 94.4533 71.0958 95.7285 68.9009 95.7285ZM75.4321 90.7419H62.369C61.6311 90.7419 61.0307 90.1653 61.0307 89.4566C61.0307 88.7497 61.6311 88.1743 62.369 88.1743H75.4321C76.17 88.1743 76.7704 88.7497 76.7704 89.4566C76.7704 90.1653 76.17 90.7419 75.4321 90.7419ZM78.7755 85.0574C78.7755 85.7661 78.1752 86.3428 77.4373 86.3428H75.4321H62.369H60.3607C59.6228 86.3428 59.0225 85.7661 59.0225 85.0574C59.0225 84.3487 59.6228 83.7721 60.3607 83.7721H77.4367C78.1752 83.7715 78.7755 84.3487 78.7755 85.0574ZM77.6432 39C77.1163 39 76.6895 39.4099 76.6895 39.916V45.3579H76.1513C74.0547 45.3579 72.3488 46.9976 72.3488 49.0132C72.3488 51.0269 74.0547 52.6654 76.1513 52.6654H76.6895V58.1103C76.6895 58.6164 77.1163 59.0263 77.6432 59.0263H96.5863C97.1132 59.0263 97.54 58.6164 97.54 58.1103C97.5394 47.5725 88.6141 39 77.6432 39ZM78.5963 57.1942V51.7493C78.5963 51.2432 78.1696 50.8333 77.6426 50.8333H76.1507C75.1055 50.8333 74.2557 50.0165 74.2557 49.0132C74.2557 48.0075 75.1061 47.1894 76.1507 47.1894H77.6426C78.1696 47.1894 78.5963 46.7795 78.5963 46.2734V40.856C87.7587 41.3173 95.1267 48.3941 95.607 57.1942H78.5963ZM58.5291 73.0777C58.9061 73.306 59.397 73.2534 59.7124 72.9505L62.5849 70.1916C62.8997 69.8892 62.955 69.4171 62.7174 69.0556L61.1757 66.7078C61.2516 66.5447 61.3219 66.3816 61.3872 66.2173L64.2074 65.603C64.6417 65.5086 64.9502 65.1375 64.9502 64.7096V60.8064C64.9502 60.3786 64.6417 60.0075 64.2068 59.9131L61.3872 59.3018C61.3219 59.1381 61.2516 58.9749 61.1757 58.8118L62.7174 56.464C62.955 56.1025 62.9003 55.631 62.5855 55.3281L59.713 52.5656C59.3976 52.2626 58.9061 52.2095 58.5291 52.4383L56.0866 53.9208C55.9186 53.8485 55.7481 53.781 55.5752 53.7177L54.9356 51.0096C54.8373 50.5925 54.4509 50.2961 54.0055 50.2961H49.941C49.4956 50.2961 49.1092 50.5925 49.0109 51.0102L48.3745 53.7177C48.2015 53.781 48.0317 53.8485 47.8637 53.9203L45.4211 52.4377C45.0441 52.2089 44.552 52.2615 44.2372 52.565L41.3648 55.3275C41.05 55.6304 40.9952 56.1013 41.2329 56.4634L42.7739 58.8094C42.6986 58.9708 42.6283 59.1345 42.5624 59.3006L39.7435 59.9119C39.3086 60.0063 39 60.3774 39 60.8052V64.7084C39 65.1363 39.3086 65.5068 39.7428 65.6018L42.5624 66.2161C42.6283 66.3822 42.6986 66.5465 42.7739 66.7078L41.2329 69.0538C40.9946 69.4177 41.05 69.8892 41.3648 70.1922L44.2372 72.9511C44.5526 73.254 45.0435 73.306 45.4205 73.0783L47.8649 71.5976C48.0342 71.6705 48.2046 71.738 48.3751 71.8008L49.0115 74.5089C49.1098 74.9266 49.4962 75.2229 49.9416 75.2229H54.0055C54.4509 75.2229 54.8367 74.9266 54.9356 74.5095L55.5752 71.8002C55.7456 71.7374 55.9161 71.6699 56.0853 71.597L58.5291 73.0777ZM54.4727 70.2304C54.1498 70.3284 53.9059 70.5842 53.8307 70.9009L53.2427 73.3909H50.7025L50.1177 70.9021C50.0431 70.5848 49.7986 70.329 49.4757 70.2304C49.0632 70.1049 48.6457 69.9388 48.2345 69.7368C47.9346 69.5892 47.5763 69.6048 47.2919 69.7775L45.0472 71.1375L43.2524 69.4136L44.6684 67.257C44.8494 66.9815 44.8643 66.6349 44.7082 66.3463C44.5047 65.9699 44.333 65.5707 44.1974 65.159C44.0954 64.8489 43.8297 64.6146 43.4993 64.5423L40.9069 63.9776V61.5396L43.4981 60.9779C43.8285 60.9062 44.0947 60.6714 44.1974 60.3613C44.333 59.9501 44.5047 59.551 44.7088 59.1739C44.865 58.8853 44.8494 58.5387 44.669 58.2633L43.2524 56.1067L45.0479 54.3804L47.2926 55.7428C47.5794 55.9167 47.9402 55.9316 48.2413 55.7816C48.6327 55.5862 49.0489 55.4213 49.4775 55.2904C49.8004 55.1924 50.0449 54.9367 50.1196 54.6188L50.7044 52.13H53.2446L53.8325 54.6194C53.9072 54.9367 54.1517 55.1918 54.474 55.2898C54.9026 55.4207 55.3188 55.5856 55.7102 55.781C56.0113 55.931 56.3721 55.9161 56.6589 55.7422L58.9036 54.3798L60.6991 56.1061L59.2825 58.2627C59.1027 58.5363 59.0865 58.8805 59.2402 59.1685C59.4505 59.5635 59.6234 59.9645 59.7541 60.3607C59.8561 60.6708 60.1224 60.9056 60.4534 60.9773L63.0446 61.539V63.9788L60.4521 64.5435C60.1218 64.6152 59.8561 64.8501 59.7541 65.1602C59.6234 65.557 59.4505 65.9579 59.2402 66.3523C59.0865 66.6403 59.1027 66.9845 59.2825 67.2582L60.6985 69.4147L58.9036 71.1387L56.6583 69.7787C56.3734 69.606 56.015 69.5904 55.7158 69.738C55.3033 69.9394 54.8852 70.1049 54.4727 70.2304ZM58.2933 62.7586C58.2933 59.4129 55.4582 56.6911 51.9729 56.6911C48.4896 56.6911 45.6557 59.4129 45.6557 62.7586C45.6557 66.1061 48.4896 68.8291 51.9729 68.8291C55.4582 68.8297 58.2933 66.1061 58.2933 62.7586ZM51.9729 66.9977C49.541 66.9977 47.5632 65.0962 47.5632 62.7586C47.5632 60.4228 49.5416 58.5232 51.9729 58.5232C54.4068 58.5232 56.3864 60.4234 56.3864 62.7586C56.3864 65.0962 54.4061 66.9977 51.9729 66.9977Z" fill="#797CD0"/>
</svg>
