<svg width="30" height="30" viewBox="0 0 30 30" fill="none" xmlns="http://www.w3.org/2000/svg">
<path d="M21.1411 19.062H19.8137L19.3432 18.6083C20.9899 16.6927 21.9813 14.2058 21.9813 11.5004C21.9813 5.46796 17.0915 0.578125 11.059 0.578125C5.02655 0.578125 0.136719 5.46796 0.136719 11.5004C0.136719 17.5329 5.02655 22.4227 11.059 22.4227C13.7644 22.4227 16.2513 21.4313 18.1669 19.7846L18.6206 20.2551V21.5826L27.0224 29.9675L29.5261 27.4638L21.1411 19.062ZM11.059 19.062C6.87494 19.062 3.49743 15.6845 3.49743 11.5004C3.49743 7.31635 6.87494 3.93883 11.059 3.93883C15.2431 3.93883 18.6206 7.31635 18.6206 11.5004C18.6206 15.6845 15.2431 19.062 11.059 19.062Z" fill="white"/>
</svg>
