<svg width="44" height="45" viewBox="0 0 44 45" fill="none" xmlns="http://www.w3.org/2000/svg">
<circle cx="22" cy="22" r="22" transform="matrix(-1 0 0 1 44 0.128906)" fill="#797CD0" fill-opacity="0.7"/>
<path d="M19.4292 28.9439L26.042 22.6523C26.1205 22.5774 26.1759 22.4963 26.2084 22.4089C26.2413 22.3215 26.2578 22.2279 26.2578 22.128C26.2578 22.0282 26.2413 21.9345 26.2084 21.8471C26.1759 21.7598 26.1205 21.6786 26.042 21.6037L19.4292 15.2934C19.2461 15.1186 19.0171 15.0312 18.7424 15.0312C18.4677 15.0312 18.2322 15.1249 18.036 15.3121C17.8398 15.4994 17.7417 15.7178 17.7417 15.9675C17.7417 16.2172 17.8398 16.4356 18.036 16.6229L23.805 22.128L18.036 27.6332C17.8529 27.8079 17.7613 28.0232 17.7613 28.2788C17.7613 28.535 17.8594 28.7567 18.0556 28.9439C18.2519 29.1312 18.4808 29.2248 18.7424 29.2248C19.0041 29.2248 19.233 29.1312 19.4292 28.9439Z" fill="white"/>
</svg>
