<svg width="21" height="18" viewBox="0 0 21 18" fill="none" xmlns="http://www.w3.org/2000/svg">
<path fill-rule="evenodd" clip-rule="evenodd" d="M2.98853 8.75026V15.0568C2.98853 15.3519 3.16261 15.6201 3.43233 15.7397C8.45381 17.9691 12.0938 17.9684 17.4695 15.7472C17.7489 15.6321 17.9312 15.3594 17.9312 15.0568V8.75026L10.7707 12.0294C10.5734 12.1198 10.3463 12.1198 10.1491 12.0294L2.98853 8.75026ZM0 12.0855V12.8274C0 13.2398 0.334715 13.5745 0.747133 13.5745C1.15955 13.5745 1.49427 13.2398 1.49427 12.8274V12.0855C1.49427 11.673 1.15955 11.3383 0.747133 11.3383C0.334715 11.3383 0 11.673 0 12.0855ZM0.611155 5.42028C0.263738 5.48454 0 5.78937 0 6.15546V9.86199C0 10.2744 0.334715 10.6091 0.747133 10.6091C1.15955 10.6091 1.49427 10.2744 1.49427 9.86199V7.36358L10.1468 11.357C10.3455 11.4489 10.5742 11.4489 10.7729 11.357L20.4856 6.8742C20.7426 6.75541 20.9108 6.50213 20.9197 6.21897C20.9279 5.93581 20.7763 5.67207 20.5267 5.53833L10.814 0.308406C10.5928 0.188865 10.3269 0.188865 10.1057 0.308406L0.611155 5.42028Z" fill="#797CD0"/>
</svg>
