<svg width="79" height="84" viewBox="0 0 79 84" fill="none" xmlns="http://www.w3.org/2000/svg">
<path d="M49.3828 46.6484C49.4336 46.4179 49.6211 46.2539 49.8633 46.2304L53.7071 46.0117V42.7109L49.8633 42.4921C49.625 42.4804 49.4375 42.3046 49.3828 42.0742C49.1015 40.7734 48.5898 39.5234 47.8516 38.3867C47.7149 38.1875 47.7383 37.9296 47.8946 37.75L50.4688 34.875L48.125 32.5429L45.25 35.1054C45.0742 35.2617 44.8125 35.2812 44.6132 35.1562C43.4765 34.418 42.2382 33.8945 40.9257 33.625C40.6953 33.5743 40.5312 33.375 40.5195 33.1446L40.3007 29.2891L36.9882 29.293L36.7695 33.1485C36.7578 33.3789 36.5937 33.5742 36.3632 33.6289C35.0507 33.8985 33.8124 34.4219 32.664 35.1601C32.4648 35.2851 32.2148 35.2656 32.039 35.1094L29.1523 32.5469L26.8203 34.8789L29.3945 37.7539C29.5508 37.9296 29.5625 38.1914 29.4375 38.3906C28.6992 39.5273 28.1875 40.7773 27.9063 42.0781C27.8555 42.3085 27.6563 42.4843 27.4258 42.496L23.582 42.7148V46.0156L27.4258 46.2343C27.6563 46.2539 27.8516 46.4218 27.9063 46.6523C28.1876 47.9648 28.6993 49.2031 29.4375 50.3398C29.5625 50.539 29.5508 50.7968 29.3945 50.9765L26.8203 53.8515L29.1523 56.1835L32.039 53.621C32.2148 53.4648 32.4648 53.4453 32.664 53.5703C33.8085 54.3085 35.0507 54.832 36.3632 55.1133C36.5937 55.1562 36.7578 55.3515 36.7695 55.5937L36.9882 59.4375H40.3007L40.5195 55.5937C40.5312 55.3554 40.6953 55.1562 40.9257 55.1133C42.2382 54.832 43.4765 54.3125 44.6132 53.5703C44.8125 53.4453 45.0703 53.4648 45.25 53.621L48.125 56.1835L50.4688 53.8515L47.8946 50.9765C47.7383 50.8008 47.7188 50.539 47.8516 50.3398C48.5938 49.1992 49.1016 47.9609 49.3828 46.6484ZM38.6448 51.1562C34.8948 51.1562 31.8518 48.1054 31.8518 44.3632C31.8518 40.6132 34.8948 37.5624 38.6448 37.5624C42.3948 37.5624 45.4378 40.6132 45.4378 44.3632C45.4378 48.1054 42.3948 51.1562 38.6448 51.1562Z" fill="#797CD0"/>
<path d="M44.3945 44.3672C44.3945 47.5352 41.8125 50.1172 38.6445 50.1172C35.4687 50.1172 32.8945 47.5352 32.8945 44.3672C32.8945 41.1914 35.4687 38.6055 38.6445 38.6055C41.8125 38.6055 44.3945 41.1875 44.3945 44.3672Z" fill="#797CD0"/>
<path d="M21.332 65.8047V71.1992H18.625V72.2422H21.7812C21.8007 72.2539 21.8242 72.2539 21.8554 72.2539C21.8867 72.2539 21.9179 72.2539 21.9492 72.2422C22.1992 72.1914 22.3749 71.9805 22.3749 71.7305V65.8047L21.332 65.8047ZM30.875 65.8047V75.9497H27.9805V76.9927H31.3985C31.6915 76.9927 31.918 76.7622 31.918 76.4732V65.8052L30.875 65.8047ZM38.6562 65.8047V78.3667H39.6992V65.8047H38.6562ZM47.4765 75.9527V65.8077H46.4335V76.4757C46.4335 76.7687 46.664 76.9952 46.953 76.9952H50.4335V75.9522L47.4765 75.9527ZM57.0195 71.2027V65.8082H55.9765V71.734C55.9765 71.984 56.164 72.191 56.4023 72.2457C56.4335 72.2457 56.4648 72.2574 56.496 72.2574C56.5156 72.2574 56.539 72.2574 56.5468 72.2457H59.6718V71.2027L57.0195 71.2027Z" fill="#797CD0"/>
<path d="M64.4141 71.7227C64.4141 72.7422 63.5899 73.5782 62.5704 73.5782C61.5508 73.5782 60.7148 72.7462 60.7148 71.7227C60.7148 70.711 61.5469 69.8789 62.5704 69.8789C63.5938 69.8789 64.4141 70.7109 64.4141 71.7227Z" fill="#797CD0"/>
<path d="M17.6329 71.7227C17.6329 72.7422 16.8009 73.5782 15.7774 73.5782C14.7579 73.5782 13.9336 72.7462 13.9336 71.7227C13.9336 70.711 14.7578 69.8789 15.7774 69.8789C16.8008 69.8789 17.6329 70.7109 17.6329 71.7227Z" fill="#797CD0"/>
<path d="M26.9259 76.4727C26.9259 77.4922 26.0938 78.3165 25.0821 78.3165C24.0626 78.3165 23.2266 77.4923 23.2266 76.4727C23.2266 75.4532 24.0586 74.6172 25.0821 74.6172C26.1016 74.6172 26.9259 75.4531 26.9259 76.4727Z" fill="#797CD0"/>
<path d="M41.0196 81.211C41.0196 82.2305 40.1954 83.0665 39.1758 83.0665C38.1562 83.0665 37.3203 82.2344 37.3203 81.211C37.3203 80.1915 38.1523 79.3555 39.1758 79.3555C40.1953 79.3594 41.0196 80.1914 41.0196 81.211Z" fill="#797CD0"/>
<path d="M55.1251 76.4727C55.1251 77.4922 54.2931 78.3165 53.2696 78.3165C52.2579 78.3165 51.4258 77.4923 51.4258 76.4727C51.4258 75.4532 52.25 74.6172 53.2696 74.6172C54.2892 74.6172 55.1251 75.4531 55.1251 76.4727Z" fill="#797CD0"/>
<path d="M21.9688 10.8242C21.918 10.8125 21.8555 10.8125 21.8008 10.8125H18.625V11.8555H21.332V20.4063L22.375 19.8438V11.3321C22.375 11.0938 22.207 10.8867 21.9688 10.8242ZM31.3946 6.0742H27.9141V7.1172H30.8711V17.3792L31.9141 17.305V6.59398C31.9141 6.30492 31.6875 6.0742 31.3946 6.0742ZM38.6563 4.6875V17.7815C38.6563 17.8245 38.668 17.8635 38.6758 17.8948L39.5625 18.1331C39.6446 18.0393 39.6992 17.9143 39.6992 17.7776L39.6953 4.68759L38.6563 4.6875ZM46.9571 6.0742C46.6641 6.0742 46.4375 6.30467 46.4375 6.59373V21.2387L47.4805 21.9692L47.4766 7.1172H50.4336V6.0742H46.9571ZM56.5704 10.8125C56.5079 10.8008 56.4454 10.8125 56.3829 10.8242C56.1446 10.8867 55.9766 11.0937 55.9766 11.3359V24.1289L57.0196 23.7969V11.8559H59.7266V10.8129L56.5704 10.8125Z" fill="#797CD0"/>
<path d="M17.6329 11.336C17.6329 12.3555 16.8009 13.1915 15.7774 13.1915C14.7579 13.1915 13.9336 12.3595 13.9336 11.336C13.9336 10.3165 14.7578 9.49219 15.7774 9.49219C16.8008 9.49219 17.6329 10.3125 17.6329 11.336Z" fill="#797CD0"/>
<path d="M26.9259 6.5938C26.9259 7.6133 26.1016 8.4493 25.0821 8.4493C24.0625 8.4493 23.2266 7.61727 23.2266 6.5938C23.2266 5.5743 24.0586 4.75 25.0821 4.75C26.0938 4.75 26.9259 5.57422 26.9259 6.5938Z" fill="#797CD0"/>
<path d="M41.0313 1.8555C41.0313 2.875 40.1993 3.6993 39.1758 3.6993C38.1563 3.6993 37.332 2.87508 37.332 1.8555C37.332 0.83592 38.1563 0 39.1758 0C40.1954 0 41.0313 0.83594 41.0313 1.8555Z" fill="#797CD0"/>
<path d="M55.1251 6.5938C55.1251 7.6133 54.2931 8.4493 53.2696 8.4493C52.2501 8.4493 51.4258 7.61727 51.4258 6.5938C51.4258 5.5743 52.2578 4.75 53.2696 4.75C54.2891 4.75 55.1251 5.57422 55.1251 6.5938Z" fill="#797CD0"/>
<path d="M64.4141 11.336C64.4141 12.3555 63.5899 13.1915 62.5704 13.1915C61.5508 13.1915 60.7148 12.3595 60.7148 11.336C60.7148 10.3165 61.5469 9.49219 62.5704 9.49219C63.5938 9.49219 64.4141 10.3125 64.4141 11.336Z" fill="#797CD0"/>
<path d="M66.8829 40.8555C66.6759 40.8555 66.4962 40.7305 66.4142 40.543C66.34 40.3555 66.3712 40.1368 66.5079 39.9922C68.0821 38.2734 68.9454 36.0547 68.9454 33.7422C68.9454 28.6289 64.7892 24.4727 59.6759 24.4727C56.9571 24.4727 54.3751 25.6719 52.6017 27.7539C52.508 27.8789 52.3517 27.9414 52.1955 27.9414C52.0275 27.9297 51.883 27.8594 51.7892 27.7227C47.4572 21.8282 40.5082 18.3047 33.2072 18.3047C20.5002 18.3047 10.1563 28.6487 10.1563 41.3557C10.1563 43.0119 10.3437 44.6877 10.6992 46.3245C10.7305 46.4807 10.6992 46.637 10.5938 46.762C10.5 46.887 10.3438 46.9495 10.1875 46.9495H8.7305C3.918 46.9495 0 50.8675 0 55.68C0 60.4925 3.918 64.4105 8.7305 64.4105H21.6485C21.711 64.3792 21.7852 64.3675 21.8555 64.3675C21.918 64.3675 21.9922 64.3792 22.0547 64.4105H56.3047C56.3672 64.3792 56.4415 64.3675 56.504 64.3675C56.5782 64.3675 56.6485 64.3792 56.711 64.4105H66.5743C73.0626 64.4105 78.3553 59.1175 78.3553 52.6295C78.3514 46.1998 73.3123 41.0315 66.8823 40.8565L66.8829 40.8555ZM54.7499 46.5C54.7499 46.7813 54.5312 47.0117 54.2617 47.0195L50.3125 47.25C50.0195 48.418 49.5625 49.5195 48.9375 50.5625L51.5742 53.5195C51.7499 53.7187 51.7421 54.0312 51.5546 54.2265L48.5234 57.2577C48.3242 57.457 48.0117 57.4648 47.8047 57.2773L44.8477 54.6406C43.8165 55.2773 42.7032 55.7344 41.5352 56.0273L41.3164 59.9765C41.2969 60.246 41.0664 60.4648 40.7969 60.4648H36.5039C36.2344 60.4648 36.0039 60.246 35.9844 59.9765L35.7539 56.0273C34.5977 55.7343 33.4844 55.2773 32.4414 54.6406L29.4922 57.2773C29.2852 57.4648 28.9727 57.4531 28.7735 57.2577L25.7423 54.2265C25.543 54.0273 25.5352 53.7148 25.7227 53.5195L28.3594 50.5625C27.7344 49.5195 27.2656 48.418 26.9844 47.25L23.0352 47.0195C22.754 47.0078 22.5469 46.7813 22.5469 46.5V42.2188C22.5469 41.9376 22.754 41.7071 23.0352 41.6993L26.9844 41.4688C27.2657 40.3008 27.7344 39.1993 28.3594 38.1563L25.7227 35.1993C25.5352 35.0001 25.5469 34.6876 25.7423 34.4923L28.7735 31.4611C28.9727 31.2619 29.2852 31.2541 29.4922 31.4416L32.4414 34.0783C33.4844 33.4415 34.5976 32.9845 35.7539 32.6916L35.9844 28.7541C36.0039 28.4728 36.2344 28.2541 36.5039 28.2541H40.7969C41.0664 28.2541 41.2969 28.4728 41.3164 28.7541L41.5352 32.6916C42.7032 32.9845 43.8164 33.4416 44.8477 34.0783L47.8047 31.4416C48.0117 31.2541 48.3242 31.2658 48.5234 31.4611L51.5546 34.4923C51.7421 34.6915 51.7539 35.004 51.5742 35.1993L48.9375 38.1563C49.5625 39.1993 50.0195 40.3008 50.3125 41.4688L54.2617 41.6993C54.5312 41.711 54.7499 41.9376 54.7499 42.2188V46.5Z" fill="#797CD0"/>
</svg>
