<svg width="137" height="137" viewBox="0 0 137 137" fill="none" xmlns="http://www.w3.org/2000/svg">
<circle cx="68.3151" cy="68.3151" r="68.3151" fill="white"/>
<circle cx="68.3151" cy="68.3151" r="63.4355" stroke="#797CD0" stroke-opacity="0.7" stroke-width="9.7593"/>
<path d="M40.8848 92.7152V43.9187C40.8848 43.1422 41.1932 42.3975 41.7421 41.8485C42.291 41.2994 43.0354 40.9909 43.8117 40.9909H74.0558V45.8706C74.0558 46.6471 74.3642 47.3918 74.9131 47.9408C75.462 48.4899 76.2064 48.7984 76.9827 48.7984H81.8608V68.317H83.812V47.8224C83.812 47.5636 83.7091 47.3154 83.5262 47.1325L75.7212 39.325C75.5383 39.142 75.2902 39.0391 75.0315 39.0391H43.8117C42.5184 39.0406 41.2785 39.5552 40.3641 40.47C39.4496 41.3848 38.9351 42.625 38.9336 43.9187V92.7152C38.9351 94.0089 39.4496 95.2492 40.3641 96.1639C41.2785 97.0787 42.5184 97.5933 43.8117 97.5949H74.0558V95.643H43.8117C43.0354 95.643 42.291 95.3345 41.7421 94.7855C41.1932 94.2364 40.8848 93.4917 40.8848 92.7152ZM76.0071 45.8706V42.3709L80.4813 46.8465H76.9827C76.7239 46.8465 76.4758 46.7437 76.2928 46.5607C76.1099 46.3776 76.0071 46.1294 76.0071 45.8706Z" fill="#797CD0"/>
<path d="M49.6672 51.7248H47.7159C47.4572 51.7248 47.209 51.622 47.0261 51.4389C46.8431 51.2559 46.7403 51.0077 46.7403 50.7488H44.7891C44.7891 51.5253 45.0974 52.27 45.6463 52.8191C46.1952 53.3682 46.9397 53.6766 47.7159 53.6766V54.6526H49.6672V53.6766C50.4434 53.6766 51.1879 53.3682 51.7368 52.8191C52.2856 52.27 52.594 51.5253 52.594 50.7488C52.594 49.9723 52.2856 49.2277 51.7368 48.6786C51.1879 48.1295 50.4434 47.8211 49.6672 47.8211H47.7159C47.4572 47.8211 47.209 47.7182 47.0261 47.5352C46.8431 47.3522 46.7403 47.104 46.7403 46.8451C46.7403 46.5863 46.8431 46.3381 47.0261 46.155C47.209 45.972 47.4572 45.8692 47.7159 45.8692H49.6672C49.9259 45.8692 50.1741 45.972 50.357 46.155C50.54 46.3381 50.6428 46.5863 50.6428 46.8451H52.594C52.594 46.0686 52.2856 45.3239 51.7368 44.7749C51.1879 44.2258 50.4434 43.9173 49.6672 43.9173V42.9414H47.7159V43.9173C46.9397 43.9173 46.1952 44.2258 45.6463 44.7749C45.0974 45.3239 44.7891 46.0686 44.7891 46.8451C44.7891 47.6216 45.0974 48.3663 45.6463 48.9154C46.1952 49.4645 46.9397 49.7729 47.7159 49.7729H49.6672C49.9259 49.7729 50.1741 49.8757 50.357 50.0588C50.54 50.2418 50.6428 50.49 50.6428 50.7488C50.6428 51.0077 50.54 51.2559 50.357 51.4389C50.1741 51.622 49.9259 51.7248 49.6672 51.7248Z" fill="#797CD0"/>
<path d="M53.5716 83.9321C53.3129 83.9321 53.0647 84.035 52.8818 84.218C52.6988 84.401 52.596 84.6492 52.596 84.9081V90.7637C52.596 91.0225 52.6988 91.2707 52.8818 91.4537C53.0647 91.6368 53.3129 91.7396 53.5716 91.7396H59.4254C59.6841 91.7396 59.9323 91.6368 60.1152 91.4537C60.2982 91.2707 60.401 91.0225 60.401 90.7637V88.8118H66.2547C66.5134 88.8118 66.7616 88.709 66.9445 88.526C67.1275 88.3429 67.2303 88.0947 67.2303 87.8359V79.0525H69.1815C69.4403 79.0525 69.6884 78.9497 69.8714 78.7667C70.0544 78.5836 70.1571 78.3354 70.1571 78.0766V72.221C70.1571 71.9622 70.0544 71.7139 69.8714 71.5309C69.6884 71.3479 69.4403 71.2451 69.1815 71.2451H63.3278C63.0691 71.2451 62.8209 71.3479 62.638 71.5309C62.455 71.7139 62.3522 71.9622 62.3522 72.221V74.1728H60.7258L57.4741 71.733V65.3895H59.4254C59.6841 65.3895 59.9323 65.2867 60.1152 65.1036C60.2982 64.9206 60.401 64.6724 60.401 64.4135V58.558C60.401 58.2991 60.2982 58.0509 60.1152 57.8679C59.9323 57.6849 59.6841 57.582 59.4254 57.582H53.5716C53.3129 57.582 53.0647 57.6849 52.8818 57.8679C52.6988 58.0509 52.596 58.2991 52.596 58.558V64.4135C52.596 64.6724 52.6988 64.9206 52.8818 65.1036C53.0647 65.2867 53.3129 65.3895 53.5716 65.3895H55.5229V71.733L52.2711 74.1728H50.6448V72.221C50.6448 71.9622 50.542 71.7139 50.359 71.5309C50.1761 71.3479 49.9279 71.2451 49.6692 71.2451H43.8155C43.5567 71.2451 43.3086 71.3479 43.1256 71.5309C42.9426 71.7139 42.8398 71.9622 42.8398 72.221V78.0766C42.8398 78.3354 42.9426 78.5836 43.1256 78.7667C43.3086 78.9497 43.5567 79.0525 43.8155 79.0525H49.6692C49.9279 79.0525 50.1761 78.9497 50.359 78.7667C50.542 78.5836 50.6448 78.3354 50.6448 78.0766V76.1247H52.2711L55.5229 78.5645V83.9321H53.5716ZM54.5473 59.5339H58.4497V63.4376H54.5473V59.5339ZM48.6936 77.1006H44.7911V73.1969H48.6936V77.1006ZM58.4497 89.7877H54.5473V85.884H58.4497V89.7877ZM64.3034 73.1969H68.2059V77.1006H64.3034V73.1969ZM56.4985 73.4409L58.7746 75.1488L56.4985 76.8567L54.2224 75.1488L56.4985 73.4409ZM57.4741 78.5645L60.7258 76.1247H62.3522V78.0766C62.3522 78.3354 62.455 78.5836 62.638 78.7667C62.8209 78.9497 63.0691 79.0525 63.3278 79.0525H65.2791V86.8599H60.401V84.9081C60.401 84.6492 60.2982 84.401 60.1152 84.218C59.9323 84.035 59.6841 83.9321 59.4254 83.9321H57.4741V78.5645Z" fill="#797CD0"/>
<path d="M66.2543 51.7266H54.5469V53.6784H66.2543V51.7266Z" fill="#797CD0"/>
<path d="M66.2503 47.8242H58.4453V49.7761H66.2503V47.8242Z" fill="#797CD0"/>
<path d="M56.4987 47.8242H54.5469V49.7761H56.4987V47.8242Z" fill="#797CD0"/>
<path d="M96.6326 81.0145L94.016 80.6407C93.8391 80.0904 93.6176 79.5554 93.3535 79.0412L94.9389 76.9263C95.0795 76.7385 95.1477 76.5062 95.131 76.2722C95.1144 76.0381 95.014 75.8178 94.8482 75.6518L92.0891 72.8919C91.9231 72.726 91.703 72.6255 91.4689 72.6089C91.2349 72.5922 91.0028 72.6605 90.815 72.8011L88.7008 74.387C88.1867 74.123 87.6519 73.9014 87.1018 73.7243L86.7281 71.1069C86.6948 70.8744 86.5787 70.6618 86.4013 70.508C86.2239 70.3542 85.997 70.2695 85.7622 70.2695H81.8598C81.625 70.2695 81.3981 70.3542 81.2207 70.508C81.0433 70.6618 80.9272 70.8744 80.8939 71.1069L80.5202 73.7243C79.97 73.9012 79.4353 74.1228 78.9212 74.387L76.807 72.8011C76.6192 72.6605 76.3871 72.5922 76.153 72.6089C75.919 72.6255 75.6989 72.726 75.5329 72.8919L72.7738 75.6518C72.608 75.8178 72.5076 76.0381 72.4909 76.2722C72.4743 76.5062 72.5425 76.7385 72.6831 76.9263L74.2685 79.0412C74.0044 79.5554 73.7829 80.0904 73.606 80.6407L70.9894 81.0145C70.757 81.0479 70.5445 81.1639 70.3907 81.3414C70.2369 81.5189 70.1523 81.7458 70.1523 81.9807V85.8844C70.1523 86.1193 70.2369 86.3462 70.3907 86.5237C70.5445 86.7012 70.757 86.8172 70.9894 86.8506L73.606 87.2244C73.7829 87.7747 74.0044 88.3097 74.2685 88.8239L72.6831 90.9388C72.5425 91.1266 72.4743 91.3589 72.4909 91.593C72.5076 91.827 72.608 92.0473 72.7738 92.2133L75.5329 94.9732C75.6989 95.1391 75.919 95.2396 76.153 95.2562C76.3871 95.2729 76.6192 95.2047 76.807 95.064L78.9212 93.4781C79.4353 93.7423 79.97 93.9639 80.5202 94.1408L80.8939 96.7582C80.9272 96.9907 81.0433 97.2033 81.2207 97.3571C81.3981 97.5109 81.625 97.5956 81.8598 97.5956H85.7622C85.997 97.5956 86.2239 97.5109 86.4013 97.3571C86.5787 97.2033 86.6948 96.9907 86.7281 96.7582L87.1018 94.1408C87.6519 93.9637 88.1867 93.7421 88.7008 93.4781L90.815 95.064C91.0028 95.2047 91.2349 95.2729 91.4689 95.2562C91.703 95.2396 91.9231 95.1391 92.0891 94.9732L94.8482 92.2133C95.014 92.0473 95.1144 91.827 95.131 91.593C95.1477 91.3589 95.0795 91.1266 94.9389 90.9388L93.3535 88.8239C93.6176 88.3097 93.8391 87.7747 94.016 87.2244L96.6326 86.8506C96.865 86.8172 97.0775 86.7012 97.2313 86.5237C97.3851 86.3462 97.4697 86.1193 97.4696 85.8844V81.9807C97.4697 81.7458 97.3851 81.5189 97.2313 81.3414C97.0775 81.1639 96.865 81.0479 96.6326 81.0145ZM95.5184 85.0383L93.1155 85.3808C92.9242 85.4083 92.7454 85.492 92.6018 85.6213C92.4582 85.7506 92.3561 85.9196 92.3086 86.1069C92.1029 86.9152 91.7819 87.6895 91.3555 88.4062C91.2571 88.5724 91.2103 88.7641 91.2209 88.9569C91.2315 89.1497 91.299 89.3351 91.415 89.4895L92.8706 91.4326L91.3096 92.9941L89.3671 91.538C89.2128 91.422 89.0275 91.3544 88.8347 91.3438C88.6419 91.3332 88.4503 91.3801 88.2842 91.4784C87.5678 91.905 86.7936 92.2261 85.9856 92.4319C85.7984 92.4794 85.6294 92.5815 85.5002 92.7252C85.3709 92.8689 85.2873 93.0477 85.2598 93.239L84.9164 95.6437H82.7056L82.3632 93.24C82.3357 93.0487 82.252 92.8699 82.1228 92.7262C81.9936 92.5825 81.8246 92.4804 81.6373 92.4329C80.8293 92.2271 80.0552 91.906 79.3388 91.4794C79.1726 91.381 78.981 91.3342 78.7883 91.3448C78.5955 91.3554 78.4102 91.423 78.2558 91.539L76.3134 92.995L74.7524 91.4336L76.208 89.4905C76.324 89.3361 76.3915 89.1507 76.4021 88.9579C76.4127 88.765 76.3659 88.5734 76.2675 88.4072C75.8411 87.6905 75.5201 86.9161 75.3143 86.1079C75.2668 85.9206 75.1648 85.7515 75.0212 85.6223C74.8775 85.493 74.6988 85.4093 74.5075 85.3818L72.1036 85.0383V82.8268L74.5065 82.4843C74.6978 82.4568 74.8766 82.3731 75.0202 82.2438C75.1638 82.1145 75.2659 81.9455 75.3134 81.7582C75.5191 80.9499 75.8401 80.1756 76.2665 79.4589C76.3649 79.2927 76.4117 79.101 76.4011 78.9082C76.3905 78.7154 76.323 78.53 76.207 78.3756L74.7514 76.4325L76.3124 74.871L78.2549 76.3271C78.4092 76.4431 78.5945 76.5107 78.7873 76.5213C78.9801 76.5319 79.1716 76.485 79.3378 76.3867C80.0542 75.9601 80.8284 75.639 81.6363 75.4332C81.8236 75.3857 81.9926 75.2836 82.1218 75.1399C82.251 74.9962 82.3347 74.8174 82.3622 74.6261L82.7056 72.2214H84.9164L85.2588 74.6251C85.2863 74.8164 85.37 74.9952 85.4992 75.1389C85.6284 75.2826 85.7974 75.3847 85.9847 75.4322C86.7926 75.638 87.5668 75.9591 88.2832 76.3857C88.4494 76.4841 88.641 76.5309 88.8337 76.5203C89.0265 76.5097 89.2118 76.4421 89.3662 76.3262L91.3086 74.8701L92.8696 76.4316L91.414 78.3746C91.298 78.529 91.2305 78.7144 91.2199 78.9072C91.2093 79.1001 91.2561 79.2917 91.3545 79.4579C91.7809 80.1746 92.1019 80.949 92.3077 81.7572C92.3552 81.9445 92.4572 82.1136 92.6008 82.2428C92.7445 82.3721 92.9232 82.4558 93.1145 82.4833L95.5184 82.8268V85.0383Z" fill="#797CD0"/>
<path d="M84.7917 74.1719H82.8398V76.1237H84.7917V74.1719Z" fill="#797CD0"/>
<path d="M77.5987 76.3423L76.2188 77.7227L77.5987 79.1031L78.9787 77.7227L77.5987 76.3423Z" fill="#797CD0"/>
<path d="M76.0105 82.957H74.0586V84.9089H76.0105V82.957Z" fill="#797CD0"/>
<path d="M77.5987 88.7641L76.2188 90.1445L77.5987 91.5249L78.9787 90.1445L77.5987 88.7641Z" fill="#797CD0"/>
<path d="M84.7917 91.7383H82.8398V93.6901H84.7917V91.7383Z" fill="#797CD0"/>
<path d="M90.0206 88.7641L88.6406 90.1445L90.0206 91.5249L91.4005 90.1445L90.0206 88.7641Z" fill="#797CD0"/>
<path d="M93.573 82.957H91.6211V84.9089H93.573V82.957Z" fill="#797CD0"/>
<path d="M90.0206 76.3423L88.6406 77.7227L90.0206 79.1031L91.4005 77.7227L90.0206 76.3423Z" fill="#797CD0"/>
<path d="M83.8186 78.0742C82.6608 78.0742 81.529 78.4176 80.5664 79.0611C79.6038 79.7045 78.8535 80.619 78.4104 81.689C77.9674 82.7589 77.8515 83.9363 78.0773 85.0722C78.3032 86.208 78.8607 87.2514 79.6794 88.0703C80.498 88.8892 81.541 89.4469 82.6766 89.6729C83.8121 89.8988 84.989 89.7828 86.0587 89.3397C87.1283 88.8965 88.0425 88.1459 88.6857 87.183C89.329 86.22 89.6723 85.0879 89.6723 83.9298C89.6707 82.3773 89.0535 80.8888 87.956 79.791C86.8586 78.6932 85.3706 78.0758 83.8186 78.0742ZM83.8186 87.8335C83.0467 87.8335 82.2922 87.6046 81.6505 87.1756C81.0087 86.7467 80.5085 86.137 80.2131 85.4237C79.9178 84.7104 79.8405 83.9255 79.9911 83.1682C80.1416 82.411 80.5133 81.7154 81.0591 81.1695C81.6049 80.6235 82.3002 80.2517 83.0572 80.1011C83.8142 79.9505 84.5989 80.0278 85.312 80.3232C86.0251 80.6187 86.6345 81.119 87.0633 81.761C87.4922 82.403 87.721 83.1577 87.721 83.9298C87.721 84.9651 87.3099 85.9581 86.578 86.6901C85.8462 87.4222 84.8536 87.8335 83.8186 87.8335Z" fill="#797CD0"/>
<path d="M77.9593 57.582H68.2031V59.5339H77.9593V57.582Z" fill="#797CD0"/>
<path d="M77.9593 61.4844H68.2031V63.4362H77.9593V61.4844Z" fill="#797CD0"/>
<path d="M77.9593 65.3906H68.2031V67.3425H77.9593V65.3906Z" fill="#797CD0"/>
</svg>
