<svg width="21" height="18" viewBox="0 0 21 18" fill="none" xmlns="http://www.w3.org/2000/svg">
<path fill-rule="evenodd" clip-rule="evenodd" d="M2.98853 8.67994V14.9865C2.98853 15.2816 3.16261 15.5498 3.43233 15.6694C8.45381 17.8988 12.0938 17.8981 17.4695 15.6768C17.7489 15.5618 17.9312 15.2891 17.9312 14.9865V8.67994L10.7707 11.9591C10.5734 12.0495 10.3463 12.0495 10.1491 11.9591L2.98853 8.67994ZM0 12.0151V12.757C0 13.1695 0.334715 13.5042 0.747133 13.5042C1.15955 13.5042 1.49427 13.1695 1.49427 12.757V12.0151C1.49427 11.6027 1.15955 11.268 0.747133 11.268C0.334715 11.268 0 11.6027 0 12.0151ZM0.611155 5.34997C0.263738 5.41423 0 5.71906 0 6.08515V9.79168C0 10.2041 0.334715 10.5388 0.747133 10.5388C1.15955 10.5388 1.49427 10.2041 1.49427 9.79168V7.29327L10.1468 11.2867C10.3455 11.3786 10.5742 11.3786 10.7729 11.2867L20.4856 6.80389C20.7426 6.6851 20.9108 6.43182 20.9197 6.14866C20.9279 5.86549 20.7763 5.60176 20.5267 5.46802L10.814 0.238093C10.5928 0.118552 10.3269 0.118552 10.1057 0.238093L0.611155 5.34997Z" fill="#797CD0"/>
</svg>
