<svg width="17" height="21" viewBox="0 0 17 21" fill="none" xmlns="http://www.w3.org/2000/svg">
<path d="M8.55248 0.242188C4.24905 0.242188 0.355469 3.54148 0.355469 8.64412C0.355469 11.9024 2.8658 15.7345 7.87623 20.1507C8.26558 20.4888 8.84962 20.4888 9.23898 20.1507C14.2392 15.7345 16.7495 11.9024 16.7495 8.64412C16.7495 3.54148 12.8559 0.242188 8.55248 0.242188ZM8.55248 10.4885C7.42539 10.4885 6.50323 9.56629 6.50323 8.4392C6.50323 7.31211 7.42539 6.38995 8.55248 6.38995C9.67957 6.38995 10.6017 7.31211 10.6017 8.4392C10.6017 9.56629 9.67957 10.4885 8.55248 10.4885Z" fill="#1A2747" fill-opacity="0.7"/>
</svg>
