<svg width="52" height="37" viewBox="0 0 52 37" fill="none" xmlns="http://www.w3.org/2000/svg">
<g clip-path="url(#clip0_290_8642)">
<g clip-path="url(#clip1_290_8642)">
<g clip-path="url(#clip2_290_8642)">
<path d="M28.5861 3.73207C28.5861 3.66271 28.5584 3.60722 28.5029 3.5656L27.3654 2.78874L28.6 0.99919C28.6555 0.915955 28.6416 0.818847 28.5861 0.749485C28.5168 0.680122 28.4197 0.66625 28.3364 0.72174L25.0348 2.74713C24.9793 2.77487 24.9377 2.84423 24.9377 2.9136C24.9377 2.98296 24.9654 3.03845 25.0209 3.08007L26.1584 3.85693L24.9377 5.63261C24.8822 5.71584 24.8961 5.81295 24.9515 5.88231C24.9654 5.89618 24.9654 5.89618 24.9793 5.91006C25.0486 5.95167 25.1319 5.95167 25.1874 5.91006L28.489 3.88467C28.5445 3.85693 28.5861 3.78756 28.5861 3.73207Z" fill="#DDDDDD"/>
<path d="M21.6254 3.88274L24.9271 5.90813C24.9964 5.94974 25.0797 5.94974 25.1352 5.90813C25.149 5.89425 25.1629 5.89425 25.1629 5.88038C25.2323 5.81102 25.2323 5.71391 25.1768 5.63068L23.956 3.85499L25.0935 3.07813C25.149 3.03652 25.1768 2.98103 25.1768 2.91166C25.1768 2.8423 25.1352 2.78681 25.0797 2.74519L21.7919 0.719808C21.7087 0.678191 21.6115 0.678191 21.5422 0.747553C21.4728 0.816916 21.4728 0.914024 21.5283 0.997259L22.7491 2.77294L21.6115 3.5498C21.5561 3.59142 21.5283 3.64691 21.5283 3.71627C21.5422 3.78563 21.5699 3.85499 21.6254 3.88274Z" fill="#BBBBBB"/>
<path fill-rule="evenodd" clip-rule="evenodd" d="M25.2211 2.6875C36.7907 2.6875 46.0159 8.01454 46.1685 19.4455C46.3073 30.599 36.7907 36.2035 25.2211 36.2035C13.6514 36.2035 4.31519 30.9319 4.27357 19.4455C4.23196 7.79258 13.6514 2.6875 25.2211 2.6875Z" fill="#DDDDDD"/>
<path d="M15.9534 3.99553C9.142 6.13189 4.16177 11.126 4.20338 19.4356C4.23113 28.3418 9.86337 33.5162 17.7846 35.389C10.8899 26.136 13.165 17.7293 16.106 12.1664C17.41 9.69713 19.1302 7.46365 21.1417 5.53537C22.1544 4.5643 23.4723 3.95391 24.8734 3.81518C25.3867 3.75969 25.2341 3.1493 25.2064 2.98283C25.1786 2.83024 25.137 2.76087 25.0121 2.70538C24.8873 2.64989 22.7232 2.77475 22.2654 2.81636C18.8805 3.07994 16.4251 3.84293 15.9534 3.99553Z" fill="#BBBBBB"/>
<path fill-rule="evenodd" clip-rule="evenodd" d="M39.1449 14.9819C39.1449 14.9819 36.9947 12.2212 33.3185 13.5114H33.3046C33.1242 13.5946 28.4353 15.7587 27.8804 16.05C27.8804 16.05 26.7013 16.6049 25.2308 16.6743C23.7603 16.6049 22.5811 16.05 22.5811 16.05C22.0262 15.7587 17.3373 13.5946 17.157 13.5114H17.1431C13.4669 12.2212 11.3167 14.9819 11.3167 14.9819C8.98608 17.465 9.01382 23.4163 9.01382 23.4163C8.90284 26.1492 13.2172 26.8983 13.2172 26.8983C17.4206 27.8833 24.4678 27.8417 25.2308 27.8417C25.9938 27.8417 33.041 27.8833 37.2444 26.8983C37.2444 26.8983 41.5587 26.1492 41.4477 23.4163C41.4477 23.4163 41.4616 17.465 39.1449 14.9819Z" fill="white"/>
<path fill-rule="evenodd" clip-rule="evenodd" d="M3.43863 14.9867C3.43863 14.9867 1.95428 19.953 3.43863 23.8928C3.43863 23.8928 3.93804 24.9333 3.17506 24.6836C3.17506 24.6836 0.788985 23.9206 0.81673 19.4536C0.81673 19.4536 0.539279 15.9716 2.6479 14.737C2.6479 14.7231 3.85481 13.9462 3.43863 14.9867Z" fill="#BBBBBB"/>
<path fill-rule="evenodd" clip-rule="evenodd" d="M47.8302 14.7192C49.9388 15.9538 49.6613 19.4358 49.6613 19.4358C49.6891 23.9028 47.303 24.6658 47.303 24.6658C46.54 24.9293 47.0394 23.875 47.0394 23.875C48.5238 19.9352 47.0394 14.9689 47.0394 14.9689C46.6371 13.9423 47.8302 14.7192 47.8302 14.7192Z" fill="#DDDDDD"/>
<g opacity="0.4">
<path d="M15.9534 3.99553C9.142 6.13189 4.16177 11.126 4.20338 19.4356C4.23113 28.3418 9.86337 33.5162 17.7846 35.389C10.8899 26.136 13.165 17.7293 16.106 12.1664C17.41 9.69713 19.1302 7.46365 21.1417 5.53537C22.1544 4.5643 23.4723 3.95391 24.8734 3.81518C25.3867 3.75969 25.2341 3.1493 25.2064 2.98283C25.1786 2.83024 25.137 2.76087 25.0121 2.70538C24.8873 2.64989 22.7232 2.77475 22.2654 2.81636C18.8805 3.07994 16.4251 3.84293 15.9534 3.99553Z" fill="#BBBBBB"/>
</g>
<path d="M16.911 23.8922C18.359 23.8922 19.5329 22.7184 19.5329 21.2703C19.5329 19.8223 18.359 18.6484 16.911 18.6484C15.4629 18.6484 14.2891 19.8223 14.2891 21.2703C14.2891 22.7184 15.4629 23.8922 16.911 23.8922Z" fill="#8AD1C0"/>
<path d="M33.3992 23.8922C34.8473 23.8922 36.0212 22.7184 36.0212 21.2703C36.0212 19.8223 34.8473 18.6484 33.3992 18.6484C31.9512 18.6484 30.7773 19.8223 30.7773 21.2703C30.7773 22.7184 31.9512 23.8922 33.3992 23.8922Z" fill="#8AD1C0"/>
<path d="M30.7821 22.1415C30.4769 22.1415 30.1717 22.0582 29.8943 21.9195L27.1892 20.4352C26.884 20.2687 26.5233 20.2548 26.2181 20.4074L24.3314 21.3369C23.8181 21.5866 23.2077 21.5866 22.6945 21.323L21.4043 20.671C21.1546 20.5461 20.8494 20.5184 20.572 20.6155L18.1443 21.4895C17.7697 21.6282 17.3535 21.6282 16.9651 21.5172L13.8716 20.5184C13.7051 20.4629 13.5109 20.449 13.3444 20.4907L9.11328 21.3924L9.21039 20.5739L13.1641 19.7277C13.4692 19.6583 13.8022 19.686 14.0935 19.7693L17.201 20.7542C17.4229 20.8236 17.6587 20.8236 17.8807 20.7404L20.3084 19.8664C20.7801 19.6999 21.3072 19.7277 21.7511 19.9496L23.0413 20.6016C23.3326 20.7542 23.6794 20.7542 23.9707 20.6016L25.8574 19.6722C26.3984 19.4086 27.0227 19.4225 27.5498 19.7138L30.255 21.1981C30.4631 21.3091 30.6989 21.3507 30.9347 21.3091L36.1508 20.4352C36.567 20.3658 36.997 20.4352 37.3577 20.6571L38.2317 21.1565C38.4675 21.2953 38.745 21.323 39.0224 21.2536L41.2281 20.671L41.3252 21.4617L39.2166 22.0166C38.745 22.1415 38.2594 22.0721 37.8432 21.8363L36.9693 21.3369C36.7612 21.212 36.5115 21.1704 36.2756 21.212L31.0596 22.086C30.9764 22.1276 30.8792 22.1415 30.7821 22.1415Z" fill="#47A4DF"/>
<path d="M19.3062 20.2288L17.8773 20.7421C17.6554 20.8253 17.4195 20.8253 17.1976 20.756L14.6312 19.9375C14.4924 20.1595 14.3953 20.4092 14.3398 20.6727L16.9617 21.5051C17.3502 21.6299 17.7664 21.6161 18.1409 21.4773L19.5004 20.9918C19.4865 20.7282 19.4172 20.4785 19.3062 20.2288Z" fill="white"/>
<path fill-rule="evenodd" clip-rule="evenodd" d="M36.0268 21.2708C36.0268 21.0072 35.9852 20.7575 35.9158 20.5078L30.9633 21.3402C30.9079 21.354 30.8524 21.354 30.7969 21.354C30.8107 21.6176 30.8524 21.8812 30.9356 22.1309C30.9911 22.1309 31.0327 22.1309 31.0882 22.117L36.0268 21.2847C36.0268 21.2708 36.0268 21.2708 36.0268 21.2708Z" fill="white"/>
<path d="M28.5861 3.73207C28.5861 3.66271 28.5584 3.60722 28.5029 3.5656L27.3654 2.78874L28.6 0.99919C28.6555 0.915955 28.6416 0.818847 28.5861 0.749485C28.5168 0.680122 28.4197 0.66625 28.3364 0.72174L25.0348 2.74713C24.9793 2.77487 24.9377 2.84423 24.9377 2.9136C24.9377 2.98296 24.9654 3.03845 25.0209 3.08007L26.1584 3.85693L24.9377 5.63261C24.8822 5.71584 24.8961 5.81295 24.9515 5.88231C24.9654 5.89618 24.9654 5.89618 24.9793 5.91006C25.0486 5.95167 25.1319 5.95167 25.1874 5.91006L28.489 3.88467C28.5445 3.85693 28.5861 3.78756 28.5861 3.73207Z" fill="#DDDDDD"/>
<path d="M21.6254 3.88665L24.9271 5.91203C24.9964 5.95365 25.0797 5.95365 25.1352 5.91203C25.149 5.89816 25.1629 5.89816 25.1629 5.88429C25.2323 5.81492 25.2323 5.71782 25.1768 5.63458L23.956 3.8589L25.0935 3.08204C25.149 3.04042 25.1768 2.98493 25.1768 2.91557C25.1768 2.84621 25.1352 2.79072 25.0797 2.7491L21.7919 0.723715C21.7087 0.682097 21.6115 0.682097 21.5422 0.75146C21.4728 0.820822 21.4728 0.91793 21.5283 1.00116L22.7491 2.77685L21.6115 3.55371C21.5561 3.59532 21.5283 3.65081 21.5283 3.72018C21.5422 3.78954 21.5699 3.8589 21.6254 3.88665Z" fill="#BBBBBB"/>
<path fill-rule="evenodd" clip-rule="evenodd" d="M25.2211 2.69141C36.7907 2.69141 46.0159 8.01845 46.1685 19.4494C46.3073 30.6029 36.7907 36.2074 25.2211 36.2074C13.6514 36.2074 4.31519 30.9358 4.27357 19.4494C4.23196 7.79649 13.6514 2.69141 25.2211 2.69141Z" fill="#DDDDDD"/>
<path d="M15.9534 3.99943C9.142 6.1358 4.16177 11.1299 4.20338 19.4395C4.23113 28.3457 9.86337 33.5201 17.7846 35.3929C10.8899 26.1399 13.165 17.7332 16.106 12.1703C17.41 9.70103 19.1302 7.46756 21.1417 5.53928C22.1544 4.56821 23.4723 3.95781 24.8734 3.81909C25.3867 3.7636 25.2341 3.15321 25.2064 2.98674C25.1786 2.83414 25.137 2.76478 25.0121 2.70929C24.8873 2.6538 22.7232 2.77865 22.2654 2.82027C18.8805 3.08385 16.4251 3.84683 15.9534 3.99943Z" fill="#BBBBBB"/>
<path fill-rule="evenodd" clip-rule="evenodd" d="M39.1449 14.9858C39.1449 14.9858 36.9947 12.2251 33.3185 13.5153H33.3046C33.1242 13.5985 28.4353 15.7626 27.8804 16.0539C27.8804 16.0539 26.7013 16.6088 25.2308 16.6782C23.7603 16.6088 22.5811 16.0539 22.5811 16.0539C22.0262 15.7626 17.3373 13.5985 17.157 13.5153H17.1431C13.4669 12.2251 11.3167 14.9858 11.3167 14.9858C8.98608 17.4689 9.01382 23.4202 9.01382 23.4202C8.90284 26.1531 13.2172 26.9022 13.2172 26.9022C17.4206 27.8872 24.4678 27.8456 25.2308 27.8456C25.9938 27.8456 33.041 27.8872 37.2444 26.9022C37.2444 26.9022 41.5587 26.1531 41.4477 23.4202C41.4477 23.4202 41.4616 17.4689 39.1449 14.9858Z" fill="white"/>
<path fill-rule="evenodd" clip-rule="evenodd" d="M3.43863 14.9867C3.43863 14.9867 1.95428 19.953 3.43863 23.8928C3.43863 23.8928 3.93804 24.9333 3.17506 24.6836C3.17506 24.6836 0.788985 23.9206 0.81673 19.4536C0.81673 19.4536 0.539279 15.9716 2.6479 14.737C2.6479 14.7231 3.85481 13.9462 3.43863 14.9867Z" fill="#BBBBBB"/>
<path fill-rule="evenodd" clip-rule="evenodd" d="M47.8302 14.7192C49.9388 15.9538 49.6613 19.4358 49.6613 19.4358C49.6891 23.9028 47.303 24.6658 47.303 24.6658C46.54 24.9293 47.0394 23.875 47.0394 23.875C48.5238 19.9352 47.0394 14.9689 47.0394 14.9689C46.6371 13.9423 47.8302 14.7192 47.8302 14.7192Z" fill="#DDDDDD"/>
<g opacity="0.4">
<path d="M15.9534 3.99943C9.142 6.1358 4.16177 11.1299 4.20338 19.4395C4.23113 28.3457 9.86337 33.5201 17.7846 35.3929C10.8899 26.1399 13.165 17.7332 16.106 12.1703C17.41 9.70103 19.1302 7.46756 21.1417 5.53928C22.1544 4.56821 23.4723 3.95781 24.8734 3.81909C25.3867 3.7636 25.2341 3.15321 25.2064 2.98674C25.1786 2.83414 25.137 2.76478 25.0121 2.70929C24.8873 2.6538 22.7232 2.77865 22.2654 2.82027C18.8805 3.08385 16.4251 3.84683 15.9534 3.99943Z" fill="#BBBBBB"/>
</g>
<path d="M16.911 23.8922C18.359 23.8922 19.5329 22.7184 19.5329 21.2703C19.5329 19.8223 18.359 18.6484 16.911 18.6484C15.4629 18.6484 14.2891 19.8223 14.2891 21.2703C14.2891 22.7184 15.4629 23.8922 16.911 23.8922Z" fill="#8AD1C0"/>
<path d="M33.3992 23.8922C34.8473 23.8922 36.0212 22.7184 36.0212 21.2703C36.0212 19.8223 34.8473 18.6484 33.3992 18.6484C31.9512 18.6484 30.7773 19.8223 30.7773 21.2703C30.7773 22.7184 31.9512 23.8922 33.3992 23.8922Z" fill="#8AD1C0"/>
<path d="M30.7821 22.1415C30.4769 22.1415 30.1717 22.0582 29.8943 21.9195L27.1892 20.4352C26.884 20.2687 26.5233 20.2548 26.2181 20.4074L24.3314 21.3369C23.8181 21.5866 23.2077 21.5866 22.6945 21.323L21.4043 20.671C21.1546 20.5461 20.8494 20.5184 20.572 20.6155L18.1443 21.4895C17.7697 21.6282 17.3535 21.6282 16.9651 21.5172L13.8716 20.5184C13.7051 20.4629 13.5109 20.449 13.3444 20.4907L9.11328 21.3924L9.21039 20.5739L13.1641 19.7277C13.4692 19.6583 13.8022 19.686 14.0935 19.7693L17.201 20.7542C17.4229 20.8236 17.6587 20.8236 17.8807 20.7404L20.3084 19.8664C20.7801 19.6999 21.3072 19.7277 21.7511 19.9496L23.0413 20.6016C23.3326 20.7542 23.6794 20.7542 23.9707 20.6016L25.8574 19.6722C26.3984 19.4086 27.0227 19.4225 27.5498 19.7138L30.255 21.1981C30.4631 21.3091 30.6989 21.3507 30.9347 21.3091L36.1508 20.4352C36.567 20.3658 36.997 20.4352 37.3577 20.6571L38.2317 21.1565C38.4675 21.2953 38.745 21.323 39.0224 21.2536L41.2281 20.671L41.3252 21.4617L39.2166 22.0166C38.745 22.1415 38.2594 22.0721 37.8432 21.8363L36.9693 21.3369C36.7612 21.212 36.5115 21.1704 36.2756 21.212L31.0596 22.086C30.9764 22.1276 30.8792 22.1415 30.7821 22.1415Z" fill="#47A4DF"/>
<path d="M19.3062 20.2288L17.8773 20.7421C17.6554 20.8253 17.4195 20.8253 17.1976 20.756L14.6312 19.9375C14.4924 20.1595 14.3953 20.4092 14.3398 20.6727L16.9617 21.5051C17.3502 21.6299 17.7664 21.6161 18.1409 21.4773L19.5004 20.9918C19.4865 20.7282 19.4172 20.4785 19.3062 20.2288Z" fill="white"/>
<path fill-rule="evenodd" clip-rule="evenodd" d="M36.0268 21.2708C36.0268 21.0072 35.9852 20.7575 35.9158 20.5078L30.9633 21.3402C30.9079 21.354 30.8524 21.354 30.7969 21.354C30.8107 21.6176 30.8524 21.8812 30.9356 22.1309C30.9911 22.1309 31.0327 22.1309 31.0882 22.117L36.0268 21.2847C36.0268 21.2708 36.0268 21.2708 36.0268 21.2708Z" fill="white"/>
<path fill-rule="evenodd" clip-rule="evenodd" d="M39.1728 14.9819C39.1728 14.9819 37.0226 12.2212 33.3464 13.5114H33.3325C33.1521 13.5946 28.4632 15.7587 27.9083 16.05C27.9083 16.05 26.7292 16.6049 25.2587 16.6743C23.7882 16.6049 22.609 16.05 22.609 16.05C22.0541 15.7587 17.3652 13.5946 17.1849 13.5114H17.171C13.4948 12.2212 11.3446 14.9819 11.3446 14.9819C9.01398 17.465 9.04172 23.4163 9.04172 23.4163C8.91687 26.1492 13.2312 26.8983 13.2312 26.8983C17.4346 27.8833 24.4818 27.8417 25.2448 27.8417C26.0078 27.8417 33.055 27.8833 37.2584 26.8983C37.2584 26.8983 41.5728 26.1492 41.4618 23.4163C41.4756 23.4163 41.4895 17.465 39.1728 14.9819Z" fill="#202325"/>
<path d="M30.8095 22.1415C30.5043 22.1415 30.1991 22.0582 29.9216 21.9195L27.2165 20.4213C26.9113 20.2548 26.5506 20.2409 26.2454 20.3935L24.3588 21.323C23.8455 21.5727 23.2351 21.5727 22.7218 21.3091L21.4317 20.6571C21.182 20.5323 20.8768 20.5045 20.5993 20.6016L18.1716 21.4756C17.7971 21.6143 17.3809 21.6143 16.9925 21.5033L13.8989 20.5184C13.7324 20.4629 13.5382 20.449 13.3717 20.4907L9.14062 21.3924L9.23773 20.5739L13.1914 19.7277C13.4966 19.6583 13.8295 19.686 14.1209 19.7693L17.2283 20.7542C17.4503 20.8236 17.6861 20.8236 17.908 20.7404L20.3357 19.8664C20.8074 19.6999 21.3346 19.7277 21.7785 19.9496L23.0686 20.6016C23.3599 20.7542 23.7068 20.7542 23.9981 20.6016L25.8847 19.6722C26.4258 19.4086 27.05 19.4225 27.5772 19.7138L30.2823 21.1981C30.4904 21.3091 30.7262 21.3507 30.9621 21.3091L36.1781 20.4352C36.5943 20.3658 37.0244 20.4352 37.385 20.6571L38.259 21.1565C38.4948 21.2953 38.7723 21.323 39.0497 21.2536L41.2555 20.671L41.3526 21.4617L39.244 22.0166C38.7723 22.1415 38.2868 22.0721 37.8706 21.8363L36.9966 21.3369C36.7885 21.212 36.5388 21.1704 36.303 21.212L31.0869 22.086C31.0037 22.1276 30.9066 22.1415 30.8095 22.1415Z" fill="#7289DA"/>
<path d="M16.9383 23.8844C18.3863 23.8844 19.5602 22.7106 19.5602 21.2625C19.5602 19.8145 18.3863 18.6406 16.9383 18.6406C15.4903 18.6406 14.3164 19.8145 14.3164 21.2625C14.3164 22.7106 15.4903 23.8844 16.9383 23.8844Z" fill="#8AD1C0"/>
<path d="M33.4266 23.8844C34.8746 23.8844 36.0485 22.7106 36.0485 21.2625C36.0485 19.8145 34.8746 18.6406 33.4266 18.6406C31.9786 18.6406 30.8047 19.8145 30.8047 21.2625C30.8047 22.7106 31.9786 23.8844 33.4266 23.8844Z" fill="#8AD1C0"/>
<path d="M19.3335 20.2366L17.9047 20.7499C17.6827 20.8332 17.4469 20.8332 17.2249 20.7638L14.6585 19.9453C14.5198 20.1673 14.4227 20.417 14.3672 20.6806L16.9891 21.5129C17.3775 21.6378 17.7937 21.6239 18.1683 21.4852L19.5278 20.9996C19.5 20.7222 19.4445 20.4725 19.3335 20.2366Z" fill="white"/>
<path fill-rule="evenodd" clip-rule="evenodd" d="M36.0346 21.2669C36.0346 21.0033 35.993 20.7536 35.9236 20.5039L30.9712 21.3363C30.9157 21.3501 30.8602 21.3501 30.8047 21.3501C30.8186 21.6137 30.8602 21.8773 30.9434 22.127C30.9989 22.127 31.0405 22.127 31.096 22.1131L36.0346 21.2808V21.2669Z" fill="white"/>
</g>
</g>
</g>
<defs>
<clipPath id="clip0_290_8642">
<rect x="0.855469" y="0.679688" width="51.0508" height="35.5136" rx="17.7568" fill="white"/>
</clipPath>
<clipPath id="clip1_290_8642">
<rect width="51.0508" height="35.5136" fill="white" transform="translate(0.855469 0.679688)"/>
</clipPath>
<clipPath id="clip2_290_8642">
<rect width="48.8728" height="35.5136" fill="white" transform="translate(0.855469 0.679688)"/>
</clipPath>
</defs>
</svg>
