<svg width="52" height="37" viewBox="0 0 52 37" fill="none" xmlns="http://www.w3.org/2000/svg">
<g clip-path="url(#clip0_290_12113)">
<g clip-path="url(#clip1_290_12113)">
<g clip-path="url(#clip2_290_12113)">
<path d="M28.3713 3.60317C28.3713 3.5338 28.3435 3.47831 28.2881 3.4367L27.1505 2.65984L28.3852 0.870284C28.4407 0.787049 28.4268 0.689941 28.3713 0.620579C28.3019 0.551216 28.2048 0.537344 28.1216 0.592834L24.8199 2.61822C24.7644 2.64596 24.7228 2.71533 24.7228 2.78469C24.7228 2.85405 24.7506 2.90954 24.8061 2.95116L25.9436 3.72802L24.7228 5.5037C24.6673 5.58694 24.6812 5.68404 24.7367 5.75341C24.7506 5.76728 24.7506 5.76728 24.7644 5.78115C24.8338 5.82277 24.917 5.82277 24.9725 5.78115L28.2742 3.75576C28.3297 3.72802 28.3713 3.65866 28.3713 3.60317Z" fill="#DDDDDD"/>
<path d="M21.4067 3.75383L24.7083 5.77922C24.7777 5.82084 24.8609 5.82084 24.9164 5.77922C24.9303 5.76535 24.9442 5.76535 24.9442 5.75147C25.0135 5.68211 25.0135 5.585 24.958 5.50177L23.7372 3.72609L24.8748 2.94923C24.9303 2.90761 24.958 2.85212 24.958 2.78276C24.958 2.7134 24.9164 2.65791 24.8609 2.61629L21.5731 0.590902C21.4899 0.549285 21.3928 0.549285 21.3234 0.618647C21.2541 0.68801 21.2541 0.785117 21.3096 0.868352L22.5303 2.64403L21.3928 3.42089C21.3373 3.46251 21.3096 3.518 21.3096 3.58736C21.3234 3.65673 21.3512 3.72609 21.4067 3.75383Z" fill="#BBBBBB"/>
<path fill-rule="evenodd" clip-rule="evenodd" d="M24.9984 2.5625C36.5681 2.5625 45.7933 7.88954 45.9459 19.3205C46.0846 30.474 36.5681 36.0785 24.9984 36.0785C13.4287 36.0785 4.09254 30.8069 4.05092 19.3205C4.0093 7.66758 13.4287 2.5625 24.9984 2.5625Z" fill="#DDDDDD"/>
<path d="M15.7346 3.86662C8.92325 6.00299 3.94302 10.9971 3.98463 19.3067C4.01238 28.2129 9.64462 33.3873 17.5658 35.2601C10.6712 26.0071 12.9463 17.6004 15.8872 12.0375C17.1913 9.56822 18.9114 7.33475 20.923 5.40647C21.9357 4.43539 23.2535 3.825 24.6547 3.68628C25.1679 3.63079 25.0154 3.0204 24.9876 2.85393C24.9599 2.70133 24.9182 2.63197 24.7934 2.57648C24.6685 2.52099 22.5044 2.64584 22.0466 2.68746C18.6617 2.95103 16.2063 3.71402 15.7346 3.86662Z" fill="#BBBBBB"/>
<path fill-rule="evenodd" clip-rule="evenodd" d="M38.9262 14.853C38.9262 14.853 36.7759 12.0923 33.0997 13.3825H33.0858C32.9055 13.4657 28.2166 15.6298 27.6617 15.9211C27.6617 15.9211 26.4825 16.476 25.012 16.5454C23.5415 16.476 22.3624 15.9211 22.3624 15.9211C21.8075 15.6298 17.1186 13.4657 16.9382 13.3825H16.9244C13.2481 12.0923 11.0979 14.853 11.0979 14.853C8.76733 17.3361 8.79507 23.2874 8.79507 23.2874C8.68409 26.0203 12.9984 26.7694 12.9984 26.7694C17.2018 27.7544 24.249 27.7128 25.012 27.7128C25.775 27.7128 32.8223 27.7544 37.0256 26.7694C37.0256 26.7694 41.34 26.0203 41.229 23.2874C41.229 23.2874 41.2429 17.3361 38.9262 14.853Z" fill="white"/>
<path fill-rule="evenodd" clip-rule="evenodd" d="M3.21988 14.8539C3.21988 14.8539 1.73553 19.8202 3.21988 23.76C3.21988 23.76 3.71929 24.8004 2.95631 24.5507C2.95631 24.5507 0.570235 23.7878 0.59798 19.3208C0.59798 19.3208 0.320529 15.8388 2.42915 14.6042C2.42915 14.5903 3.63606 13.8134 3.21988 14.8539Z" fill="#BBBBBB"/>
<path fill-rule="evenodd" clip-rule="evenodd" d="M47.6114 14.5903C49.72 15.8249 49.4426 19.3069 49.4426 19.3069C49.4703 23.7739 47.0842 24.5369 47.0842 24.5369C46.3213 24.8004 46.8207 23.7461 46.8207 23.7461C48.305 19.8063 46.8207 14.84 46.8207 14.84C46.4184 13.8134 47.6114 14.5903 47.6114 14.5903Z" fill="#DDDDDD"/>
<g opacity="0.4">
<path d="M15.7346 3.86662C8.92325 6.00299 3.94302 10.9971 3.98463 19.3067C4.01238 28.2129 9.64462 33.3873 17.5658 35.2601C10.6712 26.0071 12.9463 17.6004 15.8872 12.0375C17.1913 9.56822 18.9114 7.33475 20.923 5.40647C21.9357 4.43539 23.2535 3.825 24.6547 3.68628C25.1679 3.63079 25.0154 3.0204 24.9876 2.85393C24.9599 2.70133 24.9182 2.63197 24.7934 2.57648C24.6685 2.52099 22.5044 2.64584 22.0466 2.68746C18.6617 2.95103 16.2063 3.71402 15.7346 3.86662Z" fill="#BBBBBB"/>
</g>
<path d="M16.6883 23.7594C18.1363 23.7594 19.3102 22.5856 19.3102 21.1375C19.3102 19.6895 18.1363 18.5156 16.6883 18.5156C15.2403 18.5156 14.0664 19.6895 14.0664 21.1375C14.0664 22.5856 15.2403 23.7594 16.6883 23.7594Z" fill="#8AD1C0"/>
<path d="M33.1844 23.7594C34.6324 23.7594 35.8063 22.5856 35.8063 21.1375C35.8063 19.6895 34.6324 18.5156 33.1844 18.5156C31.7364 18.5156 30.5625 19.6895 30.5625 21.1375C30.5625 22.5856 31.7364 23.7594 33.1844 23.7594Z" fill="#8AD1C0"/>
<path d="M30.5634 22.0087C30.2582 22.0087 29.953 21.9254 29.6755 21.7867L26.9704 20.3023C26.6652 20.1359 26.3045 20.122 25.9993 20.2746L24.1127 21.2041C23.5994 21.4538 22.989 21.4538 22.4757 21.1902L21.1856 20.5382C20.9359 20.4133 20.6307 20.3856 20.3532 20.4827L17.9255 21.3567C17.551 21.4954 17.1348 21.4954 16.7464 21.3844L13.6528 20.3856C13.4863 20.3301 13.2921 20.3162 13.1256 20.3578L8.89453 21.2596L8.99164 20.4411L12.9453 19.5949C13.2505 19.5255 13.5834 19.5532 13.8748 19.6365L16.9822 20.6214C17.2042 20.6908 17.44 20.6908 17.662 20.6075L20.0896 19.7336C20.5613 19.5671 21.0885 19.5949 21.5324 19.8168L22.8225 20.4688C23.1138 20.6214 23.4607 20.6214 23.752 20.4688L25.6386 19.5394C26.1797 19.2758 26.8039 19.2897 27.3311 19.581L30.0362 21.0653C30.2443 21.1763 30.4802 21.2179 30.716 21.1763L35.932 20.3023C36.3482 20.233 36.7783 20.3023 37.139 20.5243L38.0129 21.0237C38.2488 21.1624 38.5262 21.1902 38.8037 21.1208L41.0094 20.5382L41.1065 21.3289L38.9979 21.8838C38.5262 22.0087 38.0407 21.9393 37.6245 21.7035L36.7505 21.2041C36.5424 21.0792 36.2927 21.0376 36.0569 21.0792L30.8408 21.9532C30.7576 21.9948 30.6605 22.0087 30.5634 22.0087Z" fill="#47A4DF"/>
<path d="M19.0914 20.0999L17.6625 20.6132C17.4405 20.6964 17.2047 20.6964 16.9827 20.6271L14.4163 19.8086C14.2776 20.0306 14.1805 20.2803 14.125 20.5438L16.7469 21.3762C17.1353 21.501 17.5515 21.4872 17.9261 21.3484L19.2856 20.8629C19.2717 20.5993 19.2023 20.3496 19.0914 20.0999Z" fill="white"/>
<path fill-rule="evenodd" clip-rule="evenodd" d="M35.8081 21.138C35.8081 20.8744 35.7664 20.6247 35.6971 20.375L30.7446 21.2074C30.6891 21.2212 30.6336 21.2212 30.5781 21.2212C30.592 21.4848 30.6336 21.7484 30.7169 21.9981C30.7723 21.9981 30.814 21.9981 30.8694 21.9842L35.8081 21.1519C35.8081 21.138 35.8081 21.138 35.8081 21.138Z" fill="white"/>
<path d="M28.3713 3.60317C28.3713 3.5338 28.3435 3.47831 28.2881 3.4367L27.1505 2.65984L28.3852 0.870284C28.4407 0.787049 28.4268 0.689941 28.3713 0.620579C28.3019 0.551216 28.2048 0.537344 28.1216 0.592834L24.8199 2.61822C24.7644 2.64596 24.7228 2.71533 24.7228 2.78469C24.7228 2.85405 24.7506 2.90954 24.8061 2.95116L25.9436 3.72802L24.7228 5.5037C24.6673 5.58694 24.6812 5.68404 24.7367 5.75341C24.7506 5.76728 24.7506 5.76728 24.7644 5.78115C24.8338 5.82277 24.917 5.82277 24.9725 5.78115L28.2742 3.75576C28.3297 3.72802 28.3713 3.65866 28.3713 3.60317Z" fill="#DDDDDD"/>
<path d="M21.4067 3.75383L24.7083 5.77922C24.7777 5.82084 24.8609 5.82084 24.9164 5.77922C24.9303 5.76535 24.9442 5.76535 24.9442 5.75147C25.0135 5.68211 25.0135 5.585 24.958 5.50177L23.7372 3.72609L24.8748 2.94923C24.9303 2.90761 24.958 2.85212 24.958 2.78276C24.958 2.7134 24.9164 2.65791 24.8609 2.61629L21.5731 0.590902C21.4899 0.549285 21.3928 0.549285 21.3234 0.618647C21.2541 0.68801 21.2541 0.785117 21.3096 0.868352L22.5303 2.64403L21.3928 3.42089C21.3373 3.46251 21.3096 3.518 21.3096 3.58736C21.3234 3.65673 21.3512 3.72609 21.4067 3.75383Z" fill="#BBBBBB"/>
<path fill-rule="evenodd" clip-rule="evenodd" d="M24.9984 2.5625C36.5681 2.5625 45.7933 7.88954 45.9459 19.3205C46.0846 30.474 36.5681 36.0785 24.9984 36.0785C13.4287 36.0785 4.09254 30.8069 4.05092 19.3205C4.0093 7.66758 13.4287 2.5625 24.9984 2.5625Z" fill="#DDDDDD"/>
<path d="M15.7346 3.86662C8.92325 6.00299 3.94302 10.9971 3.98463 19.3067C4.01238 28.2129 9.64462 33.3873 17.5658 35.2601C10.6712 26.0071 12.9463 17.6004 15.8872 12.0375C17.1913 9.56822 18.9114 7.33475 20.923 5.40647C21.9357 4.43539 23.2535 3.825 24.6547 3.68628C25.1679 3.63079 25.0154 3.0204 24.9876 2.85393C24.9599 2.70133 24.9182 2.63197 24.7934 2.57648C24.6685 2.52099 22.5044 2.64584 22.0466 2.68746C18.6617 2.95103 16.2063 3.71402 15.7346 3.86662Z" fill="#BBBBBB"/>
<path fill-rule="evenodd" clip-rule="evenodd" d="M38.9262 14.853C38.9262 14.853 36.7759 12.0923 33.0997 13.3825H33.0858C32.9055 13.4657 28.2166 15.6298 27.6617 15.9211C27.6617 15.9211 26.4825 16.476 25.012 16.5454C23.5415 16.476 22.3624 15.9211 22.3624 15.9211C21.8075 15.6298 17.1186 13.4657 16.9382 13.3825H16.9244C13.2481 12.0923 11.0979 14.853 11.0979 14.853C8.76733 17.3361 8.79507 23.2874 8.79507 23.2874C8.68409 26.0203 12.9984 26.7694 12.9984 26.7694C17.2018 27.7544 24.249 27.7128 25.012 27.7128C25.775 27.7128 32.8223 27.7544 37.0256 26.7694C37.0256 26.7694 41.34 26.0203 41.229 23.2874C41.229 23.2874 41.2429 17.3361 38.9262 14.853Z" fill="white"/>
<path fill-rule="evenodd" clip-rule="evenodd" d="M3.21988 14.8539C3.21988 14.8539 1.73553 19.8202 3.21988 23.76C3.21988 23.76 3.71929 24.8004 2.95631 24.5507C2.95631 24.5507 0.570235 23.7878 0.59798 19.3208C0.59798 19.3208 0.320529 15.8388 2.42915 14.6042C2.42915 14.5903 3.63606 13.8134 3.21988 14.8539Z" fill="#BBBBBB"/>
<path fill-rule="evenodd" clip-rule="evenodd" d="M47.6114 14.5903C49.72 15.8249 49.4426 19.3069 49.4426 19.3069C49.4703 23.7739 47.0842 24.5369 47.0842 24.5369C46.3213 24.8004 46.8207 23.7461 46.8207 23.7461C48.305 19.8063 46.8207 14.84 46.8207 14.84C46.4184 13.8134 47.6114 14.5903 47.6114 14.5903Z" fill="#DDDDDD"/>
<g opacity="0.4">
<path d="M15.7346 3.86662C8.92325 6.00299 3.94302 10.9971 3.98463 19.3067C4.01238 28.2129 9.64462 33.3873 17.5658 35.2601C10.6712 26.0071 12.9463 17.6004 15.8872 12.0375C17.1913 9.56822 18.9114 7.33475 20.923 5.40647C21.9357 4.43539 23.2535 3.825 24.6547 3.68628C25.1679 3.63079 25.0154 3.0204 24.9876 2.85393C24.9599 2.70133 24.9182 2.63197 24.7934 2.57648C24.6685 2.52099 22.5044 2.64584 22.0466 2.68746C18.6617 2.95103 16.2063 3.71402 15.7346 3.86662Z" fill="#BBBBBB"/>
</g>
<path d="M16.6883 23.7594C18.1363 23.7594 19.3102 22.5856 19.3102 21.1375C19.3102 19.6895 18.1363 18.5156 16.6883 18.5156C15.2403 18.5156 14.0664 19.6895 14.0664 21.1375C14.0664 22.5856 15.2403 23.7594 16.6883 23.7594Z" fill="#8AD1C0"/>
<path d="M33.1844 23.7594C34.6324 23.7594 35.8063 22.5856 35.8063 21.1375C35.8063 19.6895 34.6324 18.5156 33.1844 18.5156C31.7364 18.5156 30.5625 19.6895 30.5625 21.1375C30.5625 22.5856 31.7364 23.7594 33.1844 23.7594Z" fill="#8AD1C0"/>
<path d="M30.5634 22.0087C30.2582 22.0087 29.953 21.9254 29.6755 21.7867L26.9704 20.3023C26.6652 20.1359 26.3045 20.122 25.9993 20.2746L24.1127 21.2041C23.5994 21.4538 22.989 21.4538 22.4757 21.1902L21.1856 20.5382C20.9359 20.4133 20.6307 20.3856 20.3532 20.4827L17.9255 21.3567C17.551 21.4954 17.1348 21.4954 16.7464 21.3844L13.6528 20.3856C13.4863 20.3301 13.2921 20.3162 13.1256 20.3578L8.89453 21.2596L8.99164 20.4411L12.9453 19.5949C13.2505 19.5255 13.5834 19.5532 13.8748 19.6365L16.9822 20.6214C17.2042 20.6908 17.44 20.6908 17.662 20.6075L20.0896 19.7336C20.5613 19.5671 21.0885 19.5949 21.5324 19.8168L22.8225 20.4688C23.1138 20.6214 23.4607 20.6214 23.752 20.4688L25.6386 19.5394C26.1797 19.2758 26.8039 19.2897 27.3311 19.581L30.0362 21.0653C30.2443 21.1763 30.4802 21.2179 30.716 21.1763L35.932 20.3023C36.3482 20.233 36.7783 20.3023 37.139 20.5243L38.0129 21.0237C38.2488 21.1624 38.5262 21.1902 38.8037 21.1208L41.0094 20.5382L41.1065 21.3289L38.9979 21.8838C38.5262 22.0087 38.0407 21.9393 37.6245 21.7035L36.7505 21.2041C36.5424 21.0792 36.2927 21.0376 36.0569 21.0792L30.8408 21.9532C30.7576 21.9948 30.6605 22.0087 30.5634 22.0087Z" fill="#47A4DF"/>
<path d="M19.0914 20.0999L17.6625 20.6132C17.4405 20.6964 17.2047 20.6964 16.9827 20.6271L14.4163 19.8086C14.2776 20.0306 14.1805 20.2803 14.125 20.5438L16.7469 21.3762C17.1353 21.501 17.5515 21.4872 17.9261 21.3484L19.2856 20.8629C19.2717 20.5993 19.2023 20.3496 19.0914 20.0999Z" fill="white"/>
<path fill-rule="evenodd" clip-rule="evenodd" d="M35.8081 21.138C35.8081 20.8744 35.7664 20.6247 35.6971 20.375L30.7446 21.2074C30.6891 21.2212 30.6336 21.2212 30.5781 21.2212C30.592 21.4848 30.6336 21.7484 30.7169 21.9981C30.7723 21.9981 30.814 21.9981 30.8694 21.9842L35.8081 21.1519C35.8081 21.138 35.8081 21.138 35.8081 21.138Z" fill="white"/>
<path fill-rule="evenodd" clip-rule="evenodd" d="M38.9541 14.853C38.9541 14.853 36.8038 12.0923 33.1276 13.3825H33.1137C32.9334 13.4657 28.2445 15.6298 27.6896 15.9211C27.6896 15.9211 26.5104 16.476 25.0399 16.5454C23.5694 16.476 22.3903 15.9211 22.3903 15.9211C21.8354 15.6298 17.1465 13.4657 16.9661 13.3825H16.9523C13.276 12.0923 11.1258 14.853 11.1258 14.853C8.79523 17.3361 8.82297 23.2874 8.82297 23.2874C8.69812 26.0203 13.0125 26.7694 13.0125 26.7694C17.2158 27.7544 24.2631 27.7128 25.0261 27.7128C25.789 27.7128 32.8363 27.7544 37.0396 26.7694C37.0396 26.7694 41.354 26.0203 41.243 23.2874C41.2569 23.2874 41.2708 17.3361 38.9541 14.853Z" fill="#202325"/>
<path d="M30.5868 22.0126C30.2816 22.0126 29.9764 21.9293 29.699 21.7906L26.9938 20.2924C26.6886 20.1259 26.328 20.112 26.0228 20.2646L24.1361 21.1941C23.6228 21.4438 23.0124 21.4438 22.4992 21.1802L21.209 20.5282C20.9593 20.4034 20.6541 20.3756 20.3767 20.4727L17.949 21.3467C17.5744 21.4854 17.1582 21.4854 16.7698 21.3744L13.6762 20.3895C13.5098 20.334 13.3156 20.3201 13.1491 20.3617L8.91797 21.2635L9.01508 20.445L12.9687 19.5988C13.2739 19.5294 13.6069 19.5571 13.8982 19.6404L17.0056 20.6253C17.2276 20.6947 17.4634 20.6947 17.6854 20.6115L20.1131 19.7375C20.5847 19.571 21.1119 19.5988 21.5558 19.8207L22.846 20.4727C23.1373 20.6253 23.4841 20.6253 23.7754 20.4727L25.6621 19.5433C26.2031 19.2797 26.8274 19.2936 27.3545 19.5849L30.0597 21.0692C30.2678 21.1802 30.5036 21.2218 30.7394 21.1802L35.9555 20.3063C36.3717 20.2369 36.8017 20.3063 37.1624 20.5282L38.0364 21.0276C38.2722 21.1664 38.5496 21.1941 38.8271 21.1247L41.0328 20.5421L41.1299 21.3328L39.0213 21.8877C38.5496 22.0126 38.0641 21.9432 37.6479 21.7074L36.774 21.208C36.5659 21.0831 36.3162 21.0415 36.0803 21.0831L30.8643 21.9571C30.781 21.9987 30.6839 22.0126 30.5868 22.0126Z" fill="#7289DA"/>
<path d="M16.7157 23.7594C18.1637 23.7594 19.3376 22.5856 19.3376 21.1375C19.3376 19.6895 18.1637 18.5156 16.7157 18.5156C15.2676 18.5156 14.0938 19.6895 14.0938 21.1375C14.0938 22.5856 15.2676 23.7594 16.7157 23.7594Z" fill="#8AD1C0"/>
<path d="M33.2117 23.7594C34.6598 23.7594 35.8337 22.5856 35.8337 21.1375C35.8337 19.6895 34.6598 18.5156 33.2117 18.5156C31.7637 18.5156 30.5898 19.6895 30.5898 21.1375C30.5898 22.5856 31.7637 23.7594 33.2117 23.7594Z" fill="#8AD1C0"/>
<path d="M19.1148 20.1116L17.6859 20.6249C17.464 20.7082 17.2281 20.7082 17.0062 20.6388L14.4398 19.8203C14.301 20.0423 14.2039 20.292 14.1484 20.5556L16.7703 21.3879C17.1588 21.5128 17.5749 21.4989 17.9495 21.3602L19.309 20.8746C19.2813 20.5972 19.2258 20.3475 19.1148 20.1116Z" fill="white"/>
<path fill-rule="evenodd" clip-rule="evenodd" d="M35.8198 21.138C35.8198 20.8744 35.7782 20.6247 35.7088 20.375L30.7563 21.2074C30.7008 21.2212 30.6453 21.2212 30.5898 21.2212C30.6037 21.4848 30.6453 21.7484 30.7286 21.9981C30.7841 21.9981 30.8257 21.9981 30.8812 21.9842L35.8198 21.1519V21.138Z" fill="white"/>
</g>
</g>
</g>
<defs>
<clipPath id="clip0_290_12113">
<rect x="0.640625" y="0.550781" width="51.0508" height="35.5136" rx="17.7568" fill="white"/>
</clipPath>
<clipPath id="clip1_290_12113">
<rect width="51.0508" height="35.5136" fill="white" transform="translate(0.640625 0.550781)"/>
</clipPath>
<clipPath id="clip2_290_12113">
<rect width="48.8728" height="35.5136" fill="white" transform="translate(0.640625 0.550781)"/>
</clipPath>
</defs>
</svg>
