<svg width="52" height="37" viewBox="0 0 52 37" fill="none" xmlns="http://www.w3.org/2000/svg">
<g clip-path="url(#clip0_290_8170)">
<g clip-path="url(#clip1_290_8170)">
<g clip-path="url(#clip2_290_8170)">
<path d="M27.9807 3.60317C27.9807 3.5338 27.9529 3.47831 27.8974 3.4367L26.7599 2.65984L27.9945 0.870284C28.05 0.787049 28.0362 0.689941 27.9807 0.620579C27.9113 0.551216 27.8142 0.537344 27.731 0.592834L24.4293 2.61822C24.3738 2.64596 24.3322 2.71533 24.3322 2.78469C24.3322 2.85405 24.3599 2.90954 24.4154 2.95116L25.553 3.72802L24.3322 5.5037C24.2767 5.58694 24.2906 5.68404 24.3461 5.75341C24.3599 5.76728 24.3599 5.76728 24.3738 5.78115C24.4432 5.82277 24.5264 5.82277 24.5819 5.78115L27.8836 3.75576C27.9391 3.72802 27.9807 3.65866 27.9807 3.60317Z" fill="#DDDDDD"/>
<path d="M21.0199 3.75383L24.3216 5.77922C24.391 5.82084 24.4742 5.82084 24.5297 5.77922C24.5436 5.76535 24.5574 5.76535 24.5574 5.75147C24.6268 5.68211 24.6268 5.585 24.5713 5.50177L23.3505 3.72609L24.4881 2.94923C24.5436 2.90761 24.5713 2.85212 24.5713 2.78276C24.5713 2.7134 24.5297 2.65791 24.4742 2.61629L21.1864 0.590902C21.1032 0.549285 21.0061 0.549285 20.9367 0.618647C20.8674 0.68801 20.8674 0.785117 20.9228 0.868352L22.1436 2.64403L21.0061 3.42089C20.9506 3.46251 20.9228 3.518 20.9228 3.58736C20.9367 3.65673 20.9645 3.72609 21.0199 3.75383Z" fill="#BBBBBB"/>
<path fill-rule="evenodd" clip-rule="evenodd" d="M24.6156 2.5625C36.1853 2.5625 45.4105 7.88954 45.5631 19.3205C45.7018 30.474 36.1853 36.0785 24.6156 36.0785C13.0459 36.0785 3.70972 30.8069 3.66811 19.3205C3.62649 7.66758 13.0459 2.5625 24.6156 2.5625Z" fill="#DDDDDD"/>
<path d="M15.3518 3.86662C8.54043 6.00299 3.5602 10.9971 3.60182 19.3067C3.62957 28.2129 9.2618 33.3873 17.183 35.2601C10.2884 26.0071 12.5635 17.6004 15.5044 12.0375C16.8084 9.56822 18.5286 7.33475 20.5401 5.40647C21.5528 4.43539 22.8707 3.825 24.2719 3.68628C24.7851 3.63079 24.6325 3.0204 24.6048 2.85393C24.577 2.70133 24.5354 2.63197 24.4106 2.57648C24.2857 2.52099 22.1216 2.64584 21.6638 2.68746C18.2789 2.95103 15.8235 3.71402 15.3518 3.86662Z" fill="#BBBBBB"/>
<path fill-rule="evenodd" clip-rule="evenodd" d="M38.5394 14.853C38.5394 14.853 36.3892 12.0923 32.713 13.3825H32.6991C32.5188 13.4657 27.8299 15.6298 27.275 15.9211C27.275 15.9211 26.0958 16.476 24.6253 16.5454C23.1548 16.476 21.9757 15.9211 21.9757 15.9211C21.4208 15.6298 16.7319 13.4657 16.5515 13.3825H16.5376C12.8614 12.0923 10.7112 14.853 10.7112 14.853C8.38061 17.3361 8.40835 23.2874 8.40835 23.2874C8.29737 26.0203 12.6117 26.7694 12.6117 26.7694C16.8151 27.7544 23.8623 27.7128 24.6253 27.7128C25.3883 27.7128 32.4355 27.7544 36.6389 26.7694C36.6389 26.7694 40.9533 26.0203 40.8423 23.2874C40.8423 23.2874 40.8561 17.3361 38.5394 14.853Z" fill="white"/>
<path fill-rule="evenodd" clip-rule="evenodd" d="M2.83316 14.8539C2.83316 14.8539 1.34881 19.8202 2.83316 23.76C2.83316 23.76 3.33257 24.8004 2.56959 24.5507C2.56959 24.5507 0.183516 23.7878 0.211261 19.3208C0.211261 19.3208 -0.0661893 15.8388 2.04243 14.6042C2.04243 14.5903 3.24934 13.8134 2.83316 14.8539Z" fill="#BBBBBB"/>
<path fill-rule="evenodd" clip-rule="evenodd" d="M47.2247 14.5903C49.3333 15.8249 49.0559 19.3069 49.0559 19.3069C49.0836 23.7739 46.6975 24.5369 46.6975 24.5369C45.9345 24.8004 46.434 23.7461 46.434 23.7461C47.9183 19.8063 46.434 14.84 46.434 14.84C46.0317 13.8134 47.2247 14.5903 47.2247 14.5903Z" fill="#DDDDDD"/>
<g opacity="0.4">
<path d="M15.3518 3.86662C8.54043 6.00299 3.5602 10.9971 3.60182 19.3067C3.62957 28.2129 9.2618 33.3873 17.183 35.2601C10.2884 26.0071 12.5635 17.6004 15.5044 12.0375C16.8084 9.56822 18.5286 7.33475 20.5401 5.40647C21.5528 4.43539 22.8707 3.825 24.2719 3.68628C24.7851 3.63079 24.6325 3.0204 24.6048 2.85393C24.577 2.70133 24.5354 2.63197 24.4106 2.57648C24.2857 2.52099 22.1216 2.64584 21.6638 2.68746C18.2789 2.95103 15.8235 3.71402 15.3518 3.86662Z" fill="#BBBBBB"/>
</g>
<path d="M16.3016 23.7594C17.7496 23.7594 18.9235 22.5856 18.9235 21.1375C18.9235 19.6895 17.7496 18.5156 16.3016 18.5156C14.8536 18.5156 13.6797 19.6895 13.6797 21.1375C13.6797 22.5856 14.8536 23.7594 16.3016 23.7594Z" fill="#8AD1C0"/>
<path d="M32.7938 23.7594C34.2418 23.7594 35.4157 22.5856 35.4157 21.1375C35.4157 19.6895 34.2418 18.5156 32.7938 18.5156C31.3457 18.5156 30.1719 19.6895 30.1719 21.1375C30.1719 22.5856 31.3457 23.7594 32.7938 23.7594Z" fill="#8AD1C0"/>
<path d="M30.1728 22.0087C29.8676 22.0087 29.5624 21.9254 29.2849 21.7867L26.5798 20.3023C26.2746 20.1359 25.9139 20.122 25.6087 20.2746L23.722 21.2041C23.2088 21.4538 22.5984 21.4538 22.0851 21.1902L20.7949 20.5382C20.5452 20.4133 20.24 20.3856 19.9626 20.4827L17.5349 21.3567C17.1603 21.4954 16.7442 21.4954 16.3557 21.3844L13.2622 20.3856C13.0957 20.3301 12.9015 20.3162 12.735 20.3578L8.50391 21.2596L8.60101 20.4411L12.5547 19.5949C12.8599 19.5255 13.1928 19.5532 13.4841 19.6365L16.5916 20.6214C16.8135 20.6908 17.0494 20.6908 17.2713 20.6075L19.699 19.7336C20.1707 19.5671 20.6978 19.5949 21.1418 19.8168L22.4319 20.4688C22.7232 20.6214 23.07 20.6214 23.3614 20.4688L25.248 19.5394C25.789 19.2758 26.4133 19.2897 26.9405 19.581L29.6456 21.0653C29.8537 21.1763 30.0895 21.2179 30.3254 21.1763L35.5414 20.3023C35.9576 20.233 36.3876 20.3023 36.7483 20.5243L37.6223 21.0237C37.8581 21.1624 38.1356 21.1902 38.413 21.1208L40.6188 20.5382L40.7159 21.3289L38.6072 21.8838C38.1356 22.0087 37.65 21.9393 37.2339 21.7035L36.3599 21.2041C36.1518 21.0792 35.9021 21.0376 35.6663 21.0792L30.4502 21.9532C30.367 21.9948 30.2699 22.0087 30.1728 22.0087Z" fill="#47A4DF"/>
<path d="M18.7007 20.0999L17.2719 20.6132C17.0499 20.6964 16.8141 20.6964 16.5921 20.6271L14.0257 19.8086C13.887 20.0306 13.7899 20.2803 13.7344 20.5438L16.3563 21.3762C16.7447 21.501 17.1609 21.4872 17.5354 21.3484L18.8949 20.8629C18.8811 20.5993 18.8117 20.3496 18.7007 20.0999Z" fill="white"/>
<path fill-rule="evenodd" clip-rule="evenodd" d="M35.4213 21.138C35.4213 20.8744 35.3797 20.6247 35.3104 20.375L30.3579 21.2074C30.3024 21.2212 30.2469 21.2212 30.1914 21.2212C30.2053 21.4848 30.2469 21.7484 30.3301 21.9981C30.3856 21.9981 30.4272 21.9981 30.4827 21.9842L35.4213 21.1519C35.4213 21.138 35.4213 21.138 35.4213 21.138Z" fill="white"/>
<path d="M27.9807 3.60317C27.9807 3.5338 27.9529 3.47831 27.8974 3.4367L26.7599 2.65984L27.9945 0.870284C28.05 0.787049 28.0362 0.689941 27.9807 0.620579C27.9113 0.551216 27.8142 0.537344 27.731 0.592834L24.4293 2.61822C24.3738 2.64596 24.3322 2.71533 24.3322 2.78469C24.3322 2.85405 24.3599 2.90954 24.4154 2.95116L25.553 3.72802L24.3322 5.5037C24.2767 5.58694 24.2906 5.68404 24.3461 5.75341C24.3599 5.76728 24.3599 5.76728 24.3738 5.78115C24.4432 5.82277 24.5264 5.82277 24.5819 5.78115L27.8836 3.75576C27.9391 3.72802 27.9807 3.65866 27.9807 3.60317Z" fill="#DDDDDD"/>
<path d="M21.0199 3.75383L24.3216 5.77922C24.391 5.82084 24.4742 5.82084 24.5297 5.77922C24.5436 5.76535 24.5574 5.76535 24.5574 5.75147C24.6268 5.68211 24.6268 5.585 24.5713 5.50177L23.3505 3.72609L24.4881 2.94923C24.5436 2.90761 24.5713 2.85212 24.5713 2.78276C24.5713 2.7134 24.5297 2.65791 24.4742 2.61629L21.1864 0.590902C21.1032 0.549285 21.0061 0.549285 20.9367 0.618647C20.8674 0.68801 20.8674 0.785117 20.9228 0.868352L22.1436 2.64403L21.0061 3.42089C20.9506 3.46251 20.9228 3.518 20.9228 3.58736C20.9367 3.65673 20.9645 3.72609 21.0199 3.75383Z" fill="#BBBBBB"/>
<path fill-rule="evenodd" clip-rule="evenodd" d="M24.6156 2.5625C36.1853 2.5625 45.4105 7.88954 45.5631 19.3205C45.7018 30.474 36.1853 36.0785 24.6156 36.0785C13.0459 36.0785 3.70972 30.8069 3.66811 19.3205C3.62649 7.66758 13.0459 2.5625 24.6156 2.5625Z" fill="#DDDDDD"/>
<path d="M15.3518 3.86662C8.54043 6.00299 3.5602 10.9971 3.60182 19.3067C3.62957 28.2129 9.2618 33.3873 17.183 35.2601C10.2884 26.0071 12.5635 17.6004 15.5044 12.0375C16.8084 9.56822 18.5286 7.33475 20.5401 5.40647C21.5528 4.43539 22.8707 3.825 24.2719 3.68628C24.7851 3.63079 24.6325 3.0204 24.6048 2.85393C24.577 2.70133 24.5354 2.63197 24.4106 2.57648C24.2857 2.52099 22.1216 2.64584 21.6638 2.68746C18.2789 2.95103 15.8235 3.71402 15.3518 3.86662Z" fill="#BBBBBB"/>
<path fill-rule="evenodd" clip-rule="evenodd" d="M38.5394 14.853C38.5394 14.853 36.3892 12.0923 32.713 13.3825H32.6991C32.5188 13.4657 27.8299 15.6298 27.275 15.9211C27.275 15.9211 26.0958 16.476 24.6253 16.5454C23.1548 16.476 21.9757 15.9211 21.9757 15.9211C21.4208 15.6298 16.7319 13.4657 16.5515 13.3825H16.5376C12.8614 12.0923 10.7112 14.853 10.7112 14.853C8.38061 17.3361 8.40835 23.2874 8.40835 23.2874C8.29737 26.0203 12.6117 26.7694 12.6117 26.7694C16.8151 27.7544 23.8623 27.7128 24.6253 27.7128C25.3883 27.7128 32.4355 27.7544 36.6389 26.7694C36.6389 26.7694 40.9533 26.0203 40.8423 23.2874C40.8423 23.2874 40.8561 17.3361 38.5394 14.853Z" fill="white"/>
<path fill-rule="evenodd" clip-rule="evenodd" d="M2.83316 14.8539C2.83316 14.8539 1.34881 19.8202 2.83316 23.76C2.83316 23.76 3.33257 24.8004 2.56959 24.5507C2.56959 24.5507 0.183516 23.7878 0.211261 19.3208C0.211261 19.3208 -0.0661893 15.8388 2.04243 14.6042C2.04243 14.5903 3.24934 13.8134 2.83316 14.8539Z" fill="#BBBBBB"/>
<path fill-rule="evenodd" clip-rule="evenodd" d="M47.2247 14.5903C49.3333 15.8249 49.0559 19.3069 49.0559 19.3069C49.0836 23.7739 46.6975 24.5369 46.6975 24.5369C45.9345 24.8004 46.434 23.7461 46.434 23.7461C47.9183 19.8063 46.434 14.84 46.434 14.84C46.0317 13.8134 47.2247 14.5903 47.2247 14.5903Z" fill="#DDDDDD"/>
<g opacity="0.4">
<path d="M15.3518 3.86662C8.54043 6.00299 3.5602 10.9971 3.60182 19.3067C3.62957 28.2129 9.2618 33.3873 17.183 35.2601C10.2884 26.0071 12.5635 17.6004 15.5044 12.0375C16.8084 9.56822 18.5286 7.33475 20.5401 5.40647C21.5528 4.43539 22.8707 3.825 24.2719 3.68628C24.7851 3.63079 24.6325 3.0204 24.6048 2.85393C24.577 2.70133 24.5354 2.63197 24.4106 2.57648C24.2857 2.52099 22.1216 2.64584 21.6638 2.68746C18.2789 2.95103 15.8235 3.71402 15.3518 3.86662Z" fill="#BBBBBB"/>
</g>
<path d="M16.3016 23.7594C17.7496 23.7594 18.9235 22.5856 18.9235 21.1375C18.9235 19.6895 17.7496 18.5156 16.3016 18.5156C14.8536 18.5156 13.6797 19.6895 13.6797 21.1375C13.6797 22.5856 14.8536 23.7594 16.3016 23.7594Z" fill="#8AD1C0"/>
<path d="M32.7938 23.7594C34.2418 23.7594 35.4157 22.5856 35.4157 21.1375C35.4157 19.6895 34.2418 18.5156 32.7938 18.5156C31.3457 18.5156 30.1719 19.6895 30.1719 21.1375C30.1719 22.5856 31.3457 23.7594 32.7938 23.7594Z" fill="#8AD1C0"/>
<path d="M30.1728 22.0087C29.8676 22.0087 29.5624 21.9254 29.2849 21.7867L26.5798 20.3023C26.2746 20.1359 25.9139 20.122 25.6087 20.2746L23.722 21.2041C23.2088 21.4538 22.5984 21.4538 22.0851 21.1902L20.7949 20.5382C20.5452 20.4133 20.24 20.3856 19.9626 20.4827L17.5349 21.3567C17.1603 21.4954 16.7442 21.4954 16.3557 21.3844L13.2622 20.3856C13.0957 20.3301 12.9015 20.3162 12.735 20.3578L8.50391 21.2596L8.60101 20.4411L12.5547 19.5949C12.8599 19.5255 13.1928 19.5532 13.4841 19.6365L16.5916 20.6214C16.8135 20.6908 17.0494 20.6908 17.2713 20.6075L19.699 19.7336C20.1707 19.5671 20.6978 19.5949 21.1418 19.8168L22.4319 20.4688C22.7232 20.6214 23.07 20.6214 23.3614 20.4688L25.248 19.5394C25.789 19.2758 26.4133 19.2897 26.9405 19.581L29.6456 21.0653C29.8537 21.1763 30.0895 21.2179 30.3254 21.1763L35.5414 20.3023C35.9576 20.233 36.3876 20.3023 36.7483 20.5243L37.6223 21.0237C37.8581 21.1624 38.1356 21.1902 38.413 21.1208L40.6188 20.5382L40.7159 21.3289L38.6072 21.8838C38.1356 22.0087 37.65 21.9393 37.2339 21.7035L36.3599 21.2041C36.1518 21.0792 35.9021 21.0376 35.6663 21.0792L30.4502 21.9532C30.367 21.9948 30.2699 22.0087 30.1728 22.0087Z" fill="#47A4DF"/>
<path d="M18.7007 20.0999L17.2719 20.6132C17.0499 20.6964 16.8141 20.6964 16.5921 20.6271L14.0257 19.8086C13.887 20.0306 13.7899 20.2803 13.7344 20.5438L16.3563 21.3762C16.7447 21.501 17.1609 21.4872 17.5354 21.3484L18.8949 20.8629C18.8811 20.5993 18.8117 20.3496 18.7007 20.0999Z" fill="white"/>
<path fill-rule="evenodd" clip-rule="evenodd" d="M35.4213 21.138C35.4213 20.8744 35.3797 20.6247 35.3104 20.375L30.3579 21.2074C30.3024 21.2212 30.2469 21.2212 30.1914 21.2212C30.2053 21.4848 30.2469 21.7484 30.3301 21.9981C30.3856 21.9981 30.4272 21.9981 30.4827 21.9842L35.4213 21.1519C35.4213 21.138 35.4213 21.138 35.4213 21.138Z" fill="white"/>
<path fill-rule="evenodd" clip-rule="evenodd" d="M38.5712 14.853C38.5712 14.853 36.421 12.0923 32.7448 13.3825H32.7309C32.5506 13.4657 27.8617 15.6298 27.3068 15.9211C27.3068 15.9211 26.1276 16.476 24.6571 16.5454C23.1866 16.476 22.0075 15.9211 22.0075 15.9211C21.4526 15.6298 16.7637 13.4657 16.5833 13.3825H16.5694C12.8932 12.0923 10.743 14.853 10.743 14.853C8.41241 17.3361 8.44016 23.2874 8.44016 23.2874C8.31531 26.0203 12.6297 26.7694 12.6297 26.7694C16.833 27.7544 23.8803 27.7128 24.6432 27.7128C25.4062 27.7128 32.4535 27.7544 36.6568 26.7694C36.6568 26.7694 40.9712 26.0203 40.8602 23.2874C40.8741 23.2874 40.888 17.3361 38.5712 14.853Z" fill="#202325"/>
<path d="M30.2079 22.0126C29.9027 22.0126 29.5975 21.9293 29.3201 21.7906L26.6149 20.2924C26.3097 20.1259 25.9491 20.112 25.6439 20.2646L23.7572 21.1941C23.2439 21.4438 22.6335 21.4438 22.1202 21.1802L20.8301 20.5282C20.5804 20.4034 20.2752 20.3756 19.9978 20.4727L17.5701 21.3467C17.1955 21.4854 16.7793 21.4854 16.3909 21.3744L13.2973 20.3895C13.1309 20.334 12.9366 20.3201 12.7702 20.3617L8.53906 21.2635L8.63617 20.445L12.5898 19.5988C12.895 19.5294 13.228 19.5571 13.5193 19.6404L16.6267 20.6253C16.8487 20.6947 17.0845 20.6947 17.3065 20.6115L19.7342 19.7375C20.2058 19.571 20.733 19.5988 21.1769 19.8207L22.4671 20.4727C22.7584 20.6253 23.1052 20.6253 23.3965 20.4727L25.2832 19.5433C25.8242 19.2797 26.4485 19.2936 26.9756 19.5849L29.6808 21.0692C29.8888 21.1802 30.1247 21.2218 30.3605 21.1802L35.5766 20.3063C35.9928 20.2369 36.4228 20.3063 36.7835 20.5282L37.6574 21.0276C37.8933 21.1664 38.1707 21.1941 38.4482 21.1247L40.6539 20.5421L40.751 21.3328L38.6424 21.8877C38.1707 22.0126 37.6852 21.9432 37.269 21.7074L36.3951 21.208C36.187 21.0831 35.9373 21.0415 35.7014 21.0831L30.4854 21.9571C30.4021 21.9987 30.305 22.0126 30.2079 22.0126Z" fill="#7289DA"/>
<path d="M16.3367 23.7594C17.7848 23.7594 18.9587 22.5856 18.9587 21.1375C18.9587 19.6895 17.7848 18.5156 16.3367 18.5156C14.8887 18.5156 13.7148 19.6895 13.7148 21.1375C13.7148 22.5856 14.8887 23.7594 16.3367 23.7594Z" fill="#8AD1C0"/>
<path d="M32.825 23.7594C34.2731 23.7594 35.4469 22.5856 35.4469 21.1375C35.4469 19.6895 34.2731 18.5156 32.825 18.5156C31.377 18.5156 30.2031 19.6895 30.2031 21.1375C30.2031 22.5856 31.377 23.7594 32.825 23.7594Z" fill="#8AD1C0"/>
<path d="M18.732 20.1116L17.3031 20.6249C17.0812 20.7082 16.8453 20.7082 16.6234 20.6388L14.0569 19.8203C13.9182 20.0423 13.8211 20.292 13.7656 20.5556L16.3875 21.3879C16.776 21.5128 17.1921 21.4989 17.5667 21.3602L18.9262 20.8746C18.8985 20.5972 18.843 20.3475 18.732 20.1116Z" fill="white"/>
<path fill-rule="evenodd" clip-rule="evenodd" d="M35.4331 21.138C35.4331 20.8744 35.3914 20.6247 35.3221 20.375L30.3696 21.2074C30.3141 21.2212 30.2586 21.2212 30.2031 21.2212C30.217 21.4848 30.2586 21.7484 30.3419 21.9981C30.3973 21.9981 30.439 21.9981 30.4944 21.9842L35.4331 21.1519V21.138Z" fill="white"/>
</g>
</g>
</g>
<defs>
<clipPath id="clip0_290_8170">
<rect x="0.25" y="0.550781" width="51.0508" height="35.5136" rx="17.7568" fill="white"/>
</clipPath>
<clipPath id="clip1_290_8170">
<rect width="51.0508" height="35.5136" fill="white" transform="translate(0.25 0.550781)"/>
</clipPath>
<clipPath id="clip2_290_8170">
<rect width="48.8728" height="35.5136" fill="white" transform="translate(0.25 0.550781)"/>
</clipPath>
</defs>
</svg>
