<svg width="52" height="36" viewBox="0 0 52 36" fill="none" xmlns="http://www.w3.org/2000/svg">
<g clip-path="url(#clip0_286_4446)">
<g clip-path="url(#clip1_286_4446)">
<g clip-path="url(#clip2_286_4446)">
<path d="M28.2814 3.31801C28.2814 3.24865 28.2537 3.19316 28.1982 3.15154L27.0607 2.37468L28.2953 0.585127C28.3508 0.501892 28.3369 0.404785 28.2814 0.335422C28.2121 0.26606 28.115 0.252187 28.0317 0.307677L24.7301 2.33306C24.6746 2.36081 24.633 2.43017 24.633 2.49953C24.633 2.5689 24.6607 2.62439 24.7162 2.666L25.8538 3.44286L24.633 5.21854C24.5775 5.30178 24.5914 5.39889 24.6469 5.46825C24.6607 5.48212 24.6607 5.48212 24.6746 5.49599C24.744 5.53761 24.8272 5.53761 24.8827 5.49599L28.1843 3.47061C28.2398 3.44286 28.2814 3.3735 28.2814 3.31801Z" fill="#DDDDDD"/>
<path d="M21.3207 3.46868L24.6224 5.49406C24.6917 5.53568 24.775 5.53568 24.8305 5.49406C24.8443 5.48019 24.8582 5.48019 24.8582 5.46632C24.9276 5.39696 24.9276 5.29985 24.8721 5.21661L23.6513 3.44093L24.7889 2.66407C24.8443 2.62245 24.8721 2.56696 24.8721 2.4976C24.8721 2.42824 24.8305 2.37275 24.775 2.33113L21.4872 0.305746C21.404 0.264128 21.3069 0.264128 21.2375 0.333491C21.1681 0.402854 21.1681 0.499961 21.2236 0.583196L22.4444 2.35888L21.3069 3.13574C21.2514 3.17735 21.2236 3.23284 21.2236 3.30221C21.2375 3.37157 21.2652 3.44093 21.3207 3.46868Z" fill="#BBBBBB"/>
<path fill-rule="evenodd" clip-rule="evenodd" d="M24.9164 2.27734C36.486 2.27734 45.7113 7.60439 45.8639 19.0353C46.0026 30.1888 36.486 35.7933 24.9164 35.7933C13.3467 35.7933 4.0105 30.5218 3.96889 19.0353C3.92727 7.38243 13.3467 2.27734 24.9164 2.27734Z" fill="#DDDDDD"/>
<path d="M15.6487 3.57756C8.83731 5.71392 3.85708 10.708 3.8987 19.0177C3.92644 27.9238 9.55868 33.0982 17.4799 34.971C10.5852 25.7181 12.8603 17.3113 15.8013 11.7485C17.1053 9.27916 18.8255 7.04568 20.837 5.11741C21.8497 4.14633 23.1676 3.53594 24.5687 3.39721C25.082 3.34172 24.9294 2.73133 24.9017 2.56486C24.8739 2.41227 24.8323 2.3429 24.7075 2.28741C24.5826 2.23192 22.4185 2.35678 21.9607 2.39839C18.5758 2.66197 16.1204 3.42496 15.6487 3.57756Z" fill="#BBBBBB"/>
<path fill-rule="evenodd" clip-rule="evenodd" d="M38.8402 14.5678C38.8402 14.5678 36.69 11.8072 33.0138 13.0973H32.9999C32.8196 13.1805 28.1306 15.3447 27.5757 15.636C27.5757 15.636 26.3966 16.1909 24.9261 16.2602C23.4556 16.1909 22.2764 15.636 22.2764 15.636C21.7215 15.3447 17.0326 13.1805 16.8523 13.0973H16.8384C13.1622 11.8072 11.012 14.5678 11.012 14.5678C8.68139 17.051 8.70914 23.0023 8.70914 23.0023C8.59816 25.7352 12.9125 26.4843 12.9125 26.4843C17.1159 27.4692 24.1631 27.4276 24.9261 27.4276C25.6891 27.4276 32.7363 27.4692 36.9397 26.4843C36.9397 26.4843 41.254 25.7352 41.1431 23.0023C41.1431 23.0023 41.1569 17.051 38.8402 14.5678Z" fill="white"/>
<path fill-rule="evenodd" clip-rule="evenodd" d="M3.13395 14.5687C3.13395 14.5687 1.64959 19.5351 3.13395 23.4749C3.13395 23.4749 3.63336 24.5153 2.87037 24.2656C2.87037 24.2656 0.484297 23.5026 0.512042 19.0357C0.512042 19.0357 0.234592 15.5537 2.34321 14.319C2.34321 14.3051 3.55012 13.5283 3.13395 14.5687Z" fill="#BBBBBB"/>
<path fill-rule="evenodd" clip-rule="evenodd" d="M47.5255 14.3051C49.6341 15.5398 49.3566 19.0218 49.3566 19.0218C49.3844 23.4887 46.9983 24.2517 46.9983 24.2517C46.2353 24.5153 46.7347 23.461 46.7347 23.461C48.2191 19.5212 46.7347 14.5548 46.7347 14.5548C46.3324 13.5283 47.5255 14.3051 47.5255 14.3051Z" fill="#DDDDDD"/>
<g opacity="0.4">
<path d="M15.6487 3.57756C8.83731 5.71392 3.85708 10.708 3.8987 19.0177C3.92644 27.9238 9.55868 33.0982 17.4799 34.971C10.5852 25.7181 12.8603 17.3113 15.8013 11.7485C17.1053 9.27916 18.8255 7.04568 20.837 5.11741C21.8497 4.14633 23.1676 3.53594 24.5687 3.39721C25.082 3.34172 24.9294 2.73133 24.9017 2.56486C24.8739 2.41227 24.8323 2.3429 24.7075 2.28741C24.5826 2.23192 22.4185 2.35678 21.9607 2.39839C18.5758 2.66197 16.1204 3.42496 15.6487 3.57756Z" fill="#BBBBBB"/>
</g>
<path d="M16.6024 23.4743C18.0504 23.4743 19.2243 22.3004 19.2243 20.8524C19.2243 19.4043 18.0504 18.2305 16.6024 18.2305C15.1543 18.2305 13.9805 19.4043 13.9805 20.8524C13.9805 22.3004 15.1543 23.4743 16.6024 23.4743Z" fill="#8AD1C0"/>
<path d="M33.0907 23.4743C34.5387 23.4743 35.7126 22.3004 35.7126 20.8524C35.7126 19.4043 34.5387 18.2305 33.0907 18.2305C31.6426 18.2305 30.4688 19.4043 30.4688 20.8524C30.4688 22.3004 31.6426 23.4743 33.0907 23.4743Z" fill="#8AD1C0"/>
<path d="M30.4696 21.7235C30.1644 21.7235 29.8592 21.6403 29.5818 21.5016L26.8767 20.0172C26.5715 19.8507 26.2108 19.8369 25.9056 19.9894L24.0189 20.9189C23.5056 21.1686 22.8952 21.1686 22.382 20.905L21.0918 20.253C20.8421 20.1282 20.5369 20.1004 20.2595 20.1975L17.8318 21.0715C17.4572 21.2102 17.041 21.2102 16.6526 21.0992L13.5591 20.1004C13.3926 20.0449 13.1984 20.0311 13.0319 20.0727L8.80078 20.9744L8.89789 20.1559L12.8516 19.3097C13.1567 19.2403 13.4897 19.2681 13.781 19.3513L16.8885 20.3363C17.1104 20.4056 17.3462 20.4056 17.5682 20.3224L19.9959 19.4484C20.4676 19.282 20.9947 19.3097 21.4386 19.5317L22.7288 20.1837C23.0201 20.3363 23.3669 20.3363 23.6582 20.1837L25.5449 19.2542C26.0859 18.9906 26.7102 19.0045 27.2373 19.2958L29.9425 20.7802C30.1506 20.8912 30.3864 20.9328 30.6222 20.8912L35.8383 20.0172C36.2545 19.9478 36.6845 20.0172 37.0452 20.2392L37.9192 20.7386C38.155 20.8773 38.4325 20.905 38.7099 20.8357L40.9156 20.253L41.0127 21.0438L38.9041 21.5987C38.4325 21.7235 37.9469 21.6541 37.5307 21.4183L36.6568 20.9189C36.4487 20.7941 36.199 20.7524 35.9631 20.7941L30.7471 21.668C30.6639 21.7096 30.5667 21.7235 30.4696 21.7235Z" fill="#47A4DF"/>
<path d="M18.9976 19.8148L17.5687 20.328C17.3468 20.4113 17.1109 20.4113 16.889 20.3419L14.3226 19.5234C14.1838 19.7454 14.0867 19.9951 14.0312 20.2587L16.6532 21.091C17.0416 21.2159 17.4578 21.202 17.8323 21.0633L19.1918 20.5777C19.1779 20.3142 19.1086 20.0645 18.9976 19.8148Z" fill="white"/>
<path fill-rule="evenodd" clip-rule="evenodd" d="M35.7182 20.8528C35.7182 20.5893 35.6766 20.3395 35.6072 20.0898L30.6548 20.9222C30.5993 20.9361 30.5438 20.9361 30.4883 20.9361C30.5022 21.1996 30.5438 21.4632 30.627 21.7129C30.6825 21.7129 30.7241 21.7129 30.7796 21.6991L35.7182 20.8667C35.7182 20.8528 35.7182 20.8528 35.7182 20.8528Z" fill="white"/>
<path d="M28.2814 3.31801C28.2814 3.24865 28.2537 3.19316 28.1982 3.15154L27.0607 2.37468L28.2953 0.585127C28.3508 0.501892 28.3369 0.404785 28.2814 0.335422C28.2121 0.26606 28.115 0.252187 28.0317 0.307677L24.7301 2.33306C24.6746 2.36081 24.633 2.43017 24.633 2.49953C24.633 2.5689 24.6607 2.62439 24.7162 2.666L25.8538 3.44286L24.633 5.21854C24.5775 5.30178 24.5914 5.39889 24.6469 5.46825C24.6607 5.48212 24.6607 5.48212 24.6746 5.49599C24.744 5.53761 24.8272 5.53761 24.8827 5.49599L28.1843 3.47061C28.2398 3.44286 28.2814 3.3735 28.2814 3.31801Z" fill="#DDDDDD"/>
<path d="M21.3207 3.46868L24.6224 5.49406C24.6917 5.53568 24.775 5.53568 24.8305 5.49406C24.8443 5.48019 24.8582 5.48019 24.8582 5.46632C24.9276 5.39696 24.9276 5.29985 24.8721 5.21661L23.6513 3.44093L24.7889 2.66407C24.8443 2.62245 24.8721 2.56696 24.8721 2.4976C24.8721 2.42824 24.8305 2.37275 24.775 2.33113L21.4872 0.305746C21.404 0.264128 21.3069 0.264128 21.2375 0.333491C21.1681 0.402854 21.1681 0.499961 21.2236 0.583196L22.4444 2.35888L21.3069 3.13574C21.2514 3.17735 21.2236 3.23284 21.2236 3.30221C21.2375 3.37157 21.2652 3.44093 21.3207 3.46868Z" fill="#BBBBBB"/>
<path fill-rule="evenodd" clip-rule="evenodd" d="M24.9164 2.27734C36.486 2.27734 45.7113 7.60439 45.8639 19.0353C46.0026 30.1888 36.486 35.7933 24.9164 35.7933C13.3467 35.7933 4.0105 30.5218 3.96889 19.0353C3.92727 7.38243 13.3467 2.27734 24.9164 2.27734Z" fill="#DDDDDD"/>
<path d="M15.6487 3.57756C8.83731 5.71392 3.85708 10.708 3.8987 19.0177C3.92644 27.9238 9.55868 33.0982 17.4799 34.971C10.5852 25.7181 12.8603 17.3113 15.8013 11.7485C17.1053 9.27916 18.8255 7.04568 20.837 5.11741C21.8497 4.14633 23.1676 3.53594 24.5687 3.39721C25.082 3.34172 24.9294 2.73133 24.9017 2.56486C24.8739 2.41227 24.8323 2.3429 24.7075 2.28741C24.5826 2.23192 22.4185 2.35678 21.9607 2.39839C18.5758 2.66197 16.1204 3.42496 15.6487 3.57756Z" fill="#BBBBBB"/>
<path fill-rule="evenodd" clip-rule="evenodd" d="M38.8402 14.5678C38.8402 14.5678 36.69 11.8072 33.0138 13.0973H32.9999C32.8196 13.1805 28.1306 15.3447 27.5757 15.636C27.5757 15.636 26.3966 16.1909 24.9261 16.2602C23.4556 16.1909 22.2764 15.636 22.2764 15.636C21.7215 15.3447 17.0326 13.1805 16.8523 13.0973H16.8384C13.1622 11.8072 11.012 14.5678 11.012 14.5678C8.68139 17.051 8.70914 23.0023 8.70914 23.0023C8.59816 25.7352 12.9125 26.4843 12.9125 26.4843C17.1159 27.4692 24.1631 27.4276 24.9261 27.4276C25.6891 27.4276 32.7363 27.4692 36.9397 26.4843C36.9397 26.4843 41.254 25.7352 41.1431 23.0023C41.1431 23.0023 41.1569 17.051 38.8402 14.5678Z" fill="white"/>
<path fill-rule="evenodd" clip-rule="evenodd" d="M3.13395 14.5687C3.13395 14.5687 1.64959 19.5351 3.13395 23.4749C3.13395 23.4749 3.63336 24.5153 2.87037 24.2656C2.87037 24.2656 0.484297 23.5026 0.512042 19.0357C0.512042 19.0357 0.234592 15.5537 2.34321 14.319C2.34321 14.3051 3.55012 13.5283 3.13395 14.5687Z" fill="#BBBBBB"/>
<path fill-rule="evenodd" clip-rule="evenodd" d="M47.5255 14.3051C49.6341 15.5398 49.3566 19.0218 49.3566 19.0218C49.3844 23.4887 46.9983 24.2517 46.9983 24.2517C46.2353 24.5153 46.7347 23.461 46.7347 23.461C48.2191 19.5212 46.7347 14.5548 46.7347 14.5548C46.3324 13.5283 47.5255 14.3051 47.5255 14.3051Z" fill="#DDDDDD"/>
<g opacity="0.4">
<path d="M15.6487 3.57756C8.83731 5.71392 3.85708 10.708 3.8987 19.0177C3.92644 27.9238 9.55868 33.0982 17.4799 34.971C10.5852 25.7181 12.8603 17.3113 15.8013 11.7485C17.1053 9.27916 18.8255 7.04568 20.837 5.11741C21.8497 4.14633 23.1676 3.53594 24.5687 3.39721C25.082 3.34172 24.9294 2.73133 24.9017 2.56486C24.8739 2.41227 24.8323 2.3429 24.7075 2.28741C24.5826 2.23192 22.4185 2.35678 21.9607 2.39839C18.5758 2.66197 16.1204 3.42496 15.6487 3.57756Z" fill="#BBBBBB"/>
</g>
<path d="M16.6024 23.4743C18.0504 23.4743 19.2243 22.3004 19.2243 20.8524C19.2243 19.4043 18.0504 18.2305 16.6024 18.2305C15.1543 18.2305 13.9805 19.4043 13.9805 20.8524C13.9805 22.3004 15.1543 23.4743 16.6024 23.4743Z" fill="#8AD1C0"/>
<path d="M33.0907 23.4743C34.5387 23.4743 35.7126 22.3004 35.7126 20.8524C35.7126 19.4043 34.5387 18.2305 33.0907 18.2305C31.6426 18.2305 30.4688 19.4043 30.4688 20.8524C30.4688 22.3004 31.6426 23.4743 33.0907 23.4743Z" fill="#8AD1C0"/>
<path d="M30.4696 21.7235C30.1644 21.7235 29.8592 21.6403 29.5818 21.5016L26.8767 20.0172C26.5715 19.8507 26.2108 19.8369 25.9056 19.9894L24.0189 20.9189C23.5056 21.1686 22.8952 21.1686 22.382 20.905L21.0918 20.253C20.8421 20.1282 20.5369 20.1004 20.2595 20.1975L17.8318 21.0715C17.4572 21.2102 17.041 21.2102 16.6526 21.0992L13.5591 20.1004C13.3926 20.0449 13.1984 20.0311 13.0319 20.0727L8.80078 20.9744L8.89789 20.1559L12.8516 19.3097C13.1567 19.2403 13.4897 19.2681 13.781 19.3513L16.8885 20.3363C17.1104 20.4056 17.3462 20.4056 17.5682 20.3224L19.9959 19.4484C20.4676 19.282 20.9947 19.3097 21.4386 19.5317L22.7288 20.1837C23.0201 20.3363 23.3669 20.3363 23.6582 20.1837L25.5449 19.2542C26.0859 18.9906 26.7102 19.0045 27.2373 19.2958L29.9425 20.7802C30.1506 20.8912 30.3864 20.9328 30.6222 20.8912L35.8383 20.0172C36.2545 19.9478 36.6845 20.0172 37.0452 20.2392L37.9192 20.7386C38.155 20.8773 38.4325 20.905 38.7099 20.8357L40.9156 20.253L41.0127 21.0438L38.9041 21.5987C38.4325 21.7235 37.9469 21.6541 37.5307 21.4183L36.6568 20.9189C36.4487 20.7941 36.199 20.7524 35.9631 20.7941L30.7471 21.668C30.6639 21.7096 30.5667 21.7235 30.4696 21.7235Z" fill="#47A4DF"/>
<path d="M18.9976 19.8148L17.5687 20.328C17.3468 20.4113 17.1109 20.4113 16.889 20.3419L14.3226 19.5234C14.1838 19.7454 14.0867 19.9951 14.0312 20.2587L16.6532 21.091C17.0416 21.2159 17.4578 21.202 17.8323 21.0633L19.1918 20.5777C19.1779 20.3142 19.1086 20.0645 18.9976 19.8148Z" fill="white"/>
<path fill-rule="evenodd" clip-rule="evenodd" d="M35.7182 20.8528C35.7182 20.5893 35.6766 20.3395 35.6072 20.0898L30.6548 20.9222C30.5993 20.9361 30.5438 20.9361 30.4883 20.9361C30.5022 21.1996 30.5438 21.4632 30.627 21.7129C30.6825 21.7129 30.7241 21.7129 30.7796 21.6991L35.7182 20.8667C35.7182 20.8528 35.7182 20.8528 35.7182 20.8528Z" fill="white"/>
<path fill-rule="evenodd" clip-rule="evenodd" d="M38.8681 14.5678C38.8681 14.5678 36.7179 11.8072 33.0417 13.0973H33.0278C32.8475 13.1805 28.1585 15.3447 27.6036 15.636C27.6036 15.636 26.4245 16.1909 24.954 16.2602C23.4835 16.1909 22.3043 15.636 22.3043 15.636C21.7494 15.3447 17.0605 13.1805 16.8802 13.0973H16.8663C13.1901 11.8072 11.0399 14.5678 11.0399 14.5678C8.70929 17.051 8.73703 23.0023 8.73703 23.0023C8.61218 25.7352 12.9265 26.4843 12.9265 26.4843C17.1299 27.4692 24.1771 27.4276 24.9401 27.4276C25.7031 27.4276 32.7503 27.4692 36.9537 26.4843C36.9537 26.4843 41.2681 25.7352 41.1571 23.0023C41.171 23.0023 41.1848 17.051 38.8681 14.5678Z" fill="#202325"/>
<path d="M30.5048 21.7274C30.1996 21.7274 29.8944 21.6442 29.6169 21.5055L26.9118 20.0072C26.6066 19.8408 26.2459 19.8269 25.9407 19.9795L24.0541 20.9089C23.5408 21.1586 22.9304 21.1586 22.4171 20.8951L21.127 20.2431C20.8773 20.1182 20.5721 20.0905 20.2946 20.1876L17.8669 21.0615C17.4924 21.2003 17.0762 21.2003 16.6878 21.0893L13.5942 20.1043C13.4277 20.0488 13.2335 20.035 13.0671 20.0766L8.83594 20.9783L8.93305 20.1598L12.8867 19.3136C13.1919 19.2442 13.5248 19.272 13.8162 19.3552L16.9236 20.3402C17.1456 20.4095 17.3814 20.4095 17.6034 20.3263L20.031 19.4523C20.5027 19.2859 21.0299 19.3136 21.4738 19.5356L22.7639 20.1876C23.0553 20.3402 23.4021 20.3402 23.6934 20.1876L25.58 19.2581C26.1211 18.9945 26.7453 19.0084 27.2725 19.2997L29.9776 20.7841C30.1857 20.8951 30.4216 20.9367 30.6574 20.8951L35.8734 20.0211C36.2896 19.9517 36.7197 20.0211 37.0804 20.2431L37.9543 20.7425C38.1902 20.8812 38.4676 20.9089 38.7451 20.8396L40.9508 20.2569L41.0479 21.0477L38.9393 21.6026C38.4676 21.7274 37.9821 21.6581 37.5659 21.4222L36.6919 20.9228C36.4838 20.798 36.2341 20.7563 35.9983 20.798L30.7822 21.6719C30.699 21.7135 30.6019 21.7274 30.5048 21.7274Z" fill="#7289DA"/>
<path d="M16.6336 23.4743C18.0817 23.4743 19.2555 22.3004 19.2555 20.8524C19.2555 19.4043 18.0817 18.2305 16.6336 18.2305C15.1856 18.2305 14.0117 19.4043 14.0117 20.8524C14.0117 22.3004 15.1856 23.4743 16.6336 23.4743Z" fill="#8AD1C0"/>
<path d="M33.1219 23.4743C34.5699 23.4743 35.7438 22.3004 35.7438 20.8524C35.7438 19.4043 34.5699 18.2305 33.1219 18.2305C31.6739 18.2305 30.5 19.4043 30.5 20.8524C30.5 22.3004 31.6739 23.4743 33.1219 23.4743Z" fill="#8AD1C0"/>
<path d="M19.0289 19.8265L17.6 20.3398C17.378 20.423 17.1422 20.423 16.9202 20.3536L14.3538 19.5352C14.2151 19.7571 14.118 20.0068 14.0625 20.2704L16.6844 21.1027C17.0728 21.2276 17.489 21.2137 17.8636 21.075L19.2231 20.5895C19.1953 20.312 19.1398 20.0623 19.0289 19.8265Z" fill="white"/>
<path fill-rule="evenodd" clip-rule="evenodd" d="M35.7299 20.8528C35.7299 20.5893 35.6883 20.3395 35.619 20.0898L30.6665 20.9222C30.611 20.9361 30.5555 20.9361 30.5 20.9361C30.5139 21.1996 30.5555 21.4632 30.6387 21.7129C30.6942 21.7129 30.7358 21.7129 30.7913 21.6991L35.7299 20.8667V20.8528Z" fill="white"/>
</g>
</g>
</g>
<defs>
<clipPath id="clip0_286_4446">
<rect x="0.550781" y="0.265625" width="51.0508" height="35.5136" rx="17.7568" fill="white"/>
</clipPath>
<clipPath id="clip1_286_4446">
<rect width="51.0508" height="35.5136" fill="white" transform="translate(0.550781 0.265625)"/>
</clipPath>
<clipPath id="clip2_286_4446">
<rect width="48.8728" height="35.5136" fill="white" transform="translate(0.550781 0.265625)"/>
</clipPath>
</defs>
</svg>
