<svg width="52" height="37" viewBox="0 0 52 37" fill="none" xmlns="http://www.w3.org/2000/svg">
<g clip-path="url(#clip0_290_10659)">
<g clip-path="url(#clip1_290_10659)">
<g clip-path="url(#clip2_290_10659)">
<path d="M28.5861 3.83559C28.5861 3.76623 28.5584 3.71074 28.5029 3.66912L27.3654 2.89226L28.6 1.10271C28.6555 1.01947 28.6416 0.922363 28.5861 0.853C28.5168 0.783638 28.4197 0.769765 28.3364 0.825255L25.0348 2.85064C24.9793 2.87839 24.9377 2.94775 24.9377 3.01711C24.9377 3.08647 24.9654 3.14196 25.0209 3.18358L26.1584 3.96044L24.9377 5.73612C24.8822 5.81936 24.8961 5.91646 24.9515 5.98583C24.9654 5.9997 24.9654 5.9997 24.9793 6.01357C25.0486 6.05519 25.1319 6.05519 25.1874 6.01357L28.489 3.98819C28.5445 3.96044 28.5861 3.89108 28.5861 3.83559Z" fill="#DDDDDD"/>
<path d="M21.6254 3.98626L24.9271 6.01164C24.9964 6.05326 25.0797 6.05326 25.1352 6.01164C25.149 5.99777 25.1629 5.99777 25.1629 5.9839C25.2323 5.91453 25.2323 5.81743 25.1768 5.73419L23.956 3.95851L25.0935 3.18165C25.149 3.14003 25.1768 3.08454 25.1768 3.01518C25.1768 2.94582 25.1352 2.89033 25.0797 2.84871L21.7919 0.823324C21.7087 0.781707 21.6115 0.781707 21.5422 0.851069C21.4728 0.920432 21.4728 1.01754 21.5283 1.10077L22.7491 2.87646L21.6115 3.65332C21.5561 3.69493 21.5283 3.75042 21.5283 3.81979C21.5422 3.88915 21.5699 3.95851 21.6254 3.98626Z" fill="#BBBBBB"/>
<path fill-rule="evenodd" clip-rule="evenodd" d="M25.2211 2.79297C36.7907 2.79297 46.0159 8.12001 46.1685 19.551C46.3073 30.7044 36.7907 36.3089 25.2211 36.3089C13.6514 36.3089 4.31519 31.0374 4.27357 19.551C4.23196 7.89805 13.6514 2.79297 25.2211 2.79297Z" fill="#DDDDDD"/>
<path d="M15.9534 4.09709C9.142 6.23345 4.16177 11.2276 4.20338 19.5372C4.23113 28.4433 9.86337 33.6178 17.7846 35.4906C10.8899 26.2376 13.165 17.8309 16.106 12.268C17.41 9.79869 19.1302 7.56521 21.1417 5.63694C22.1544 4.66586 23.4723 4.05547 24.8734 3.91675C25.3867 3.86126 25.2341 3.25087 25.2064 3.0844C25.1786 2.9318 25.137 2.86244 25.0121 2.80695C24.8873 2.75146 22.7232 2.87631 22.2654 2.91793C18.8805 3.1815 16.4251 3.94449 15.9534 4.09709Z" fill="#BBBBBB"/>
<path fill-rule="evenodd" clip-rule="evenodd" d="M39.1449 15.0854C39.1449 15.0854 36.9947 12.3247 33.3185 13.6149H33.3046C33.1242 13.6981 28.4353 15.8622 27.8804 16.1536C27.8804 16.1536 26.7013 16.7085 25.2308 16.7778C23.7603 16.7085 22.5811 16.1536 22.5811 16.1536C22.0262 15.8622 17.3373 13.6981 17.157 13.6149H17.1431C13.4669 12.3247 11.3167 15.0854 11.3167 15.0854C8.98608 17.5686 9.01382 23.5199 9.01382 23.5199C8.90284 26.2527 13.2172 27.0019 13.2172 27.0019C17.4206 27.9868 24.4678 27.9452 25.2308 27.9452C25.9938 27.9452 33.041 27.9868 37.2444 27.0019C37.2444 27.0019 41.5587 26.2527 41.4477 23.5199C41.4477 23.5199 41.4616 17.5686 39.1449 15.0854Z" fill="white"/>
<path fill-rule="evenodd" clip-rule="evenodd" d="M3.43863 15.0882C3.43863 15.0882 1.95428 20.0546 3.43863 23.9944C3.43863 23.9944 3.93804 25.0348 3.17506 24.7851C3.17506 24.7851 0.788985 24.0221 0.81673 19.5552C0.81673 19.5552 0.539279 16.0732 2.6479 14.8385C2.6479 14.8247 3.85481 14.0478 3.43863 15.0882Z" fill="#BBBBBB"/>
<path fill-rule="evenodd" clip-rule="evenodd" d="M47.8302 14.8246C49.9388 16.0593 49.6613 19.5413 49.6613 19.5413C49.6891 24.0082 47.303 24.7712 47.303 24.7712C46.54 25.0348 47.0394 23.9805 47.0394 23.9805C48.5238 20.0407 47.0394 15.0744 47.0394 15.0744C46.6371 14.0478 47.8302 14.8246 47.8302 14.8246Z" fill="#DDDDDD"/>
<g opacity="0.4">
<path d="M15.9534 4.09709C9.142 6.23345 4.16177 11.2276 4.20338 19.5372C4.23113 28.4433 9.86337 33.6178 17.7846 35.4906C10.8899 26.2376 13.165 17.8309 16.106 12.268C17.41 9.79869 19.1302 7.56521 21.1417 5.63694C22.1544 4.66586 23.4723 4.05547 24.8734 3.91675C25.3867 3.86126 25.2341 3.25087 25.2064 3.0844C25.1786 2.9318 25.137 2.86244 25.0121 2.80695C24.8873 2.75146 22.7232 2.87631 22.2654 2.91793C18.8805 3.1815 16.4251 3.94449 15.9534 4.09709Z" fill="#BBBBBB"/>
</g>
<path d="M16.911 23.9899C18.359 23.9899 19.5329 22.816 19.5329 21.368C19.5329 19.92 18.359 18.7461 16.911 18.7461C15.4629 18.7461 14.2891 19.92 14.2891 21.368C14.2891 22.816 15.4629 23.9899 16.911 23.9899Z" fill="#8AD1C0"/>
<path d="M33.3992 23.9899C34.8473 23.9899 36.0212 22.816 36.0212 21.368C36.0212 19.92 34.8473 18.7461 33.3992 18.7461C31.9512 18.7461 30.7773 19.92 30.7773 21.368C30.7773 22.816 31.9512 23.9899 33.3992 23.9899Z" fill="#8AD1C0"/>
<path d="M30.7821 22.2391C30.4769 22.2391 30.1717 22.1559 29.8943 22.0172L27.1892 20.5328C26.884 20.3663 26.5233 20.3525 26.2181 20.5051L24.3314 21.4345C23.8181 21.6842 23.2077 21.6842 22.6945 21.4207L21.4043 20.7687C21.1546 20.6438 20.8494 20.6161 20.572 20.7132L18.1443 21.5871C17.7697 21.7259 17.3535 21.7259 16.9651 21.6149L13.8716 20.6161C13.7051 20.5606 13.5109 20.5467 13.3444 20.5883L9.11328 21.49L9.21039 20.6715L13.1641 19.8253C13.4692 19.756 13.8022 19.7837 14.0935 19.8669L17.201 20.8519C17.4229 20.9212 17.6587 20.9212 17.8807 20.838L20.3084 19.964C20.7801 19.7976 21.3072 19.8253 21.7511 20.0473L23.0413 20.6993C23.3326 20.8519 23.6794 20.8519 23.9707 20.6993L25.8574 19.7698C26.3984 19.5063 27.0227 19.5201 27.5498 19.8114L30.255 21.2958C30.4631 21.4068 30.6989 21.4484 30.9347 21.4068L36.1508 20.5328C36.567 20.4635 36.997 20.5328 37.3577 20.7548L38.2317 21.2542C38.4675 21.3929 38.745 21.4207 39.0224 21.3513L41.2281 20.7687L41.3252 21.5594L39.2166 22.1143C38.745 22.2391 38.2594 22.1698 37.8432 21.9339L36.9693 21.4345C36.7612 21.3097 36.5115 21.2681 36.2756 21.3097L31.0596 22.1836C30.9764 22.2253 30.8792 22.2391 30.7821 22.2391Z" fill="#47A4DF"/>
<path d="M19.3062 20.3284L17.8773 20.8417C17.6554 20.925 17.4195 20.9249 17.1976 20.8556L14.6312 20.0371C14.4924 20.2591 14.3953 20.5088 14.3398 20.7724L16.9617 21.6047C17.3502 21.7296 17.7664 21.7157 18.1409 21.577L19.5004 21.0914C19.4865 20.8278 19.4172 20.5781 19.3062 20.3284Z" fill="white"/>
<path fill-rule="evenodd" clip-rule="evenodd" d="M36.0268 21.3685C36.0268 21.1049 35.9852 20.8552 35.9158 20.6055L30.9633 21.4378C30.9079 21.4517 30.8524 21.4517 30.7969 21.4517C30.8107 21.7153 30.8524 21.9788 30.9356 22.2286C30.9911 22.2286 31.0327 22.2286 31.0882 22.2147L36.0268 21.3823C36.0268 21.3685 36.0268 21.3685 36.0268 21.3685Z" fill="white"/>
<path d="M28.5861 3.83559C28.5861 3.76623 28.5584 3.71074 28.5029 3.66912L27.3654 2.89226L28.6 1.10271C28.6555 1.01947 28.6416 0.922363 28.5861 0.853C28.5168 0.783638 28.4197 0.769765 28.3364 0.825255L25.0348 2.85064C24.9793 2.87839 24.9377 2.94775 24.9377 3.01711C24.9377 3.08647 24.9654 3.14196 25.0209 3.18358L26.1584 3.96044L24.9377 5.73612C24.8822 5.81936 24.8961 5.91646 24.9515 5.98583C24.9654 5.9997 24.9654 5.9997 24.9793 6.01357C25.0486 6.05519 25.1319 6.05519 25.1874 6.01357L28.489 3.98819C28.5445 3.96044 28.5861 3.89108 28.5861 3.83559Z" fill="#DDDDDD"/>
<path d="M21.6254 3.98626L24.9271 6.01164C24.9964 6.05326 25.0797 6.05326 25.1352 6.01164C25.149 5.99777 25.1629 5.99777 25.1629 5.9839C25.2323 5.91453 25.2323 5.81743 25.1768 5.73419L23.956 3.95851L25.0935 3.18165C25.149 3.14003 25.1768 3.08454 25.1768 3.01518C25.1768 2.94582 25.1352 2.89033 25.0797 2.84871L21.7919 0.823324C21.7087 0.781707 21.6115 0.781707 21.5422 0.851069C21.4728 0.920432 21.4728 1.01754 21.5283 1.10077L22.7491 2.87646L21.6115 3.65332C21.5561 3.69493 21.5283 3.75042 21.5283 3.81979C21.5422 3.88915 21.5699 3.95851 21.6254 3.98626Z" fill="#BBBBBB"/>
<path fill-rule="evenodd" clip-rule="evenodd" d="M25.2211 2.79492C36.7907 2.79492 46.0159 8.12196 46.1685 19.5529C46.3073 30.7064 36.7907 36.3109 25.2211 36.3109C13.6514 36.3109 4.31519 31.0393 4.27357 19.5529C4.23196 7.9 13.6514 2.79492 25.2211 2.79492Z" fill="#DDDDDD"/>
<path d="M15.9534 4.09709C9.142 6.23345 4.16177 11.2276 4.20338 19.5372C4.23113 28.4433 9.86337 33.6178 17.7846 35.4906C10.8899 26.2376 13.165 17.8309 16.106 12.268C17.41 9.79869 19.1302 7.56521 21.1417 5.63694C22.1544 4.66586 23.4723 4.05547 24.8734 3.91675C25.3867 3.86126 25.2341 3.25087 25.2064 3.0844C25.1786 2.9318 25.137 2.86244 25.0121 2.80695C24.8873 2.75146 22.7232 2.87631 22.2654 2.91793C18.8805 3.1815 16.4251 3.94449 15.9534 4.09709Z" fill="#BBBBBB"/>
<path fill-rule="evenodd" clip-rule="evenodd" d="M39.1449 15.0854C39.1449 15.0854 36.9947 12.3247 33.3185 13.6149H33.3046C33.1242 13.6981 28.4353 15.8622 27.8804 16.1536C27.8804 16.1536 26.7013 16.7085 25.2308 16.7778C23.7603 16.7085 22.5811 16.1536 22.5811 16.1536C22.0262 15.8622 17.3373 13.6981 17.157 13.6149H17.1431C13.4669 12.3247 11.3167 15.0854 11.3167 15.0854C8.98608 17.5686 9.01382 23.5199 9.01382 23.5199C8.90284 26.2527 13.2172 27.0019 13.2172 27.0019C17.4206 27.9868 24.4678 27.9452 25.2308 27.9452C25.9938 27.9452 33.041 27.9868 37.2444 27.0019C37.2444 27.0019 41.5587 26.2527 41.4477 23.5199C41.4477 23.5199 41.4616 17.5686 39.1449 15.0854Z" fill="white"/>
<path fill-rule="evenodd" clip-rule="evenodd" d="M3.43863 15.0882C3.43863 15.0882 1.95428 20.0546 3.43863 23.9944C3.43863 23.9944 3.93804 25.0348 3.17506 24.7851C3.17506 24.7851 0.788985 24.0221 0.81673 19.5552C0.81673 19.5552 0.539279 16.0732 2.6479 14.8385C2.6479 14.8247 3.85481 14.0478 3.43863 15.0882Z" fill="#BBBBBB"/>
<path fill-rule="evenodd" clip-rule="evenodd" d="M47.8302 14.8246C49.9388 16.0593 49.6613 19.5413 49.6613 19.5413C49.6891 24.0082 47.303 24.7712 47.303 24.7712C46.54 25.0348 47.0394 23.9805 47.0394 23.9805C48.5238 20.0407 47.0394 15.0744 47.0394 15.0744C46.6371 14.0478 47.8302 14.8246 47.8302 14.8246Z" fill="#DDDDDD"/>
<g opacity="0.4">
<path d="M15.9534 4.09709C9.142 6.23345 4.16177 11.2276 4.20338 19.5372C4.23113 28.4433 9.86337 33.6178 17.7846 35.4906C10.8899 26.2376 13.165 17.8309 16.106 12.268C17.41 9.79869 19.1302 7.56521 21.1417 5.63694C22.1544 4.66586 23.4723 4.05547 24.8734 3.91675C25.3867 3.86126 25.2341 3.25087 25.2064 3.0844C25.1786 2.9318 25.137 2.86244 25.0121 2.80695C24.8873 2.75146 22.7232 2.87631 22.2654 2.91793C18.8805 3.1815 16.4251 3.94449 15.9534 4.09709Z" fill="#BBBBBB"/>
</g>
<path d="M16.911 23.9899C18.359 23.9899 19.5329 22.816 19.5329 21.368C19.5329 19.92 18.359 18.7461 16.911 18.7461C15.4629 18.7461 14.2891 19.92 14.2891 21.368C14.2891 22.816 15.4629 23.9899 16.911 23.9899Z" fill="#8AD1C0"/>
<path d="M33.3992 23.9899C34.8473 23.9899 36.0212 22.816 36.0212 21.368C36.0212 19.92 34.8473 18.7461 33.3992 18.7461C31.9512 18.7461 30.7773 19.92 30.7773 21.368C30.7773 22.816 31.9512 23.9899 33.3992 23.9899Z" fill="#8AD1C0"/>
<path d="M30.7821 22.2391C30.4769 22.2391 30.1717 22.1559 29.8943 22.0172L27.1892 20.5328C26.884 20.3663 26.5233 20.3525 26.2181 20.5051L24.3314 21.4345C23.8181 21.6842 23.2077 21.6842 22.6945 21.4207L21.4043 20.7687C21.1546 20.6438 20.8494 20.6161 20.572 20.7132L18.1443 21.5871C17.7697 21.7259 17.3535 21.7259 16.9651 21.6149L13.8716 20.6161C13.7051 20.5606 13.5109 20.5467 13.3444 20.5883L9.11328 21.49L9.21039 20.6715L13.1641 19.8253C13.4692 19.756 13.8022 19.7837 14.0935 19.8669L17.201 20.8519C17.4229 20.9212 17.6587 20.9212 17.8807 20.838L20.3084 19.964C20.7801 19.7976 21.3072 19.8253 21.7511 20.0473L23.0413 20.6993C23.3326 20.8519 23.6794 20.8519 23.9707 20.6993L25.8574 19.7698C26.3984 19.5063 27.0227 19.5201 27.5498 19.8114L30.255 21.2958C30.4631 21.4068 30.6989 21.4484 30.9347 21.4068L36.1508 20.5328C36.567 20.4635 36.997 20.5328 37.3577 20.7548L38.2317 21.2542C38.4675 21.3929 38.745 21.4207 39.0224 21.3513L41.2281 20.7687L41.3252 21.5594L39.2166 22.1143C38.745 22.2391 38.2594 22.1698 37.8432 21.9339L36.9693 21.4345C36.7612 21.3097 36.5115 21.2681 36.2756 21.3097L31.0596 22.1836C30.9764 22.2253 30.8792 22.2391 30.7821 22.2391Z" fill="#47A4DF"/>
<path d="M19.3062 20.3284L17.8773 20.8417C17.6554 20.925 17.4195 20.9249 17.1976 20.8556L14.6312 20.0371C14.4924 20.2591 14.3953 20.5088 14.3398 20.7724L16.9617 21.6047C17.3502 21.7296 17.7664 21.7157 18.1409 21.577L19.5004 21.0914C19.4865 20.8278 19.4172 20.5781 19.3062 20.3284Z" fill="white"/>
<path fill-rule="evenodd" clip-rule="evenodd" d="M36.0268 21.3685C36.0268 21.1049 35.9852 20.8552 35.9158 20.6055L30.9633 21.4378C30.9079 21.4517 30.8524 21.4517 30.7969 21.4517C30.8107 21.7153 30.8524 21.9788 30.9356 22.2286C30.9911 22.2286 31.0327 22.2286 31.0882 22.2147L36.0268 21.3823C36.0268 21.3685 36.0268 21.3685 36.0268 21.3685Z" fill="white"/>
<path fill-rule="evenodd" clip-rule="evenodd" d="M39.1728 15.0854C39.1728 15.0854 37.0226 12.3247 33.3464 13.6149H33.3325C33.1521 13.6981 28.4632 15.8622 27.9083 16.1536C27.9083 16.1536 26.7292 16.7085 25.2587 16.7778C23.7882 16.7085 22.609 16.1536 22.609 16.1536C22.0541 15.8622 17.3652 13.6981 17.1849 13.6149H17.171C13.4948 12.3247 11.3446 15.0854 11.3446 15.0854C9.01398 17.5686 9.04172 23.5199 9.04172 23.5199C8.91687 26.2527 13.2312 27.0019 13.2312 27.0019C17.4346 27.9868 24.4818 27.9452 25.2448 27.9452C26.0078 27.9452 33.055 27.9868 37.2584 27.0019C37.2584 27.0019 41.5728 26.2527 41.4618 23.5199C41.4756 23.5199 41.4895 17.5686 39.1728 15.0854Z" fill="#202325"/>
<path d="M30.8095 22.245C30.5043 22.245 30.1991 22.1618 29.9216 22.023L27.2165 20.5248C26.9113 20.3583 26.5506 20.3445 26.2454 20.4971L24.3588 21.4265C23.8455 21.6762 23.2351 21.6762 22.7218 21.4126L21.4317 20.7606C21.182 20.6358 20.8768 20.608 20.5993 20.7051L18.1716 21.5791C17.7971 21.7178 17.3809 21.7178 16.9925 21.6069L13.8989 20.6219C13.7324 20.5664 13.5382 20.5526 13.3717 20.5942L9.14062 21.4959L9.23773 20.6774L13.1914 19.8312C13.4966 19.7618 13.8295 19.7896 14.1209 19.8728L17.2283 20.8577C17.4503 20.9271 17.6861 20.9271 17.908 20.8439L20.3357 19.9699C20.8074 19.8034 21.3346 19.8312 21.7785 20.0531L23.0686 20.7051C23.3599 20.8577 23.7068 20.8577 23.9981 20.7051L25.8847 19.7757C26.4258 19.5121 27.05 19.526 27.5772 19.8173L30.2823 21.3017C30.4904 21.4126 30.7262 21.4543 30.9621 21.4126L36.1781 20.5387C36.5943 20.4693 37.0244 20.5387 37.385 20.7606L38.259 21.26C38.4948 21.3988 38.7723 21.4265 39.0497 21.3572L41.2555 20.7745L41.3526 21.5652L39.244 22.1201C38.7723 22.245 38.2868 22.1756 37.8706 21.9398L36.9966 21.4404C36.7885 21.3155 36.5388 21.2739 36.303 21.3155L31.0869 22.1895C31.0037 22.2311 30.9066 22.245 30.8095 22.245Z" fill="#7289DA"/>
<path d="M16.9383 23.9899C18.3863 23.9899 19.5602 22.816 19.5602 21.368C19.5602 19.92 18.3863 18.7461 16.9383 18.7461C15.4903 18.7461 14.3164 19.92 14.3164 21.368C14.3164 22.816 15.4903 23.9899 16.9383 23.9899Z" fill="#8AD1C0"/>
<path d="M33.4266 23.9899C34.8746 23.9899 36.0485 22.816 36.0485 21.368C36.0485 19.92 34.8746 18.7461 33.4266 18.7461C31.9786 18.7461 30.8047 19.92 30.8047 21.368C30.8047 22.816 31.9786 23.9899 33.4266 23.9899Z" fill="#8AD1C0"/>
<path d="M19.3335 20.3421L17.9047 20.8554C17.6827 20.9386 17.4469 20.9386 17.2249 20.8693L14.6585 20.0508C14.5198 20.2727 14.4227 20.5224 14.3672 20.786L16.9891 21.6184C17.3775 21.7432 17.7937 21.7294 18.1683 21.5906L19.5278 21.1051C19.5 20.8276 19.4445 20.5779 19.3335 20.3421Z" fill="white"/>
<path fill-rule="evenodd" clip-rule="evenodd" d="M36.0346 21.3704C36.0346 21.1068 35.993 20.8571 35.9236 20.6074L30.9712 21.4398C30.9157 21.4536 30.8602 21.4536 30.8047 21.4536C30.8186 21.7172 30.8602 21.9808 30.9434 22.2305C30.9989 22.2305 31.0405 22.2305 31.096 22.2166L36.0346 21.3843V21.3704Z" fill="white"/>
</g>
</g>
</g>
<defs>
<clipPath id="clip0_290_10659">
<rect x="0.855469" y="0.789062" width="51.0508" height="35.5136" rx="17.7568" fill="white"/>
</clipPath>
<clipPath id="clip1_290_10659">
<rect width="51.0508" height="35.5136" fill="white" transform="translate(0.855469 0.787109)"/>
</clipPath>
<clipPath id="clip2_290_10659">
<rect width="48.8728" height="35.5136" fill="white" transform="translate(0.855469 0.785156)"/>
</clipPath>
</defs>
</svg>
