<svg width="52" height="37" viewBox="0 0 52 37" fill="none" xmlns="http://www.w3.org/2000/svg">
<g clip-path="url(#clip0_290_10408)">
<g clip-path="url(#clip1_290_10408)">
<g clip-path="url(#clip2_290_10408)">
<path d="M27.8869 3.83559C27.8869 3.76623 27.8592 3.71074 27.8037 3.66912L26.6661 2.89226L27.9008 1.10271C27.9563 1.01947 27.9424 0.922363 27.8869 0.853C27.8176 0.783638 27.7204 0.769765 27.6372 0.825255L24.3356 2.85064C24.2801 2.87839 24.2385 2.94775 24.2385 3.01711C24.2385 3.08647 24.2662 3.14196 24.3217 3.18358L25.4592 3.96044L24.2385 5.73612C24.183 5.81936 24.1968 5.91646 24.2523 5.98583C24.2662 5.9997 24.2662 5.9997 24.2801 6.01357C24.3494 6.05519 24.4327 6.05519 24.4882 6.01357L27.7898 3.98819C27.8453 3.96044 27.8869 3.89108 27.8869 3.83559Z" fill="#DDDDDD"/>
<path d="M20.9262 3.98626L24.2279 6.01164C24.2972 6.05326 24.3805 6.05326 24.4359 6.01164C24.4498 5.99777 24.4637 5.99777 24.4637 5.9839C24.533 5.91453 24.533 5.81743 24.4776 5.73419L23.2568 3.95851L24.3943 3.18165C24.4498 3.14003 24.4776 3.08454 24.4776 3.01518C24.4776 2.94582 24.4359 2.89033 24.3805 2.84871L21.0927 0.823324C21.0094 0.781707 20.9123 0.781707 20.843 0.851069C20.7736 0.920432 20.7736 1.01754 20.8291 1.10077L22.0499 2.87646L20.9123 3.65332C20.8568 3.69493 20.8291 3.75042 20.8291 3.81979C20.843 3.88915 20.8707 3.95851 20.9262 3.98626Z" fill="#BBBBBB"/>
<path fill-rule="evenodd" clip-rule="evenodd" d="M24.5218 2.79297C36.0915 2.79297 45.3167 8.12001 45.4693 19.551C45.608 30.7044 36.0915 36.3089 24.5218 36.3089C12.9522 36.3089 3.61597 31.0374 3.57436 19.551C3.53274 7.89805 12.9522 2.79297 24.5218 2.79297Z" fill="#DDDDDD"/>
<path d="M15.2542 4.09709C8.44278 6.23345 3.46255 11.2276 3.50417 19.5372C3.53191 28.4433 9.16415 33.6178 17.0853 35.4906C10.1907 26.2376 12.4658 17.8309 15.4068 12.268C16.7108 9.79869 18.431 7.56521 20.4425 5.63694C21.4552 4.66586 22.7731 4.05547 24.1742 3.91675C24.6875 3.86126 24.5349 3.25087 24.5071 3.0844C24.4794 2.9318 24.4378 2.86244 24.3129 2.80695C24.1881 2.75146 22.024 2.87631 21.5662 2.91793C18.1813 3.1815 15.7258 3.94449 15.2542 4.09709Z" fill="#BBBBBB"/>
<path fill-rule="evenodd" clip-rule="evenodd" d="M38.4457 15.0854C38.4457 15.0854 36.2955 12.3247 32.6192 13.6149H32.6054C32.425 13.6981 27.7361 15.8622 27.1812 16.1536C27.1812 16.1536 26.002 16.7085 24.5316 16.7778C23.0611 16.7085 21.8819 16.1536 21.8819 16.1536C21.327 15.8622 16.6381 13.6981 16.4578 13.6149H16.4439C12.7677 12.3247 10.6174 15.0854 10.6174 15.0854C8.28686 17.5686 8.3146 23.5199 8.3146 23.5199C8.20362 26.2527 12.518 27.0019 12.518 27.0019C16.7213 27.9868 23.7686 27.9452 24.5316 27.9452C25.2946 27.9452 32.3418 27.9868 36.5452 27.0019C36.5452 27.0019 40.8595 26.2527 40.7485 23.5199C40.7485 23.5199 40.7624 17.5686 38.4457 15.0854Z" fill="white"/>
<path fill-rule="evenodd" clip-rule="evenodd" d="M2.73941 15.0882C2.73941 15.0882 1.25506 20.0546 2.73941 23.9944C2.73941 23.9944 3.23882 25.0348 2.47584 24.7851C2.47584 24.7851 0.0897658 24.0221 0.117511 19.5552C0.117511 19.5552 -0.159939 16.0732 1.94868 14.8385C1.94868 14.8247 3.15559 14.0478 2.73941 15.0882Z" fill="#BBBBBB"/>
<path fill-rule="evenodd" clip-rule="evenodd" d="M47.1309 14.8246C49.2396 16.0593 48.9621 19.5413 48.9621 19.5413C48.9899 24.0082 46.6038 24.7712 46.6038 24.7712C45.8408 25.0348 46.3402 23.9805 46.3402 23.9805C47.8246 20.0407 46.3402 15.0744 46.3402 15.0744C45.9379 14.0478 47.1309 14.8246 47.1309 14.8246Z" fill="#DDDDDD"/>
<g opacity="0.4">
<path d="M15.2542 4.09709C8.44278 6.23345 3.46255 11.2276 3.50417 19.5372C3.53191 28.4433 9.16415 33.6178 17.0853 35.4906C10.1907 26.2376 12.4658 17.8309 15.4068 12.268C16.7108 9.79869 18.431 7.56521 20.4425 5.63694C21.4552 4.66586 22.7731 4.05547 24.1742 3.91675C24.6875 3.86126 24.5349 3.25087 24.5071 3.0844C24.4794 2.9318 24.4378 2.86244 24.3129 2.80695C24.1881 2.75146 22.024 2.87631 21.5662 2.91793C18.1813 3.1815 15.7258 3.94449 15.2542 4.09709Z" fill="#BBBBBB"/>
</g>
<path d="M16.2117 23.9899C17.6598 23.9899 18.8337 22.816 18.8337 21.368C18.8337 19.92 17.6598 18.7461 16.2117 18.7461C14.7637 18.7461 13.5898 19.92 13.5898 21.368C13.5898 22.816 14.7637 23.9899 16.2117 23.9899Z" fill="#8AD1C0"/>
<path d="M32.7039 23.9899C34.152 23.9899 35.3258 22.816 35.3258 21.368C35.3258 19.92 34.152 18.7461 32.7039 18.7461C31.2559 18.7461 30.082 19.92 30.082 21.368C30.082 22.816 31.2559 23.9899 32.7039 23.9899Z" fill="#8AD1C0"/>
<path d="M30.0829 22.2391C29.7777 22.2391 29.4725 22.1559 29.1951 22.0172L26.4899 20.5328C26.1847 20.3663 25.8241 20.3525 25.5189 20.5051L23.6322 21.4345C23.1189 21.6842 22.5085 21.6842 21.9952 21.4207L20.7051 20.7687C20.4554 20.6438 20.1502 20.6161 19.8728 20.7132L17.4451 21.5871C17.0705 21.7259 16.6543 21.7259 16.2659 21.6149L13.1723 20.6161C13.0059 20.5606 12.8116 20.5467 12.6452 20.5883L8.41406 21.49L8.51117 20.6715L12.4648 19.8253C12.77 19.756 13.103 19.7837 13.3943 19.8669L16.5017 20.8519C16.7237 20.9212 16.9595 20.9212 17.1815 20.838L19.6092 19.964C20.0808 19.7976 20.608 19.8253 21.0519 20.0473L22.3421 20.6993C22.6334 20.8519 22.9802 20.8519 23.2715 20.6993L25.1582 19.7698C25.6992 19.5063 26.3235 19.5201 26.8506 19.8114L29.5558 21.2958C29.7638 21.4068 29.9997 21.4484 30.2355 21.4068L35.4516 20.5328C35.8678 20.4635 36.2978 20.5328 36.6585 20.7548L37.5325 21.2542C37.7683 21.3929 38.0457 21.4207 38.3232 21.3513L40.5289 20.7687L40.626 21.5594L38.5174 22.1143C38.0457 22.2391 37.5602 22.1698 37.144 21.9339L36.2701 21.4345C36.062 21.3097 35.8123 21.2681 35.5764 21.3097L30.3604 22.1836C30.2771 22.2253 30.18 22.2391 30.0829 22.2391Z" fill="#47A4DF"/>
<path d="M18.607 20.3284L17.1781 20.8417C16.9562 20.925 16.7203 20.9249 16.4984 20.8556L13.9319 20.0371C13.7932 20.2591 13.6961 20.5088 13.6406 20.7724L16.2625 21.6047C16.651 21.7296 17.0671 21.7157 17.4417 21.577L18.8012 21.0914C18.7873 20.8278 18.718 20.5781 18.607 20.3284Z" fill="white"/>
<path fill-rule="evenodd" clip-rule="evenodd" d="M35.3276 21.3685C35.3276 21.1049 35.286 20.8552 35.2166 20.6055L30.2641 21.4378C30.2086 21.4517 30.1531 21.4517 30.0977 21.4517C30.1115 21.7153 30.1531 21.9788 30.2364 22.2286C30.2919 22.2286 30.3335 22.2286 30.389 22.2147L35.3276 21.3823C35.3276 21.3685 35.3276 21.3685 35.3276 21.3685Z" fill="white"/>
<path d="M27.8908 3.83559C27.8908 3.76623 27.8631 3.71074 27.8076 3.66912L26.67 2.89226L27.9047 1.10271C27.9602 1.01947 27.9463 0.922363 27.8908 0.853C27.8215 0.783638 27.7244 0.769765 27.6411 0.825255L24.3395 2.85064C24.284 2.87839 24.2424 2.94775 24.2424 3.01711C24.2424 3.08647 24.2701 3.14196 24.3256 3.18358L25.4631 3.96044L24.2424 5.73612C24.1869 5.81936 24.2007 5.91646 24.2562 5.98583C24.2701 5.9997 24.2701 5.9997 24.284 6.01357C24.3533 6.05519 24.4366 6.05519 24.4921 6.01357L27.7937 3.98819C27.8492 3.96044 27.8908 3.89108 27.8908 3.83559Z" fill="#DDDDDD"/>
<path d="M20.9262 3.98626L24.2279 6.01164C24.2972 6.05326 24.3805 6.05326 24.4359 6.01164C24.4498 5.99777 24.4637 5.99777 24.4637 5.9839C24.533 5.91453 24.533 5.81743 24.4776 5.73419L23.2568 3.95851L24.3943 3.18165C24.4498 3.14003 24.4776 3.08454 24.4776 3.01518C24.4776 2.94582 24.4359 2.89033 24.3805 2.84871L21.0927 0.823324C21.0094 0.781707 20.9123 0.781707 20.843 0.851069C20.7736 0.920432 20.7736 1.01754 20.8291 1.10077L22.0499 2.87646L20.9123 3.65332C20.8568 3.69493 20.8291 3.75042 20.8291 3.81979C20.843 3.88915 20.8707 3.95851 20.9262 3.98626Z" fill="#BBBBBB"/>
<path fill-rule="evenodd" clip-rule="evenodd" d="M24.5218 2.79492C36.0915 2.79492 45.3167 8.12196 45.4693 19.5529C45.608 30.7064 36.0915 36.3109 24.5218 36.3109C12.9522 36.3109 3.61597 31.0393 3.57436 19.5529C3.53274 7.9 12.9522 2.79492 24.5218 2.79492Z" fill="#DDDDDD"/>
<path d="M15.2542 4.09709C8.44278 6.23345 3.46255 11.2276 3.50417 19.5372C3.53191 28.4433 9.16415 33.6178 17.0853 35.4906C10.1907 26.2376 12.4658 17.8309 15.4068 12.268C16.7108 9.79869 18.431 7.56521 20.4425 5.63694C21.4552 4.66586 22.7731 4.05547 24.1742 3.91675C24.6875 3.86126 24.5349 3.25087 24.5071 3.0844C24.4794 2.9318 24.4378 2.86244 24.3129 2.80695C24.1881 2.75146 22.024 2.87631 21.5662 2.91793C18.1813 3.1815 15.7258 3.94449 15.2542 4.09709Z" fill="#BBBBBB"/>
<path fill-rule="evenodd" clip-rule="evenodd" d="M38.4457 15.0854C38.4457 15.0854 36.2955 12.3247 32.6192 13.6149H32.6054C32.425 13.6981 27.7361 15.8622 27.1812 16.1536C27.1812 16.1536 26.002 16.7085 24.5316 16.7778C23.0611 16.7085 21.8819 16.1536 21.8819 16.1536C21.327 15.8622 16.6381 13.6981 16.4578 13.6149H16.4439C12.7677 12.3247 10.6174 15.0854 10.6174 15.0854C8.28686 17.5686 8.3146 23.5199 8.3146 23.5199C8.20362 26.2527 12.518 27.0019 12.518 27.0019C16.7213 27.9868 23.7686 27.9452 24.5316 27.9452C25.2946 27.9452 32.3418 27.9868 36.5452 27.0019C36.5452 27.0019 40.8595 26.2527 40.7485 23.5199C40.7485 23.5199 40.7624 17.5686 38.4457 15.0854Z" fill="white"/>
<path fill-rule="evenodd" clip-rule="evenodd" d="M2.73941 15.0882C2.73941 15.0882 1.25506 20.0546 2.73941 23.9944C2.73941 23.9944 3.23882 25.0348 2.47584 24.7851C2.47584 24.7851 0.0897658 24.0221 0.117511 19.5552C0.117511 19.5552 -0.159939 16.0732 1.94868 14.8385C1.94868 14.8247 3.15559 14.0478 2.73941 15.0882Z" fill="#BBBBBB"/>
<path fill-rule="evenodd" clip-rule="evenodd" d="M47.1309 14.8246C49.2396 16.0593 48.9621 19.5413 48.9621 19.5413C48.9899 24.0082 46.6038 24.7712 46.6038 24.7712C45.8408 25.0348 46.3402 23.9805 46.3402 23.9805C47.8246 20.0407 46.3402 15.0744 46.3402 15.0744C45.9379 14.0478 47.1309 14.8246 47.1309 14.8246Z" fill="#DDDDDD"/>
<g opacity="0.4">
<path d="M15.2542 4.09709C8.44278 6.23345 3.46255 11.2276 3.50417 19.5372C3.53191 28.4433 9.16415 33.6178 17.0853 35.4906C10.1907 26.2376 12.4658 17.8309 15.4068 12.268C16.7108 9.79869 18.431 7.56521 20.4425 5.63694C21.4552 4.66586 22.7731 4.05547 24.1742 3.91675C24.6875 3.86126 24.5349 3.25087 24.5071 3.0844C24.4794 2.9318 24.4378 2.86244 24.3129 2.80695C24.1881 2.75146 22.024 2.87631 21.5662 2.91793C18.1813 3.1815 15.7258 3.94449 15.2542 4.09709Z" fill="#BBBBBB"/>
</g>
<path d="M16.2117 23.9899C17.6598 23.9899 18.8337 22.816 18.8337 21.368C18.8337 19.92 17.6598 18.7461 16.2117 18.7461C14.7637 18.7461 13.5898 19.92 13.5898 21.368C13.5898 22.816 14.7637 23.9899 16.2117 23.9899Z" fill="#8AD1C0"/>
<path d="M32.7039 23.9899C34.152 23.9899 35.3258 22.816 35.3258 21.368C35.3258 19.92 34.152 18.7461 32.7039 18.7461C31.2559 18.7461 30.082 19.92 30.082 21.368C30.082 22.816 31.2559 23.9899 32.7039 23.9899Z" fill="#8AD1C0"/>
<path d="M30.0829 22.2391C29.7777 22.2391 29.4725 22.1559 29.1951 22.0172L26.4899 20.5328C26.1847 20.3663 25.8241 20.3525 25.5189 20.5051L23.6322 21.4345C23.1189 21.6842 22.5085 21.6842 21.9952 21.4207L20.7051 20.7687C20.4554 20.6438 20.1502 20.6161 19.8728 20.7132L17.4451 21.5871C17.0705 21.7259 16.6543 21.7259 16.2659 21.6149L13.1723 20.6161C13.0059 20.5606 12.8116 20.5467 12.6452 20.5883L8.41406 21.49L8.51117 20.6715L12.4648 19.8253C12.77 19.756 13.103 19.7837 13.3943 19.8669L16.5017 20.8519C16.7237 20.9212 16.9595 20.9212 17.1815 20.838L19.6092 19.964C20.0808 19.7976 20.608 19.8253 21.0519 20.0473L22.3421 20.6993C22.6334 20.8519 22.9802 20.8519 23.2715 20.6993L25.1582 19.7698C25.6992 19.5063 26.3235 19.5201 26.8506 19.8114L29.5558 21.2958C29.7638 21.4068 29.9997 21.4484 30.2355 21.4068L35.4516 20.5328C35.8678 20.4635 36.2978 20.5328 36.6585 20.7548L37.5325 21.2542C37.7683 21.3929 38.0457 21.4207 38.3232 21.3513L40.5289 20.7687L40.626 21.5594L38.5174 22.1143C38.0457 22.2391 37.5602 22.1698 37.144 21.9339L36.2701 21.4345C36.062 21.3097 35.8123 21.2681 35.5764 21.3097L30.3604 22.1836C30.2771 22.2253 30.18 22.2391 30.0829 22.2391Z" fill="#47A4DF"/>
<path d="M18.607 20.3284L17.1781 20.8417C16.9562 20.925 16.7203 20.9249 16.4984 20.8556L13.9319 20.0371C13.7932 20.2591 13.6961 20.5088 13.6406 20.7724L16.2625 21.6047C16.651 21.7296 17.0671 21.7157 17.4417 21.577L18.8012 21.0914C18.7873 20.8278 18.718 20.5781 18.607 20.3284Z" fill="white"/>
<path fill-rule="evenodd" clip-rule="evenodd" d="M35.3276 21.3685C35.3276 21.1049 35.286 20.8552 35.2166 20.6055L30.2641 21.4378C30.2086 21.4517 30.1531 21.4517 30.0977 21.4517C30.1115 21.7153 30.1531 21.9788 30.2364 22.2286C30.2919 22.2286 30.3335 22.2286 30.389 22.2147L35.3276 21.3823C35.3276 21.3685 35.3276 21.3685 35.3276 21.3685Z" fill="white"/>
<path fill-rule="evenodd" clip-rule="evenodd" d="M38.4775 15.0854C38.4775 15.0854 36.3273 12.3247 32.651 13.6149H32.6372C32.4568 13.6981 27.7679 15.8622 27.213 16.1536C27.213 16.1536 26.0339 16.7085 24.5634 16.7778C23.0929 16.7085 21.9137 16.1536 21.9137 16.1536C21.3588 15.8622 16.6699 13.6981 16.4896 13.6149H16.4757C12.7995 12.3247 10.6492 15.0854 10.6492 15.0854C8.31866 17.5686 8.34641 23.5199 8.34641 23.5199C8.22156 26.2527 12.5359 27.0019 12.5359 27.0019C16.7393 27.9868 23.7865 27.9452 24.5495 27.9452C25.3125 27.9452 32.3597 27.9868 36.5631 27.0019C36.5631 27.0019 40.8774 26.2527 40.7665 23.5199C40.7803 23.5199 40.7942 17.5686 38.4775 15.0854Z" fill="#202325"/>
<path d="M30.1142 22.245C29.809 22.245 29.5038 22.1618 29.2263 22.023L26.5212 20.5248C26.216 20.3583 25.8553 20.3445 25.5501 20.4971L23.6634 21.4265C23.1502 21.6762 22.5398 21.6762 22.0265 21.4126L20.7364 20.7606C20.4866 20.6358 20.1815 20.608 19.904 20.7051L17.4763 21.5791C17.1018 21.7178 16.6856 21.7178 16.2972 21.6069L13.2036 20.6219C13.0371 20.5664 12.8429 20.5526 12.6764 20.5942L8.44531 21.4959L8.54242 20.6774L12.4961 19.8312C12.8013 19.7618 13.1342 19.7896 13.4255 19.8728L16.533 20.8577C16.7549 20.9271 16.9908 20.9271 17.2127 20.8439L19.6404 19.9699C20.1121 19.8034 20.6392 19.8312 21.0832 20.0531L22.3733 20.7051C22.6646 20.8577 23.0114 20.8577 23.3028 20.7051L25.1894 19.7757C25.7305 19.5121 26.3547 19.526 26.8819 19.8173L29.587 21.3017C29.7951 21.4126 30.0309 21.4543 30.2668 21.4126L35.4828 20.5387C35.899 20.4693 36.329 20.5387 36.6897 20.7606L37.5637 21.26C37.7995 21.3988 38.077 21.4265 38.3544 21.3572L40.5602 20.7745L40.6573 21.5652L38.5486 22.1201C38.077 22.245 37.5914 22.1756 37.1753 21.9398L36.3013 21.4404C36.0932 21.3155 35.8435 21.2739 35.6077 21.3155L30.3916 22.1895C30.3084 22.2311 30.2113 22.245 30.1142 22.245Z" fill="#7289DA"/>
<path d="M16.243 23.9899C17.691 23.9899 18.8649 22.816 18.8649 21.368C18.8649 19.92 17.691 18.7461 16.243 18.7461C14.795 18.7461 13.6211 19.92 13.6211 21.368C13.6211 22.816 14.795 23.9899 16.243 23.9899Z" fill="#8AD1C0"/>
<path d="M32.7313 23.9899C34.1793 23.9899 35.3532 22.816 35.3532 21.368C35.3532 19.92 34.1793 18.7461 32.7313 18.7461C31.2832 18.7461 30.1094 19.92 30.1094 21.368C30.1094 22.816 31.2832 23.9899 32.7313 23.9899Z" fill="#8AD1C0"/>
<path d="M18.6382 20.3421L17.2094 20.8554C16.9874 20.9386 16.7516 20.9386 16.5296 20.8693L13.9632 20.0508C13.8245 20.2727 13.7274 20.5224 13.6719 20.786L16.2938 21.6184C16.6822 21.7432 17.0984 21.7294 17.4729 21.5906L18.8324 21.1051C18.8047 20.8276 18.7492 20.5779 18.6382 20.3421Z" fill="white"/>
<path fill-rule="evenodd" clip-rule="evenodd" d="M35.3393 21.3704C35.3393 21.1068 35.2977 20.8571 35.2283 20.6074L30.2758 21.4398C30.2204 21.4536 30.1649 21.4536 30.1094 21.4536C30.1232 21.7172 30.1649 21.9808 30.2481 22.2305C30.3036 22.2305 30.3452 22.2305 30.4007 22.2166L35.3393 21.3843V21.3704Z" fill="white"/>
</g>
</g>
</g>
<defs>
<clipPath id="clip0_290_10408">
<rect x="0.160156" y="0.789062" width="51.0508" height="35.5136" rx="17.7568" fill="white"/>
</clipPath>
<clipPath id="clip1_290_10408">
<rect width="51.0508" height="35.5136" fill="white" transform="translate(0.160156 0.787109)"/>
</clipPath>
<clipPath id="clip2_290_10408">
<rect width="48.8728" height="35.5136" fill="white" transform="translate(0.160156 0.785156)"/>
</clipPath>
</defs>
</svg>
