<svg width="52" height="37" viewBox="0 0 52 37" fill="none" xmlns="http://www.w3.org/2000/svg">
<g clip-path="url(#clip0_290_11221)">
<g clip-path="url(#clip1_290_11221)">
<g clip-path="url(#clip2_290_11221)">
<path d="M27.9807 3.83559C27.9807 3.76623 27.9529 3.71074 27.8974 3.66912L26.7599 2.89226L27.9945 1.10271C28.05 1.01947 28.0362 0.922363 27.9807 0.853C27.9113 0.783638 27.8142 0.769765 27.731 0.825255L24.4293 2.85064C24.3738 2.87839 24.3322 2.94775 24.3322 3.01711C24.3322 3.08647 24.3599 3.14196 24.4154 3.18358L25.553 3.96044L24.3322 5.73612C24.2767 5.81936 24.2906 5.91646 24.3461 5.98583C24.3599 5.9997 24.3599 5.9997 24.3738 6.01357C24.4432 6.05519 24.5264 6.05519 24.5819 6.01357L27.8836 3.98819C27.9391 3.96044 27.9807 3.89108 27.9807 3.83559Z" fill="#DDDDDD"/>
<path d="M21.0199 3.98626L24.3216 6.01164C24.391 6.05326 24.4742 6.05326 24.5297 6.01164C24.5436 5.99777 24.5574 5.99777 24.5574 5.9839C24.6268 5.91453 24.6268 5.81743 24.5713 5.73419L23.3505 3.95851L24.4881 3.18165C24.5436 3.14003 24.5713 3.08454 24.5713 3.01518C24.5713 2.94582 24.5297 2.89033 24.4742 2.84871L21.1864 0.823324C21.1032 0.781707 21.0061 0.781707 20.9367 0.851069C20.8674 0.920432 20.8674 1.01754 20.9228 1.10077L22.1436 2.87646L21.0061 3.65332C20.9506 3.69493 20.9228 3.75042 20.9228 3.81979C20.9367 3.88915 20.9645 3.95851 21.0199 3.98626Z" fill="#BBBBBB"/>
<path fill-rule="evenodd" clip-rule="evenodd" d="M24.6156 2.79297C36.1853 2.79297 45.4105 8.12001 45.5631 19.551C45.7018 30.7044 36.1853 36.3089 24.6156 36.3089C13.0459 36.3089 3.70972 31.0374 3.66811 19.551C3.62649 7.89805 13.0459 2.79297 24.6156 2.79297Z" fill="#DDDDDD"/>
<path d="M15.3518 4.09709C8.54043 6.23345 3.5602 11.2276 3.60182 19.5372C3.62957 28.4433 9.2618 33.6178 17.183 35.4906C10.2884 26.2376 12.5635 17.8309 15.5044 12.268C16.8084 9.79869 18.5286 7.56521 20.5401 5.63694C21.5528 4.66586 22.8707 4.05547 24.2719 3.91675C24.7851 3.86126 24.6325 3.25087 24.6048 3.0844C24.577 2.9318 24.5354 2.86244 24.4106 2.80695C24.2857 2.75146 22.1216 2.87631 21.6638 2.91793C18.2789 3.1815 15.8235 3.94449 15.3518 4.09709Z" fill="#BBBBBB"/>
<path fill-rule="evenodd" clip-rule="evenodd" d="M38.5394 15.0854C38.5394 15.0854 36.3892 12.3247 32.713 13.6149H32.6991C32.5188 13.6981 27.8299 15.8622 27.275 16.1536C27.275 16.1536 26.0958 16.7085 24.6253 16.7778C23.1548 16.7085 21.9757 16.1536 21.9757 16.1536C21.4208 15.8622 16.7319 13.6981 16.5515 13.6149H16.5376C12.8614 12.3247 10.7112 15.0854 10.7112 15.0854C8.38061 17.5686 8.40835 23.5199 8.40835 23.5199C8.29737 26.2527 12.6117 27.0019 12.6117 27.0019C16.8151 27.9868 23.8623 27.9452 24.6253 27.9452C25.3883 27.9452 32.4355 27.9868 36.6389 27.0019C36.6389 27.0019 40.9533 26.2527 40.8423 23.5199C40.8423 23.5199 40.8561 17.5686 38.5394 15.0854Z" fill="white"/>
<path fill-rule="evenodd" clip-rule="evenodd" d="M2.83316 15.0882C2.83316 15.0882 1.34881 20.0546 2.83316 23.9944C2.83316 23.9944 3.33257 25.0348 2.56959 24.7851C2.56959 24.7851 0.183516 24.0221 0.211261 19.5552C0.211261 19.5552 -0.0661893 16.0732 2.04243 14.8385C2.04243 14.8247 3.24934 14.0478 2.83316 15.0882Z" fill="#BBBBBB"/>
<path fill-rule="evenodd" clip-rule="evenodd" d="M47.2247 14.8246C49.3333 16.0593 49.0559 19.5413 49.0559 19.5413C49.0836 24.0082 46.6975 24.7712 46.6975 24.7712C45.9345 25.0348 46.434 23.9805 46.434 23.9805C47.9183 20.0407 46.434 15.0744 46.434 15.0744C46.0317 14.0478 47.2247 14.8246 47.2247 14.8246Z" fill="#DDDDDD"/>
<g opacity="0.4">
<path d="M15.3518 4.09709C8.54043 6.23345 3.5602 11.2276 3.60182 19.5372C3.62957 28.4433 9.2618 33.6178 17.183 35.4906C10.2884 26.2376 12.5635 17.8309 15.5044 12.268C16.8084 9.79869 18.5286 7.56521 20.5401 5.63694C21.5528 4.66586 22.8707 4.05547 24.2719 3.91675C24.7851 3.86126 24.6325 3.25087 24.6048 3.0844C24.577 2.9318 24.5354 2.86244 24.4106 2.80695C24.2857 2.75146 22.1216 2.87631 21.6638 2.91793C18.2789 3.1815 15.8235 3.94449 15.3518 4.09709Z" fill="#BBBBBB"/>
</g>
<path d="M16.3016 23.9899C17.7496 23.9899 18.9235 22.816 18.9235 21.368C18.9235 19.92 17.7496 18.7461 16.3016 18.7461C14.8536 18.7461 13.6797 19.92 13.6797 21.368C13.6797 22.816 14.8536 23.9899 16.3016 23.9899Z" fill="#8AD1C0"/>
<path d="M32.7938 23.9899C34.2418 23.9899 35.4157 22.816 35.4157 21.368C35.4157 19.92 34.2418 18.7461 32.7938 18.7461C31.3457 18.7461 30.1719 19.92 30.1719 21.368C30.1719 22.816 31.3457 23.9899 32.7938 23.9899Z" fill="#8AD1C0"/>
<path d="M30.1728 22.2391C29.8676 22.2391 29.5624 22.1559 29.2849 22.0172L26.5798 20.5328C26.2746 20.3663 25.9139 20.3525 25.6087 20.5051L23.722 21.4345C23.2088 21.6842 22.5984 21.6842 22.0851 21.4207L20.7949 20.7687C20.5452 20.6438 20.24 20.6161 19.9626 20.7132L17.5349 21.5871C17.1603 21.7259 16.7442 21.7259 16.3557 21.6149L13.2622 20.6161C13.0957 20.5606 12.9015 20.5467 12.735 20.5883L8.50391 21.49L8.60101 20.6715L12.5547 19.8253C12.8599 19.756 13.1928 19.7837 13.4841 19.8669L16.5916 20.8519C16.8135 20.9212 17.0494 20.9212 17.2713 20.838L19.699 19.964C20.1707 19.7976 20.6978 19.8253 21.1418 20.0473L22.4319 20.6993C22.7232 20.8519 23.07 20.8519 23.3614 20.6993L25.248 19.7698C25.789 19.5063 26.4133 19.5201 26.9405 19.8114L29.6456 21.2958C29.8537 21.4068 30.0895 21.4484 30.3254 21.4068L35.5414 20.5328C35.9576 20.4635 36.3876 20.5328 36.7483 20.7548L37.6223 21.2542C37.8581 21.3929 38.1356 21.4207 38.413 21.3513L40.6188 20.7687L40.7159 21.5594L38.6072 22.1143C38.1356 22.2391 37.65 22.1698 37.2339 21.9339L36.3599 21.4345C36.1518 21.3097 35.9021 21.2681 35.6663 21.3097L30.4502 22.1836C30.367 22.2253 30.2699 22.2391 30.1728 22.2391Z" fill="#47A4DF"/>
<path d="M18.7007 20.3284L17.2719 20.8417C17.0499 20.925 16.8141 20.9249 16.5921 20.8556L14.0257 20.0371C13.887 20.2591 13.7899 20.5088 13.7344 20.7724L16.3563 21.6047C16.7447 21.7296 17.1609 21.7157 17.5354 21.577L18.8949 21.0914C18.8811 20.8278 18.8117 20.5781 18.7007 20.3284Z" fill="white"/>
<path fill-rule="evenodd" clip-rule="evenodd" d="M35.4213 21.3685C35.4213 21.1049 35.3797 20.8552 35.3104 20.6055L30.3579 21.4378C30.3024 21.4517 30.2469 21.4517 30.1914 21.4517C30.2053 21.7153 30.2469 21.9788 30.3301 22.2286C30.3856 22.2286 30.4272 22.2286 30.4827 22.2147L35.4213 21.3823C35.4213 21.3685 35.4213 21.3685 35.4213 21.3685Z" fill="white"/>
<path d="M27.9807 3.83559C27.9807 3.76623 27.9529 3.71074 27.8974 3.66912L26.7599 2.89226L27.9945 1.10271C28.05 1.01947 28.0362 0.922363 27.9807 0.853C27.9113 0.783638 27.8142 0.769765 27.731 0.825255L24.4293 2.85064C24.3738 2.87839 24.3322 2.94775 24.3322 3.01711C24.3322 3.08647 24.3599 3.14196 24.4154 3.18358L25.553 3.96044L24.3322 5.73612C24.2767 5.81936 24.2906 5.91646 24.3461 5.98583C24.3599 5.9997 24.3599 5.9997 24.3738 6.01357C24.4432 6.05519 24.5264 6.05519 24.5819 6.01357L27.8836 3.98819C27.9391 3.96044 27.9807 3.89108 27.9807 3.83559Z" fill="#DDDDDD"/>
<path d="M21.0199 3.98626L24.3216 6.01164C24.391 6.05326 24.4742 6.05326 24.5297 6.01164C24.5436 5.99777 24.5574 5.99777 24.5574 5.9839C24.6268 5.91453 24.6268 5.81743 24.5713 5.73419L23.3505 3.95851L24.4881 3.18165C24.5436 3.14003 24.5713 3.08454 24.5713 3.01518C24.5713 2.94582 24.5297 2.89033 24.4742 2.84871L21.1864 0.823324C21.1032 0.781707 21.0061 0.781707 20.9367 0.851069C20.8674 0.920432 20.8674 1.01754 20.9228 1.10077L22.1436 2.87646L21.0061 3.65332C20.9506 3.69493 20.9228 3.75042 20.9228 3.81979C20.9367 3.88915 20.9645 3.95851 21.0199 3.98626Z" fill="#BBBBBB"/>
<path fill-rule="evenodd" clip-rule="evenodd" d="M24.6156 2.79492C36.1853 2.79492 45.4105 8.12196 45.5631 19.5529C45.7018 30.7064 36.1853 36.3109 24.6156 36.3109C13.0459 36.3109 3.70972 31.0393 3.66811 19.5529C3.62649 7.9 13.0459 2.79492 24.6156 2.79492Z" fill="#DDDDDD"/>
<path d="M15.3518 4.09709C8.54043 6.23345 3.5602 11.2276 3.60182 19.5372C3.62957 28.4433 9.2618 33.6178 17.183 35.4906C10.2884 26.2376 12.5635 17.8309 15.5044 12.268C16.8084 9.79869 18.5286 7.56521 20.5401 5.63694C21.5528 4.66586 22.8707 4.05547 24.2719 3.91675C24.7851 3.86126 24.6325 3.25087 24.6048 3.0844C24.577 2.9318 24.5354 2.86244 24.4106 2.80695C24.2857 2.75146 22.1216 2.87631 21.6638 2.91793C18.2789 3.1815 15.8235 3.94449 15.3518 4.09709Z" fill="#BBBBBB"/>
<path fill-rule="evenodd" clip-rule="evenodd" d="M38.5394 15.0854C38.5394 15.0854 36.3892 12.3247 32.713 13.6149H32.6991C32.5188 13.6981 27.8299 15.8622 27.275 16.1536C27.275 16.1536 26.0958 16.7085 24.6253 16.7778C23.1548 16.7085 21.9757 16.1536 21.9757 16.1536C21.4208 15.8622 16.7319 13.6981 16.5515 13.6149H16.5376C12.8614 12.3247 10.7112 15.0854 10.7112 15.0854C8.38061 17.5686 8.40835 23.5199 8.40835 23.5199C8.29737 26.2527 12.6117 27.0019 12.6117 27.0019C16.8151 27.9868 23.8623 27.9452 24.6253 27.9452C25.3883 27.9452 32.4355 27.9868 36.6389 27.0019C36.6389 27.0019 40.9533 26.2527 40.8423 23.5199C40.8423 23.5199 40.8561 17.5686 38.5394 15.0854Z" fill="white"/>
<path fill-rule="evenodd" clip-rule="evenodd" d="M2.83316 15.0882C2.83316 15.0882 1.34881 20.0546 2.83316 23.9944C2.83316 23.9944 3.33257 25.0348 2.56959 24.7851C2.56959 24.7851 0.183516 24.0221 0.211261 19.5552C0.211261 19.5552 -0.0661893 16.0732 2.04243 14.8385C2.04243 14.8247 3.24934 14.0478 2.83316 15.0882Z" fill="#BBBBBB"/>
<path fill-rule="evenodd" clip-rule="evenodd" d="M47.2247 14.8246C49.3333 16.0593 49.0559 19.5413 49.0559 19.5413C49.0836 24.0082 46.6975 24.7712 46.6975 24.7712C45.9345 25.0348 46.434 23.9805 46.434 23.9805C47.9183 20.0407 46.434 15.0744 46.434 15.0744C46.0317 14.0478 47.2247 14.8246 47.2247 14.8246Z" fill="#DDDDDD"/>
<g opacity="0.4">
<path d="M15.3518 4.09709C8.54043 6.23345 3.5602 11.2276 3.60182 19.5372C3.62957 28.4433 9.2618 33.6178 17.183 35.4906C10.2884 26.2376 12.5635 17.8309 15.5044 12.268C16.8084 9.79869 18.5286 7.56521 20.5401 5.63694C21.5528 4.66586 22.8707 4.05547 24.2719 3.91675C24.7851 3.86126 24.6325 3.25087 24.6048 3.0844C24.577 2.9318 24.5354 2.86244 24.4106 2.80695C24.2857 2.75146 22.1216 2.87631 21.6638 2.91793C18.2789 3.1815 15.8235 3.94449 15.3518 4.09709Z" fill="#BBBBBB"/>
</g>
<path d="M16.3016 23.9899C17.7496 23.9899 18.9235 22.816 18.9235 21.368C18.9235 19.92 17.7496 18.7461 16.3016 18.7461C14.8536 18.7461 13.6797 19.92 13.6797 21.368C13.6797 22.816 14.8536 23.9899 16.3016 23.9899Z" fill="#8AD1C0"/>
<path d="M32.7938 23.9899C34.2418 23.9899 35.4157 22.816 35.4157 21.368C35.4157 19.92 34.2418 18.7461 32.7938 18.7461C31.3457 18.7461 30.1719 19.92 30.1719 21.368C30.1719 22.816 31.3457 23.9899 32.7938 23.9899Z" fill="#8AD1C0"/>
<path d="M30.1728 22.2391C29.8676 22.2391 29.5624 22.1559 29.2849 22.0172L26.5798 20.5328C26.2746 20.3663 25.9139 20.3525 25.6087 20.5051L23.722 21.4345C23.2088 21.6842 22.5984 21.6842 22.0851 21.4207L20.7949 20.7687C20.5452 20.6438 20.24 20.6161 19.9626 20.7132L17.5349 21.5871C17.1603 21.7259 16.7442 21.7259 16.3557 21.6149L13.2622 20.6161C13.0957 20.5606 12.9015 20.5467 12.735 20.5883L8.50391 21.49L8.60101 20.6715L12.5547 19.8253C12.8599 19.756 13.1928 19.7837 13.4841 19.8669L16.5916 20.8519C16.8135 20.9212 17.0494 20.9212 17.2713 20.838L19.699 19.964C20.1707 19.7976 20.6978 19.8253 21.1418 20.0473L22.4319 20.6993C22.7232 20.8519 23.07 20.8519 23.3614 20.6993L25.248 19.7698C25.789 19.5063 26.4133 19.5201 26.9405 19.8114L29.6456 21.2958C29.8537 21.4068 30.0895 21.4484 30.3254 21.4068L35.5414 20.5328C35.9576 20.4635 36.3876 20.5328 36.7483 20.7548L37.6223 21.2542C37.8581 21.3929 38.1356 21.4207 38.413 21.3513L40.6188 20.7687L40.7159 21.5594L38.6072 22.1143C38.1356 22.2391 37.65 22.1698 37.2339 21.9339L36.3599 21.4345C36.1518 21.3097 35.9021 21.2681 35.6663 21.3097L30.4502 22.1836C30.367 22.2253 30.2699 22.2391 30.1728 22.2391Z" fill="#47A4DF"/>
<path d="M18.7007 20.3284L17.2719 20.8417C17.0499 20.925 16.8141 20.9249 16.5921 20.8556L14.0257 20.0371C13.887 20.2591 13.7899 20.5088 13.7344 20.7724L16.3563 21.6047C16.7447 21.7296 17.1609 21.7157 17.5354 21.577L18.8949 21.0914C18.8811 20.8278 18.8117 20.5781 18.7007 20.3284Z" fill="white"/>
<path fill-rule="evenodd" clip-rule="evenodd" d="M35.4213 21.3685C35.4213 21.1049 35.3797 20.8552 35.3104 20.6055L30.3579 21.4378C30.3024 21.4517 30.2469 21.4517 30.1914 21.4517C30.2053 21.7153 30.2469 21.9788 30.3301 22.2286C30.3856 22.2286 30.4272 22.2286 30.4827 22.2147L35.4213 21.3823C35.4213 21.3685 35.4213 21.3685 35.4213 21.3685Z" fill="white"/>
<path fill-rule="evenodd" clip-rule="evenodd" d="M38.5712 15.0854C38.5712 15.0854 36.421 12.3247 32.7448 13.6149H32.7309C32.5506 13.6981 27.8617 15.8622 27.3068 16.1536C27.3068 16.1536 26.1276 16.7085 24.6571 16.7778C23.1866 16.7085 22.0075 16.1536 22.0075 16.1536C21.4526 15.8622 16.7637 13.6981 16.5833 13.6149H16.5694C12.8932 12.3247 10.743 15.0854 10.743 15.0854C8.41241 17.5686 8.44016 23.5199 8.44016 23.5199C8.31531 26.2527 12.6297 27.0019 12.6297 27.0019C16.833 27.9868 23.8803 27.9452 24.6432 27.9452C25.4062 27.9452 32.4535 27.9868 36.6568 27.0019C36.6568 27.0019 40.9712 26.2527 40.8602 23.5199C40.8741 23.5199 40.888 17.5686 38.5712 15.0854Z" fill="#202325"/>
<path d="M30.2079 22.245C29.9027 22.245 29.5975 22.1618 29.3201 22.023L26.6149 20.5248C26.3097 20.3583 25.9491 20.3445 25.6439 20.4971L23.7572 21.4265C23.2439 21.6762 22.6335 21.6762 22.1202 21.4126L20.8301 20.7606C20.5804 20.6358 20.2752 20.608 19.9978 20.7051L17.5701 21.5791C17.1955 21.7178 16.7793 21.7178 16.3909 21.6069L13.2973 20.6219C13.1309 20.5664 12.9366 20.5526 12.7702 20.5942L8.53906 21.4959L8.63617 20.6774L12.5898 19.8312C12.895 19.7618 13.228 19.7896 13.5193 19.8728L16.6267 20.8577C16.8487 20.9271 17.0845 20.9271 17.3065 20.8439L19.7342 19.9699C20.2058 19.8034 20.733 19.8312 21.1769 20.0531L22.4671 20.7051C22.7584 20.8577 23.1052 20.8577 23.3965 20.7051L25.2832 19.7757C25.8242 19.5121 26.4485 19.526 26.9756 19.8173L29.6808 21.3017C29.8888 21.4126 30.1247 21.4543 30.3605 21.4126L35.5766 20.5387C35.9928 20.4693 36.4228 20.5387 36.7835 20.7606L37.6574 21.26C37.8933 21.3988 38.1707 21.4265 38.4482 21.3572L40.6539 20.7745L40.751 21.5652L38.6424 22.1201C38.1707 22.245 37.6852 22.1756 37.269 21.9398L36.3951 21.4404C36.187 21.3155 35.9373 21.2739 35.7014 21.3155L30.4854 22.1895C30.4021 22.2311 30.305 22.245 30.2079 22.245Z" fill="#7289DA"/>
<path d="M16.3367 23.9899C17.7848 23.9899 18.9587 22.816 18.9587 21.368C18.9587 19.92 17.7848 18.7461 16.3367 18.7461C14.8887 18.7461 13.7148 19.92 13.7148 21.368C13.7148 22.816 14.8887 23.9899 16.3367 23.9899Z" fill="#8AD1C0"/>
<path d="M32.825 23.9899C34.2731 23.9899 35.4469 22.816 35.4469 21.368C35.4469 19.92 34.2731 18.7461 32.825 18.7461C31.377 18.7461 30.2031 19.92 30.2031 21.368C30.2031 22.816 31.377 23.9899 32.825 23.9899Z" fill="#8AD1C0"/>
<path d="M18.732 20.3421L17.3031 20.8554C17.0812 20.9386 16.8453 20.9386 16.6234 20.8693L14.0569 20.0508C13.9182 20.2727 13.8211 20.5224 13.7656 20.786L16.3875 21.6184C16.776 21.7432 17.1921 21.7294 17.5667 21.5906L18.9262 21.1051C18.8985 20.8276 18.843 20.5779 18.732 20.3421Z" fill="white"/>
<path fill-rule="evenodd" clip-rule="evenodd" d="M35.4331 21.3704C35.4331 21.1068 35.3914 20.8571 35.3221 20.6074L30.3696 21.4398C30.3141 21.4536 30.2586 21.4536 30.2031 21.4536C30.217 21.7172 30.2586 21.9808 30.3419 22.2305C30.3973 22.2305 30.439 22.2305 30.4944 22.2166L35.4331 21.3843V21.3704Z" fill="white"/>
</g>
</g>
</g>
<defs>
<clipPath id="clip0_290_11221">
<rect x="0.25" y="0.789062" width="51.0508" height="35.5136" rx="17.7568" fill="white"/>
</clipPath>
<clipPath id="clip1_290_11221">
<rect width="51.0508" height="35.5136" fill="white" transform="translate(0.25 0.787109)"/>
</clipPath>
<clipPath id="clip2_290_11221">
<rect width="48.8728" height="35.5136" fill="white" transform="translate(0.25 0.785156)"/>
</clipPath>
</defs>
</svg>
