<svg width="52" height="37" viewBox="0 0 52 37" fill="none" xmlns="http://www.w3.org/2000/svg">
<g clip-path="url(#clip0_290_8483)">
<g clip-path="url(#clip1_290_8483)">
<g clip-path="url(#clip2_290_8483)">
<path d="M27.8869 3.73207C27.8869 3.66271 27.8592 3.60722 27.8037 3.5656L26.6661 2.78874L27.9008 0.99919C27.9563 0.915955 27.9424 0.818847 27.8869 0.749485C27.8176 0.680122 27.7204 0.66625 27.6372 0.72174L24.3356 2.74713C24.2801 2.77487 24.2385 2.84423 24.2385 2.9136C24.2385 2.98296 24.2662 3.03845 24.3217 3.08007L25.4592 3.85693L24.2385 5.63261C24.183 5.71584 24.1968 5.81295 24.2523 5.88231C24.2662 5.89618 24.2662 5.89618 24.2801 5.91006C24.3494 5.95167 24.4327 5.95167 24.4882 5.91006L27.7898 3.88467C27.8453 3.85693 27.8869 3.78756 27.8869 3.73207Z" fill="#DDDDDD"/>
<path d="M20.9262 3.88274L24.2279 5.90813C24.2972 5.94974 24.3805 5.94974 24.4359 5.90813C24.4498 5.89425 24.4637 5.89425 24.4637 5.88038C24.533 5.81102 24.533 5.71391 24.4776 5.63068L23.2568 3.85499L24.3943 3.07813C24.4498 3.03652 24.4776 2.98103 24.4776 2.91166C24.4776 2.8423 24.4359 2.78681 24.3805 2.74519L21.0927 0.719808C21.0094 0.678191 20.9123 0.678191 20.843 0.747553C20.7736 0.816916 20.7736 0.914024 20.8291 0.997259L22.0499 2.77294L20.9123 3.5498C20.8568 3.59142 20.8291 3.64691 20.8291 3.71627C20.843 3.78563 20.8707 3.85499 20.9262 3.88274Z" fill="#BBBBBB"/>
<path fill-rule="evenodd" clip-rule="evenodd" d="M24.5218 2.6875C36.0915 2.6875 45.3167 8.01454 45.4693 19.4455C45.608 30.599 36.0915 36.2035 24.5218 36.2035C12.9522 36.2035 3.61597 30.9319 3.57436 19.4455C3.53274 7.79258 12.9522 2.6875 24.5218 2.6875Z" fill="#DDDDDD"/>
<path d="M15.2542 3.99553C8.44278 6.13189 3.46255 11.126 3.50417 19.4356C3.53191 28.3418 9.16415 33.5162 17.0853 35.389C10.1907 26.136 12.4658 17.7293 15.4068 12.1664C16.7108 9.69713 18.431 7.46365 20.4425 5.53537C21.4552 4.5643 22.7731 3.95391 24.1742 3.81518C24.6875 3.75969 24.5349 3.1493 24.5071 2.98283C24.4794 2.83024 24.4378 2.76087 24.3129 2.70538C24.1881 2.64989 22.024 2.77475 21.5662 2.81636C18.1813 3.07994 15.7258 3.84293 15.2542 3.99553Z" fill="#BBBBBB"/>
<path fill-rule="evenodd" clip-rule="evenodd" d="M38.4457 14.9819C38.4457 14.9819 36.2955 12.2212 32.6192 13.5114H32.6054C32.425 13.5946 27.7361 15.7587 27.1812 16.05C27.1812 16.05 26.002 16.6049 24.5316 16.6743C23.0611 16.6049 21.8819 16.05 21.8819 16.05C21.327 15.7587 16.6381 13.5946 16.4578 13.5114H16.4439C12.7677 12.2212 10.6174 14.9819 10.6174 14.9819C8.28686 17.465 8.3146 23.4163 8.3146 23.4163C8.20362 26.1492 12.518 26.8983 12.518 26.8983C16.7213 27.8833 23.7686 27.8417 24.5316 27.8417C25.2946 27.8417 32.3418 27.8833 36.5452 26.8983C36.5452 26.8983 40.8595 26.1492 40.7485 23.4163C40.7485 23.4163 40.7624 17.465 38.4457 14.9819Z" fill="white"/>
<path fill-rule="evenodd" clip-rule="evenodd" d="M2.73941 14.9867C2.73941 14.9867 1.25506 19.953 2.73941 23.8928C2.73941 23.8928 3.23882 24.9333 2.47584 24.6836C2.47584 24.6836 0.0897658 23.9206 0.117511 19.4536C0.117511 19.4536 -0.159939 15.9716 1.94868 14.737C1.94868 14.7231 3.15559 13.9462 2.73941 14.9867Z" fill="#BBBBBB"/>
<path fill-rule="evenodd" clip-rule="evenodd" d="M47.1309 14.7192C49.2396 15.9538 48.9621 19.4358 48.9621 19.4358C48.9899 23.9028 46.6038 24.6658 46.6038 24.6658C45.8408 24.9293 46.3402 23.875 46.3402 23.875C47.8246 19.9352 46.3402 14.9689 46.3402 14.9689C45.9379 13.9423 47.1309 14.7192 47.1309 14.7192Z" fill="#DDDDDD"/>
<g opacity="0.4">
<path d="M15.2542 3.99553C8.44278 6.13189 3.46255 11.126 3.50417 19.4356C3.53191 28.3418 9.16415 33.5162 17.0853 35.389C10.1907 26.136 12.4658 17.7293 15.4068 12.1664C16.7108 9.69713 18.431 7.46365 20.4425 5.53537C21.4552 4.5643 22.7731 3.95391 24.1742 3.81518C24.6875 3.75969 24.5349 3.1493 24.5071 2.98283C24.4794 2.83024 24.4378 2.76087 24.3129 2.70538C24.1881 2.64989 22.024 2.77475 21.5662 2.81636C18.1813 3.07994 15.7258 3.84293 15.2542 3.99553Z" fill="#BBBBBB"/>
</g>
<path d="M16.2117 23.8922C17.6598 23.8922 18.8337 22.7184 18.8337 21.2703C18.8337 19.8223 17.6598 18.6484 16.2117 18.6484C14.7637 18.6484 13.5898 19.8223 13.5898 21.2703C13.5898 22.7184 14.7637 23.8922 16.2117 23.8922Z" fill="#8AD1C0"/>
<path d="M32.7039 23.8922C34.152 23.8922 35.3258 22.7184 35.3258 21.2703C35.3258 19.8223 34.152 18.6484 32.7039 18.6484C31.2559 18.6484 30.082 19.8223 30.082 21.2703C30.082 22.7184 31.2559 23.8922 32.7039 23.8922Z" fill="#8AD1C0"/>
<path d="M30.0829 22.1415C29.7777 22.1415 29.4725 22.0582 29.1951 21.9195L26.4899 20.4352C26.1847 20.2687 25.8241 20.2548 25.5189 20.4074L23.6322 21.3369C23.1189 21.5866 22.5085 21.5866 21.9952 21.323L20.7051 20.671C20.4554 20.5461 20.1502 20.5184 19.8728 20.6155L17.4451 21.4895C17.0705 21.6282 16.6543 21.6282 16.2659 21.5172L13.1723 20.5184C13.0059 20.4629 12.8116 20.449 12.6452 20.4907L8.41406 21.3924L8.51117 20.5739L12.4648 19.7277C12.77 19.6583 13.103 19.686 13.3943 19.7693L16.5017 20.7542C16.7237 20.8236 16.9595 20.8236 17.1815 20.7404L19.6092 19.8664C20.0808 19.6999 20.608 19.7277 21.0519 19.9496L22.3421 20.6016C22.6334 20.7542 22.9802 20.7542 23.2715 20.6016L25.1582 19.6722C25.6992 19.4086 26.3235 19.4225 26.8506 19.7138L29.5558 21.1981C29.7638 21.3091 29.9997 21.3507 30.2355 21.3091L35.4516 20.4352C35.8678 20.3658 36.2978 20.4352 36.6585 20.6571L37.5325 21.1565C37.7683 21.2953 38.0457 21.323 38.3232 21.2536L40.5289 20.671L40.626 21.4617L38.5174 22.0166C38.0457 22.1415 37.5602 22.0721 37.144 21.8363L36.2701 21.3369C36.062 21.212 35.8123 21.1704 35.5764 21.212L30.3604 22.086C30.2771 22.1276 30.18 22.1415 30.0829 22.1415Z" fill="#47A4DF"/>
<path d="M18.607 20.2288L17.1781 20.7421C16.9562 20.8253 16.7203 20.8253 16.4984 20.756L13.9319 19.9375C13.7932 20.1595 13.6961 20.4092 13.6406 20.6727L16.2625 21.5051C16.651 21.6299 17.0671 21.6161 17.4417 21.4773L18.8012 20.9918C18.7873 20.7282 18.718 20.4785 18.607 20.2288Z" fill="white"/>
<path fill-rule="evenodd" clip-rule="evenodd" d="M35.3276 21.2708C35.3276 21.0072 35.286 20.7575 35.2166 20.5078L30.2641 21.3402C30.2086 21.354 30.1531 21.354 30.0977 21.354C30.1115 21.6176 30.1531 21.8812 30.2364 22.1309C30.2919 22.1309 30.3335 22.1309 30.389 22.117L35.3276 21.2847C35.3276 21.2708 35.3276 21.2708 35.3276 21.2708Z" fill="white"/>
<path d="M27.8908 3.73207C27.8908 3.66271 27.8631 3.60722 27.8076 3.5656L26.67 2.78874L27.9047 0.99919C27.9602 0.915955 27.9463 0.818847 27.8908 0.749485C27.8215 0.680122 27.7244 0.66625 27.6411 0.72174L24.3395 2.74713C24.284 2.77487 24.2424 2.84423 24.2424 2.9136C24.2424 2.98296 24.2701 3.03845 24.3256 3.08007L25.4631 3.85693L24.2424 5.63261C24.1869 5.71584 24.2007 5.81295 24.2562 5.88231C24.2701 5.89618 24.2701 5.89618 24.284 5.91006C24.3533 5.95167 24.4366 5.95167 24.4921 5.91006L27.7937 3.88467C27.8492 3.85693 27.8908 3.78756 27.8908 3.73207Z" fill="#DDDDDD"/>
<path d="M20.9262 3.88665L24.2279 5.91203C24.2972 5.95365 24.3805 5.95365 24.4359 5.91203C24.4498 5.89816 24.4637 5.89816 24.4637 5.88429C24.533 5.81492 24.533 5.71782 24.4776 5.63458L23.2568 3.8589L24.3943 3.08204C24.4498 3.04042 24.4776 2.98493 24.4776 2.91557C24.4776 2.84621 24.4359 2.79072 24.3805 2.7491L21.0927 0.723715C21.0094 0.682097 20.9123 0.682097 20.843 0.75146C20.7736 0.820822 20.7736 0.91793 20.8291 1.00116L22.0499 2.77685L20.9123 3.55371C20.8568 3.59532 20.8291 3.65081 20.8291 3.72018C20.843 3.78954 20.8707 3.8589 20.9262 3.88665Z" fill="#BBBBBB"/>
<path fill-rule="evenodd" clip-rule="evenodd" d="M24.5218 2.69141C36.0915 2.69141 45.3167 8.01845 45.4693 19.4494C45.608 30.6029 36.0915 36.2074 24.5218 36.2074C12.9522 36.2074 3.61597 30.9358 3.57436 19.4494C3.53274 7.79649 12.9522 2.69141 24.5218 2.69141Z" fill="#DDDDDD"/>
<path d="M15.2542 3.99943C8.44278 6.1358 3.46255 11.1299 3.50417 19.4395C3.53191 28.3457 9.16415 33.5201 17.0853 35.3929C10.1907 26.1399 12.4658 17.7332 15.4068 12.1703C16.7108 9.70103 18.431 7.46756 20.4425 5.53928C21.4552 4.56821 22.7731 3.95781 24.1742 3.81909C24.6875 3.7636 24.5349 3.15321 24.5071 2.98674C24.4794 2.83414 24.4378 2.76478 24.3129 2.70929C24.1881 2.6538 22.024 2.77865 21.5662 2.82027C18.1813 3.08385 15.7258 3.84683 15.2542 3.99943Z" fill="#BBBBBB"/>
<path fill-rule="evenodd" clip-rule="evenodd" d="M38.4457 14.9858C38.4457 14.9858 36.2955 12.2251 32.6192 13.5153H32.6054C32.425 13.5985 27.7361 15.7626 27.1812 16.0539C27.1812 16.0539 26.002 16.6088 24.5316 16.6782C23.0611 16.6088 21.8819 16.0539 21.8819 16.0539C21.327 15.7626 16.6381 13.5985 16.4578 13.5153H16.4439C12.7677 12.2251 10.6174 14.9858 10.6174 14.9858C8.28686 17.4689 8.3146 23.4202 8.3146 23.4202C8.20362 26.1531 12.518 26.9022 12.518 26.9022C16.7213 27.8872 23.7686 27.8456 24.5316 27.8456C25.2946 27.8456 32.3418 27.8872 36.5452 26.9022C36.5452 26.9022 40.8595 26.1531 40.7485 23.4202C40.7485 23.4202 40.7624 17.4689 38.4457 14.9858Z" fill="white"/>
<path fill-rule="evenodd" clip-rule="evenodd" d="M2.73941 14.9867C2.73941 14.9867 1.25506 19.953 2.73941 23.8928C2.73941 23.8928 3.23882 24.9333 2.47584 24.6836C2.47584 24.6836 0.0897658 23.9206 0.117511 19.4536C0.117511 19.4536 -0.159939 15.9716 1.94868 14.737C1.94868 14.7231 3.15559 13.9462 2.73941 14.9867Z" fill="#BBBBBB"/>
<path fill-rule="evenodd" clip-rule="evenodd" d="M47.1309 14.7192C49.2396 15.9538 48.9621 19.4358 48.9621 19.4358C48.9899 23.9028 46.6038 24.6658 46.6038 24.6658C45.8408 24.9293 46.3402 23.875 46.3402 23.875C47.8246 19.9352 46.3402 14.9689 46.3402 14.9689C45.9379 13.9423 47.1309 14.7192 47.1309 14.7192Z" fill="#DDDDDD"/>
<g opacity="0.4">
<path d="M15.2542 3.99943C8.44278 6.1358 3.46255 11.1299 3.50417 19.4395C3.53191 28.3457 9.16415 33.5201 17.0853 35.3929C10.1907 26.1399 12.4658 17.7332 15.4068 12.1703C16.7108 9.70103 18.431 7.46756 20.4425 5.53928C21.4552 4.56821 22.7731 3.95781 24.1742 3.81909C24.6875 3.7636 24.5349 3.15321 24.5071 2.98674C24.4794 2.83414 24.4378 2.76478 24.3129 2.70929C24.1881 2.6538 22.024 2.77865 21.5662 2.82027C18.1813 3.08385 15.7258 3.84683 15.2542 3.99943Z" fill="#BBBBBB"/>
</g>
<path d="M16.2117 23.8922C17.6598 23.8922 18.8337 22.7184 18.8337 21.2703C18.8337 19.8223 17.6598 18.6484 16.2117 18.6484C14.7637 18.6484 13.5898 19.8223 13.5898 21.2703C13.5898 22.7184 14.7637 23.8922 16.2117 23.8922Z" fill="#8AD1C0"/>
<path d="M32.7039 23.8922C34.152 23.8922 35.3258 22.7184 35.3258 21.2703C35.3258 19.8223 34.152 18.6484 32.7039 18.6484C31.2559 18.6484 30.082 19.8223 30.082 21.2703C30.082 22.7184 31.2559 23.8922 32.7039 23.8922Z" fill="#8AD1C0"/>
<path d="M30.0829 22.1415C29.7777 22.1415 29.4725 22.0582 29.1951 21.9195L26.4899 20.4352C26.1847 20.2687 25.8241 20.2548 25.5189 20.4074L23.6322 21.3369C23.1189 21.5866 22.5085 21.5866 21.9952 21.323L20.7051 20.671C20.4554 20.5461 20.1502 20.5184 19.8728 20.6155L17.4451 21.4895C17.0705 21.6282 16.6543 21.6282 16.2659 21.5172L13.1723 20.5184C13.0059 20.4629 12.8116 20.449 12.6452 20.4907L8.41406 21.3924L8.51117 20.5739L12.4648 19.7277C12.77 19.6583 13.103 19.686 13.3943 19.7693L16.5017 20.7542C16.7237 20.8236 16.9595 20.8236 17.1815 20.7404L19.6092 19.8664C20.0808 19.6999 20.608 19.7277 21.0519 19.9496L22.3421 20.6016C22.6334 20.7542 22.9802 20.7542 23.2715 20.6016L25.1582 19.6722C25.6992 19.4086 26.3235 19.4225 26.8506 19.7138L29.5558 21.1981C29.7638 21.3091 29.9997 21.3507 30.2355 21.3091L35.4516 20.4352C35.8678 20.3658 36.2978 20.4352 36.6585 20.6571L37.5325 21.1565C37.7683 21.2953 38.0457 21.323 38.3232 21.2536L40.5289 20.671L40.626 21.4617L38.5174 22.0166C38.0457 22.1415 37.5602 22.0721 37.144 21.8363L36.2701 21.3369C36.062 21.212 35.8123 21.1704 35.5764 21.212L30.3604 22.086C30.2771 22.1276 30.18 22.1415 30.0829 22.1415Z" fill="#47A4DF"/>
<path d="M18.607 20.2288L17.1781 20.7421C16.9562 20.8253 16.7203 20.8253 16.4984 20.756L13.9319 19.9375C13.7932 20.1595 13.6961 20.4092 13.6406 20.6727L16.2625 21.5051C16.651 21.6299 17.0671 21.6161 17.4417 21.4773L18.8012 20.9918C18.7873 20.7282 18.718 20.4785 18.607 20.2288Z" fill="white"/>
<path fill-rule="evenodd" clip-rule="evenodd" d="M35.3276 21.2708C35.3276 21.0072 35.286 20.7575 35.2166 20.5078L30.2641 21.3402C30.2086 21.354 30.1531 21.354 30.0977 21.354C30.1115 21.6176 30.1531 21.8812 30.2364 22.1309C30.2919 22.1309 30.3335 22.1309 30.389 22.117L35.3276 21.2847C35.3276 21.2708 35.3276 21.2708 35.3276 21.2708Z" fill="white"/>
<path fill-rule="evenodd" clip-rule="evenodd" d="M38.4775 14.9819C38.4775 14.9819 36.3273 12.2212 32.651 13.5114H32.6372C32.4568 13.5946 27.7679 15.7587 27.213 16.05C27.213 16.05 26.0339 16.6049 24.5634 16.6743C23.0929 16.6049 21.9137 16.05 21.9137 16.05C21.3588 15.7587 16.6699 13.5946 16.4896 13.5114H16.4757C12.7995 12.2212 10.6492 14.9819 10.6492 14.9819C8.31866 17.465 8.34641 23.4163 8.34641 23.4163C8.22156 26.1492 12.5359 26.8983 12.5359 26.8983C16.7393 27.8833 23.7865 27.8417 24.5495 27.8417C25.3125 27.8417 32.3597 27.8833 36.5631 26.8983C36.5631 26.8983 40.8774 26.1492 40.7665 23.4163C40.7803 23.4163 40.7942 17.465 38.4775 14.9819Z" fill="#202325"/>
<path d="M30.1103 22.1415C29.8051 22.1415 29.4999 22.0582 29.2224 21.9195L26.5173 20.4213C26.2121 20.2548 25.8514 20.2409 25.5462 20.3935L23.6595 21.323C23.1463 21.5727 22.5359 21.5727 22.0226 21.3091L20.7324 20.6571C20.4827 20.5323 20.1775 20.5045 19.9001 20.6016L17.4724 21.4756C17.0978 21.6143 16.6817 21.6143 16.2932 21.5033L13.1997 20.5184C13.0332 20.4629 12.839 20.449 12.6725 20.4907L8.44141 21.3924L8.53851 20.5739L12.4922 19.7277C12.7974 19.6583 13.1303 19.686 13.4216 19.7693L16.5291 20.7542C16.751 20.8236 16.9869 20.8236 17.2088 20.7404L19.6365 19.8664C20.1082 19.6999 20.6353 19.7277 21.0793 19.9496L22.3694 20.6016C22.6607 20.7542 23.0075 20.7542 23.2989 20.6016L25.1855 19.6722C25.7265 19.4086 26.3508 19.4225 26.878 19.7138L29.5831 21.1981C29.7912 21.3091 30.027 21.3507 30.2629 21.3091L35.4789 20.4352C35.8951 20.3658 36.3251 20.4352 36.6858 20.6571L37.5598 21.1565C37.7956 21.2953 38.0731 21.323 38.3505 21.2536L40.5563 20.671L40.6534 21.4617L38.5447 22.0166C38.0731 22.1415 37.5875 22.0721 37.1714 21.8363L36.2974 21.3369C36.0893 21.212 35.8396 21.1704 35.6038 21.212L30.3877 22.086C30.3045 22.1276 30.2074 22.1415 30.1103 22.1415Z" fill="#7289DA"/>
<path d="M16.243 23.8844C17.691 23.8844 18.8649 22.7106 18.8649 21.2625C18.8649 19.8145 17.691 18.6406 16.243 18.6406C14.795 18.6406 13.6211 19.8145 13.6211 21.2625C13.6211 22.7106 14.795 23.8844 16.243 23.8844Z" fill="#8AD1C0"/>
<path d="M32.7313 23.8844C34.1793 23.8844 35.3532 22.7106 35.3532 21.2625C35.3532 19.8145 34.1793 18.6406 32.7313 18.6406C31.2832 18.6406 30.1094 19.8145 30.1094 21.2625C30.1094 22.7106 31.2832 23.8844 32.7313 23.8844Z" fill="#8AD1C0"/>
<path d="M18.6382 20.2366L17.2094 20.7499C16.9874 20.8332 16.7516 20.8332 16.5296 20.7638L13.9632 19.9453C13.8245 20.1673 13.7274 20.417 13.6719 20.6806L16.2938 21.5129C16.6822 21.6378 17.0984 21.6239 17.4729 21.4852L18.8324 20.9996C18.8047 20.7222 18.7492 20.4725 18.6382 20.2366Z" fill="white"/>
<path fill-rule="evenodd" clip-rule="evenodd" d="M35.3393 21.2669C35.3393 21.0033 35.2977 20.7536 35.2283 20.5039L30.2758 21.3363C30.2204 21.3501 30.1649 21.3501 30.1094 21.3501C30.1232 21.6137 30.1649 21.8773 30.2481 22.127C30.3036 22.127 30.3452 22.127 30.4007 22.1131L35.3393 21.2808V21.2669Z" fill="white"/>
</g>
</g>
</g>
<defs>
<clipPath id="clip0_290_8483">
<rect x="0.160156" y="0.679688" width="51.0508" height="35.5136" rx="17.7568" fill="white"/>
</clipPath>
<clipPath id="clip1_290_8483">
<rect width="51.0508" height="35.5136" fill="white" transform="translate(0.160156 0.679688)"/>
</clipPath>
<clipPath id="clip2_290_8483">
<rect width="48.8728" height="35.5136" fill="white" transform="translate(0.160156 0.679688)"/>
</clipPath>
</defs>
</svg>
