<svg width="52" height="37" viewBox="0 0 52 37" fill="none" xmlns="http://www.w3.org/2000/svg">
<g clip-path="url(#clip0_290_7909)">
<g clip-path="url(#clip1_290_7909)">
<g clip-path="url(#clip2_290_7909)">
<path d="M28.5861 3.60317C28.5861 3.5338 28.5584 3.47831 28.5029 3.4367L27.3654 2.65984L28.6 0.870284C28.6555 0.787049 28.6416 0.689941 28.5861 0.620579C28.5168 0.551216 28.4197 0.537344 28.3364 0.592834L25.0348 2.61822C24.9793 2.64596 24.9377 2.71533 24.9377 2.78469C24.9377 2.85405 24.9654 2.90954 25.0209 2.95116L26.1584 3.72802L24.9377 5.5037C24.8822 5.58694 24.8961 5.68404 24.9515 5.75341C24.9654 5.76728 24.9654 5.76728 24.9793 5.78115C25.0486 5.82277 25.1319 5.82277 25.1874 5.78115L28.489 3.75576C28.5445 3.72802 28.5861 3.65866 28.5861 3.60317Z" fill="#DDDDDD"/>
<path d="M21.6254 3.75383L24.9271 5.77922C24.9964 5.82084 25.0797 5.82084 25.1352 5.77922C25.149 5.76535 25.1629 5.76535 25.1629 5.75147C25.2323 5.68211 25.2323 5.585 25.1768 5.50177L23.956 3.72609L25.0935 2.94923C25.149 2.90761 25.1768 2.85212 25.1768 2.78276C25.1768 2.7134 25.1352 2.65791 25.0797 2.61629L21.7919 0.590902C21.7087 0.549285 21.6115 0.549285 21.5422 0.618647C21.4728 0.68801 21.4728 0.785117 21.5283 0.868352L22.7491 2.64403L21.6115 3.42089C21.5561 3.46251 21.5283 3.518 21.5283 3.58736C21.5422 3.65673 21.5699 3.72609 21.6254 3.75383Z" fill="#BBBBBB"/>
<path fill-rule="evenodd" clip-rule="evenodd" d="M25.2211 2.5625C36.7907 2.5625 46.0159 7.88954 46.1685 19.3205C46.3073 30.474 36.7907 36.0785 25.2211 36.0785C13.6514 36.0785 4.31519 30.8069 4.27357 19.3205C4.23196 7.66758 13.6514 2.5625 25.2211 2.5625Z" fill="#DDDDDD"/>
<path d="M15.9534 3.86662C9.142 6.00299 4.16177 10.9971 4.20338 19.3067C4.23113 28.2129 9.86337 33.3873 17.7846 35.2601C10.8899 26.0071 13.165 17.6004 16.106 12.0375C17.41 9.56822 19.1302 7.33475 21.1417 5.40647C22.1544 4.43539 23.4723 3.825 24.8734 3.68628C25.3867 3.63079 25.2341 3.0204 25.2064 2.85393C25.1786 2.70133 25.137 2.63197 25.0121 2.57648C24.8873 2.52099 22.7232 2.64584 22.2654 2.68746C18.8805 2.95103 16.4251 3.71402 15.9534 3.86662Z" fill="#BBBBBB"/>
<path fill-rule="evenodd" clip-rule="evenodd" d="M39.1449 14.853C39.1449 14.853 36.9947 12.0923 33.3185 13.3825H33.3046C33.1242 13.4657 28.4353 15.6298 27.8804 15.9211C27.8804 15.9211 26.7013 16.476 25.2308 16.5454C23.7603 16.476 22.5811 15.9211 22.5811 15.9211C22.0262 15.6298 17.3373 13.4657 17.157 13.3825H17.1431C13.4669 12.0923 11.3167 14.853 11.3167 14.853C8.98608 17.3361 9.01382 23.2874 9.01382 23.2874C8.90284 26.0203 13.2172 26.7694 13.2172 26.7694C17.4206 27.7544 24.4678 27.7128 25.2308 27.7128C25.9938 27.7128 33.041 27.7544 37.2444 26.7694C37.2444 26.7694 41.5587 26.0203 41.4477 23.2874C41.4477 23.2874 41.4616 17.3361 39.1449 14.853Z" fill="white"/>
<path fill-rule="evenodd" clip-rule="evenodd" d="M3.43863 14.8539C3.43863 14.8539 1.95428 19.8202 3.43863 23.76C3.43863 23.76 3.93804 24.8004 3.17506 24.5507C3.17506 24.5507 0.788985 23.7878 0.81673 19.3208C0.81673 19.3208 0.539279 15.8388 2.6479 14.6042C2.6479 14.5903 3.85481 13.8134 3.43863 14.8539Z" fill="#BBBBBB"/>
<path fill-rule="evenodd" clip-rule="evenodd" d="M47.8302 14.5903C49.9388 15.8249 49.6613 19.3069 49.6613 19.3069C49.6891 23.7739 47.303 24.5369 47.303 24.5369C46.54 24.8004 47.0394 23.7461 47.0394 23.7461C48.5238 19.8063 47.0394 14.84 47.0394 14.84C46.6371 13.8134 47.8302 14.5903 47.8302 14.5903Z" fill="#DDDDDD"/>
<g opacity="0.4">
<path d="M15.9534 3.86662C9.142 6.00299 4.16177 10.9971 4.20338 19.3067C4.23113 28.2129 9.86337 33.3873 17.7846 35.2601C10.8899 26.0071 13.165 17.6004 16.106 12.0375C17.41 9.56822 19.1302 7.33475 21.1417 5.40647C22.1544 4.43539 23.4723 3.825 24.8734 3.68628C25.3867 3.63079 25.2341 3.0204 25.2064 2.85393C25.1786 2.70133 25.137 2.63197 25.0121 2.57648C24.8873 2.52099 22.7232 2.64584 22.2654 2.68746C18.8805 2.95103 16.4251 3.71402 15.9534 3.86662Z" fill="#BBBBBB"/>
</g>
<path d="M16.911 23.7594C18.359 23.7594 19.5329 22.5856 19.5329 21.1375C19.5329 19.6895 18.359 18.5156 16.911 18.5156C15.4629 18.5156 14.2891 19.6895 14.2891 21.1375C14.2891 22.5856 15.4629 23.7594 16.911 23.7594Z" fill="#8AD1C0"/>
<path d="M33.3992 23.7594C34.8473 23.7594 36.0212 22.5856 36.0212 21.1375C36.0212 19.6895 34.8473 18.5156 33.3992 18.5156C31.9512 18.5156 30.7773 19.6895 30.7773 21.1375C30.7773 22.5856 31.9512 23.7594 33.3992 23.7594Z" fill="#8AD1C0"/>
<path d="M30.7821 22.0087C30.4769 22.0087 30.1717 21.9254 29.8943 21.7867L27.1892 20.3023C26.884 20.1359 26.5233 20.122 26.2181 20.2746L24.3314 21.2041C23.8181 21.4538 23.2077 21.4538 22.6945 21.1902L21.4043 20.5382C21.1546 20.4133 20.8494 20.3856 20.572 20.4827L18.1443 21.3567C17.7697 21.4954 17.3535 21.4954 16.9651 21.3844L13.8716 20.3856C13.7051 20.3301 13.5109 20.3162 13.3444 20.3578L9.11328 21.2596L9.21039 20.4411L13.1641 19.5949C13.4692 19.5255 13.8022 19.5532 14.0935 19.6365L17.201 20.6214C17.4229 20.6908 17.6587 20.6908 17.8807 20.6075L20.3084 19.7336C20.7801 19.5671 21.3072 19.5949 21.7511 19.8168L23.0413 20.4688C23.3326 20.6214 23.6794 20.6214 23.9707 20.4688L25.8574 19.5394C26.3984 19.2758 27.0227 19.2897 27.5498 19.581L30.255 21.0653C30.4631 21.1763 30.6989 21.2179 30.9347 21.1763L36.1508 20.3023C36.567 20.233 36.997 20.3023 37.3577 20.5243L38.2317 21.0237C38.4675 21.1624 38.745 21.1902 39.0224 21.1208L41.2281 20.5382L41.3252 21.3289L39.2166 21.8838C38.745 22.0087 38.2594 21.9393 37.8432 21.7035L36.9693 21.2041C36.7612 21.0792 36.5115 21.0376 36.2756 21.0792L31.0596 21.9532C30.9764 21.9948 30.8792 22.0087 30.7821 22.0087Z" fill="#47A4DF"/>
<path d="M19.3062 20.0999L17.8773 20.6132C17.6554 20.6964 17.4195 20.6964 17.1976 20.6271L14.6312 19.8086C14.4924 20.0306 14.3953 20.2803 14.3398 20.5438L16.9617 21.3762C17.3502 21.501 17.7664 21.4872 18.1409 21.3484L19.5004 20.8629C19.4865 20.5993 19.4172 20.3496 19.3062 20.0999Z" fill="white"/>
<path fill-rule="evenodd" clip-rule="evenodd" d="M36.0268 21.138C36.0268 20.8744 35.9852 20.6247 35.9158 20.375L30.9633 21.2074C30.9079 21.2212 30.8524 21.2212 30.7969 21.2212C30.8107 21.4848 30.8524 21.7484 30.9356 21.9981C30.9911 21.9981 31.0327 21.9981 31.0882 21.9842L36.0268 21.1519C36.0268 21.138 36.0268 21.138 36.0268 21.138Z" fill="white"/>
<path d="M28.5861 3.60317C28.5861 3.5338 28.5584 3.47831 28.5029 3.4367L27.3654 2.65984L28.6 0.870284C28.6555 0.787049 28.6416 0.689941 28.5861 0.620579C28.5168 0.551216 28.4197 0.537344 28.3364 0.592834L25.0348 2.61822C24.9793 2.64596 24.9377 2.71533 24.9377 2.78469C24.9377 2.85405 24.9654 2.90954 25.0209 2.95116L26.1584 3.72802L24.9377 5.5037C24.8822 5.58694 24.8961 5.68404 24.9515 5.75341C24.9654 5.76728 24.9654 5.76728 24.9793 5.78115C25.0486 5.82277 25.1319 5.82277 25.1874 5.78115L28.489 3.75576C28.5445 3.72802 28.5861 3.65866 28.5861 3.60317Z" fill="#DDDDDD"/>
<path d="M21.6254 3.75383L24.9271 5.77922C24.9964 5.82084 25.0797 5.82084 25.1352 5.77922C25.149 5.76535 25.1629 5.76535 25.1629 5.75147C25.2323 5.68211 25.2323 5.585 25.1768 5.50177L23.956 3.72609L25.0935 2.94923C25.149 2.90761 25.1768 2.85212 25.1768 2.78276C25.1768 2.7134 25.1352 2.65791 25.0797 2.61629L21.7919 0.590902C21.7087 0.549285 21.6115 0.549285 21.5422 0.618647C21.4728 0.68801 21.4728 0.785117 21.5283 0.868352L22.7491 2.64403L21.6115 3.42089C21.5561 3.46251 21.5283 3.518 21.5283 3.58736C21.5422 3.65673 21.5699 3.72609 21.6254 3.75383Z" fill="#BBBBBB"/>
<path fill-rule="evenodd" clip-rule="evenodd" d="M25.2211 2.5625C36.7907 2.5625 46.0159 7.88954 46.1685 19.3205C46.3073 30.474 36.7907 36.0785 25.2211 36.0785C13.6514 36.0785 4.31519 30.8069 4.27357 19.3205C4.23196 7.66758 13.6514 2.5625 25.2211 2.5625Z" fill="#DDDDDD"/>
<path d="M15.9534 3.86662C9.142 6.00299 4.16177 10.9971 4.20338 19.3067C4.23113 28.2129 9.86337 33.3873 17.7846 35.2601C10.8899 26.0071 13.165 17.6004 16.106 12.0375C17.41 9.56822 19.1302 7.33475 21.1417 5.40647C22.1544 4.43539 23.4723 3.825 24.8734 3.68628C25.3867 3.63079 25.2341 3.0204 25.2064 2.85393C25.1786 2.70133 25.137 2.63197 25.0121 2.57648C24.8873 2.52099 22.7232 2.64584 22.2654 2.68746C18.8805 2.95103 16.4251 3.71402 15.9534 3.86662Z" fill="#BBBBBB"/>
<path fill-rule="evenodd" clip-rule="evenodd" d="M39.1449 14.853C39.1449 14.853 36.9947 12.0923 33.3185 13.3825H33.3046C33.1242 13.4657 28.4353 15.6298 27.8804 15.9211C27.8804 15.9211 26.7013 16.476 25.2308 16.5454C23.7603 16.476 22.5811 15.9211 22.5811 15.9211C22.0262 15.6298 17.3373 13.4657 17.157 13.3825H17.1431C13.4669 12.0923 11.3167 14.853 11.3167 14.853C8.98608 17.3361 9.01382 23.2874 9.01382 23.2874C8.90284 26.0203 13.2172 26.7694 13.2172 26.7694C17.4206 27.7544 24.4678 27.7128 25.2308 27.7128C25.9938 27.7128 33.041 27.7544 37.2444 26.7694C37.2444 26.7694 41.5587 26.0203 41.4477 23.2874C41.4477 23.2874 41.4616 17.3361 39.1449 14.853Z" fill="white"/>
<path fill-rule="evenodd" clip-rule="evenodd" d="M3.43863 14.8539C3.43863 14.8539 1.95428 19.8202 3.43863 23.76C3.43863 23.76 3.93804 24.8004 3.17506 24.5507C3.17506 24.5507 0.788985 23.7878 0.81673 19.3208C0.81673 19.3208 0.539279 15.8388 2.6479 14.6042C2.6479 14.5903 3.85481 13.8134 3.43863 14.8539Z" fill="#BBBBBB"/>
<path fill-rule="evenodd" clip-rule="evenodd" d="M47.8302 14.5903C49.9388 15.8249 49.6613 19.3069 49.6613 19.3069C49.6891 23.7739 47.303 24.5369 47.303 24.5369C46.54 24.8004 47.0394 23.7461 47.0394 23.7461C48.5238 19.8063 47.0394 14.84 47.0394 14.84C46.6371 13.8134 47.8302 14.5903 47.8302 14.5903Z" fill="#DDDDDD"/>
<g opacity="0.4">
<path d="M15.9534 3.86662C9.142 6.00299 4.16177 10.9971 4.20338 19.3067C4.23113 28.2129 9.86337 33.3873 17.7846 35.2601C10.8899 26.0071 13.165 17.6004 16.106 12.0375C17.41 9.56822 19.1302 7.33475 21.1417 5.40647C22.1544 4.43539 23.4723 3.825 24.8734 3.68628C25.3867 3.63079 25.2341 3.0204 25.2064 2.85393C25.1786 2.70133 25.137 2.63197 25.0121 2.57648C24.8873 2.52099 22.7232 2.64584 22.2654 2.68746C18.8805 2.95103 16.4251 3.71402 15.9534 3.86662Z" fill="#BBBBBB"/>
</g>
<path d="M16.911 23.7594C18.359 23.7594 19.5329 22.5856 19.5329 21.1375C19.5329 19.6895 18.359 18.5156 16.911 18.5156C15.4629 18.5156 14.2891 19.6895 14.2891 21.1375C14.2891 22.5856 15.4629 23.7594 16.911 23.7594Z" fill="#8AD1C0"/>
<path d="M33.3992 23.7594C34.8473 23.7594 36.0212 22.5856 36.0212 21.1375C36.0212 19.6895 34.8473 18.5156 33.3992 18.5156C31.9512 18.5156 30.7773 19.6895 30.7773 21.1375C30.7773 22.5856 31.9512 23.7594 33.3992 23.7594Z" fill="#8AD1C0"/>
<path d="M30.7821 22.0087C30.4769 22.0087 30.1717 21.9254 29.8943 21.7867L27.1892 20.3023C26.884 20.1359 26.5233 20.122 26.2181 20.2746L24.3314 21.2041C23.8181 21.4538 23.2077 21.4538 22.6945 21.1902L21.4043 20.5382C21.1546 20.4133 20.8494 20.3856 20.572 20.4827L18.1443 21.3567C17.7697 21.4954 17.3535 21.4954 16.9651 21.3844L13.8716 20.3856C13.7051 20.3301 13.5109 20.3162 13.3444 20.3578L9.11328 21.2596L9.21039 20.4411L13.1641 19.5949C13.4692 19.5255 13.8022 19.5532 14.0935 19.6365L17.201 20.6214C17.4229 20.6908 17.6587 20.6908 17.8807 20.6075L20.3084 19.7336C20.7801 19.5671 21.3072 19.5949 21.7511 19.8168L23.0413 20.4688C23.3326 20.6214 23.6794 20.6214 23.9707 20.4688L25.8574 19.5394C26.3984 19.2758 27.0227 19.2897 27.5498 19.581L30.255 21.0653C30.4631 21.1763 30.6989 21.2179 30.9347 21.1763L36.1508 20.3023C36.567 20.233 36.997 20.3023 37.3577 20.5243L38.2317 21.0237C38.4675 21.1624 38.745 21.1902 39.0224 21.1208L41.2281 20.5382L41.3252 21.3289L39.2166 21.8838C38.745 22.0087 38.2594 21.9393 37.8432 21.7035L36.9693 21.2041C36.7612 21.0792 36.5115 21.0376 36.2756 21.0792L31.0596 21.9532C30.9764 21.9948 30.8792 22.0087 30.7821 22.0087Z" fill="#47A4DF"/>
<path d="M19.3062 20.0999L17.8773 20.6132C17.6554 20.6964 17.4195 20.6964 17.1976 20.6271L14.6312 19.8086C14.4924 20.0306 14.3953 20.2803 14.3398 20.5438L16.9617 21.3762C17.3502 21.501 17.7664 21.4872 18.1409 21.3484L19.5004 20.8629C19.4865 20.5993 19.4172 20.3496 19.3062 20.0999Z" fill="white"/>
<path fill-rule="evenodd" clip-rule="evenodd" d="M36.0268 21.138C36.0268 20.8744 35.9852 20.6247 35.9158 20.375L30.9633 21.2074C30.9079 21.2212 30.8524 21.2212 30.7969 21.2212C30.8107 21.4848 30.8524 21.7484 30.9356 21.9981C30.9911 21.9981 31.0327 21.9981 31.0882 21.9842L36.0268 21.1519C36.0268 21.138 36.0268 21.138 36.0268 21.138Z" fill="white"/>
<path fill-rule="evenodd" clip-rule="evenodd" d="M39.1728 14.853C39.1728 14.853 37.0226 12.0923 33.3464 13.3825H33.3325C33.1521 13.4657 28.4632 15.6298 27.9083 15.9211C27.9083 15.9211 26.7292 16.476 25.2587 16.5454C23.7882 16.476 22.609 15.9211 22.609 15.9211C22.0541 15.6298 17.3652 13.4657 17.1849 13.3825H17.171C13.4948 12.0923 11.3446 14.853 11.3446 14.853C9.01398 17.3361 9.04172 23.2874 9.04172 23.2874C8.91687 26.0203 13.2312 26.7694 13.2312 26.7694C17.4346 27.7544 24.4818 27.7128 25.2448 27.7128C26.0078 27.7128 33.055 27.7544 37.2584 26.7694C37.2584 26.7694 41.5728 26.0203 41.4618 23.2874C41.4756 23.2874 41.4895 17.3361 39.1728 14.853Z" fill="#202325"/>
<path d="M30.8095 22.0126C30.5043 22.0126 30.1991 21.9293 29.9216 21.7906L27.2165 20.2924C26.9113 20.1259 26.5506 20.112 26.2454 20.2646L24.3588 21.1941C23.8455 21.4438 23.2351 21.4438 22.7218 21.1802L21.4317 20.5282C21.182 20.4034 20.8768 20.3756 20.5993 20.4727L18.1716 21.3467C17.7971 21.4854 17.3809 21.4854 16.9925 21.3744L13.8989 20.3895C13.7324 20.334 13.5382 20.3201 13.3717 20.3617L9.14062 21.2635L9.23773 20.445L13.1914 19.5988C13.4966 19.5294 13.8295 19.5571 14.1209 19.6404L17.2283 20.6253C17.4503 20.6947 17.6861 20.6947 17.908 20.6115L20.3357 19.7375C20.8074 19.571 21.3346 19.5988 21.7785 19.8207L23.0686 20.4727C23.3599 20.6253 23.7068 20.6253 23.9981 20.4727L25.8847 19.5433C26.4258 19.2797 27.05 19.2936 27.5772 19.5849L30.2823 21.0692C30.4904 21.1802 30.7262 21.2218 30.9621 21.1802L36.1781 20.3063C36.5943 20.2369 37.0244 20.3063 37.385 20.5282L38.259 21.0276C38.4948 21.1664 38.7723 21.1941 39.0497 21.1247L41.2555 20.5421L41.3526 21.3328L39.244 21.8877C38.7723 22.0126 38.2868 21.9432 37.8706 21.7074L36.9966 21.208C36.7885 21.0831 36.5388 21.0415 36.303 21.0831L31.0869 21.9571C31.0037 21.9987 30.9066 22.0126 30.8095 22.0126Z" fill="#7289DA"/>
<path d="M16.9383 23.7594C18.3863 23.7594 19.5602 22.5856 19.5602 21.1375C19.5602 19.6895 18.3863 18.5156 16.9383 18.5156C15.4903 18.5156 14.3164 19.6895 14.3164 21.1375C14.3164 22.5856 15.4903 23.7594 16.9383 23.7594Z" fill="#8AD1C0"/>
<path d="M33.4266 23.7594C34.8746 23.7594 36.0485 22.5856 36.0485 21.1375C36.0485 19.6895 34.8746 18.5156 33.4266 18.5156C31.9786 18.5156 30.8047 19.6895 30.8047 21.1375C30.8047 22.5856 31.9786 23.7594 33.4266 23.7594Z" fill="#8AD1C0"/>
<path d="M19.3335 20.1116L17.9047 20.6249C17.6827 20.7082 17.4469 20.7082 17.2249 20.6388L14.6585 19.8203C14.5198 20.0423 14.4227 20.292 14.3672 20.5556L16.9891 21.3879C17.3775 21.5128 17.7937 21.4989 18.1683 21.3602L19.5278 20.8746C19.5 20.5972 19.4445 20.3475 19.3335 20.1116Z" fill="white"/>
<path fill-rule="evenodd" clip-rule="evenodd" d="M36.0346 21.138C36.0346 20.8744 35.993 20.6247 35.9236 20.375L30.9712 21.2074C30.9157 21.2212 30.8602 21.2212 30.8047 21.2212C30.8186 21.4848 30.8602 21.7484 30.9434 21.9981C30.9989 21.9981 31.0405 21.9981 31.096 21.9842L36.0346 21.1519V21.138Z" fill="white"/>
</g>
</g>
</g>
<defs>
<clipPath id="clip0_290_7909">
<rect x="0.855469" y="0.550781" width="51.0508" height="35.5136" rx="17.7568" fill="white"/>
</clipPath>
<clipPath id="clip1_290_7909">
<rect width="51.0508" height="35.5136" fill="white" transform="translate(0.855469 0.550781)"/>
</clipPath>
<clipPath id="clip2_290_7909">
<rect width="48.8728" height="35.5136" fill="white" transform="translate(0.855469 0.550781)"/>
</clipPath>
</defs>
</svg>
