<svg width="74" height="76" viewBox="0 0 74 76" fill="none" xmlns="http://www.w3.org/2000/svg">
<g opacity="0.94" filter="url(#filter0_d_286_4509)">
<rect x="10.0547" y="8.16797" width="53.2704" height="53.2704" rx="26.6352" fill="#797CD0" shape-rendering="crispEdges"/>
<g clip-path="url(#clip0_286_4509)">
<path d="M29.0781 32.4742C29.0781 32.3355 29.1041 32.2084 29.1561 32.0928C29.2082 31.9773 29.2746 31.8646 29.3555 31.7548C29.552 31.5583 29.7831 31.46 30.049 31.46C30.3148 31.46 30.546 31.5583 30.7424 31.7548L36.6803 37.8573L42.6181 31.7548C42.8088 31.5583 43.0385 31.46 43.3072 31.46C43.5759 31.46 43.8085 31.5583 44.005 31.7548C44.1957 31.9512 44.2911 32.1925 44.2911 32.4786C44.2911 32.7646 44.1957 33.003 44.005 33.1937L37.3997 40.0764C37.2032 40.2729 36.9721 40.3711 36.7063 40.3711C36.4404 40.3711 36.2093 40.2729 36.0128 40.0764L29.3555 33.1937C29.2746 33.1128 29.2082 33.0073 29.1561 32.8773C29.1041 32.7473 29.0781 32.6129 29.0781 32.4742Z" fill="white"/>
</g>
</g>
<defs>
<filter id="filter0_d_286_4509" x="0.0664845" y="0.399366" width="73.2459" height="75.4686" filterUnits="userSpaceOnUse" color-interpolation-filters="sRGB">
<feFlood flood-opacity="0" result="BackgroundImageFix"/>
<feColorMatrix in="SourceAlpha" type="matrix" values="0 0 0 0 0 0 0 0 0 0 0 0 0 0 0 0 0 0 127 0" result="hardAlpha"/>
<feOffset dy="2.2196"/>
<feGaussianBlur stdDeviation="4.9941"/>
<feComposite in2="hardAlpha" operator="out"/>
<feColorMatrix type="matrix" values="0 0 0 0 0 0 0 0 0 0 0 0 0 0 0 0 0 0 0.16 0"/>
<feBlend mode="normal" in2="BackgroundImageFix" result="effect1_dropShadow_286_4509"/>
<feBlend mode="normal" in="SourceGraphic" in2="effect1_dropShadow_286_4509" result="shape"/>
</filter>
<clipPath id="clip0_286_4509">
<rect width="15.2043" height="55.49" fill="white" transform="matrix(1 0 0 -1 29.0781 63.6602)"/>
</clipPath>
</defs>
</svg>
