<svg width="74" height="76" viewBox="0 0 74 76" fill="none" xmlns="http://www.w3.org/2000/svg">
<g opacity="0.94" filter="url(#filter0_d_286_4435)">
<rect x="10.3594" y="8.16797" width="53.2704" height="53.2704" rx="26.6352" fill="#797CD0" shape-rendering="crispEdges"/>
<g clip-path="url(#clip0_286_4435)">
<path d="M29.3789 32.4742C29.3789 32.3355 29.4049 32.2084 29.4569 32.0928C29.5089 31.9773 29.5754 31.8646 29.6563 31.7548C29.8528 31.5583 30.0839 31.46 30.3498 31.46C30.6156 31.46 30.8467 31.5583 31.0432 31.7548L36.981 37.8573L42.9188 31.7548C43.1096 31.5583 43.3393 31.46 43.608 31.46C43.8767 31.46 44.1093 31.5583 44.3058 31.7548C44.4965 31.9512 44.5918 32.1925 44.5918 32.4786C44.5918 32.7646 44.4965 33.003 44.3058 33.1937L37.7005 40.0764C37.504 40.2729 37.2729 40.3711 37.007 40.3711C36.7412 40.3711 36.5101 40.2729 36.3136 40.0764L29.6563 33.1937C29.5754 33.1128 29.5089 33.0073 29.4569 32.8773C29.4049 32.7473 29.3789 32.6129 29.3789 32.4742Z" fill="white"/>
</g>
</g>
<defs>
<filter id="filter0_d_286_4435" x="0.371172" y="0.399366" width="73.2459" height="75.4686" filterUnits="userSpaceOnUse" color-interpolation-filters="sRGB">
<feFlood flood-opacity="0" result="BackgroundImageFix"/>
<feColorMatrix in="SourceAlpha" type="matrix" values="0 0 0 0 0 0 0 0 0 0 0 0 0 0 0 0 0 0 127 0" result="hardAlpha"/>
<feOffset dy="2.2196"/>
<feGaussianBlur stdDeviation="4.9941"/>
<feComposite in2="hardAlpha" operator="out"/>
<feColorMatrix type="matrix" values="0 0 0 0 0 0 0 0 0 0 0 0 0 0 0 0 0 0 0.16 0"/>
<feBlend mode="normal" in2="BackgroundImageFix" result="effect1_dropShadow_286_4435"/>
<feBlend mode="normal" in="SourceGraphic" in2="effect1_dropShadow_286_4435" result="shape"/>
</filter>
<clipPath id="clip0_286_4435">
<rect width="15.2043" height="55.49" fill="white" transform="matrix(1 0 0 -1 29.3789 63.6602)"/>
</clipPath>
</defs>
</svg>
