<svg width="74" height="77" viewBox="0 0 74 77" fill="none" xmlns="http://www.w3.org/2000/svg">
<g opacity="0.94" filter="url(#filter0_d_290_10896)">
<rect x="10.3594" y="8.69531" width="53.2704" height="53.2704" rx="26.6352" fill="#797CD0" shape-rendering="crispEdges"/>
<g clip-path="url(#clip0_290_10896)">
<path d="M29.3789 32.9996C29.3789 32.8609 29.4049 32.7338 29.4569 32.6182C29.5089 32.5026 29.5754 32.39 29.6563 32.2802C29.8528 32.0837 30.0839 31.9854 30.3498 31.9854C30.6156 31.9854 30.8467 32.0837 31.0432 32.2802L36.981 38.3827L42.9188 32.2802C43.1096 32.0837 43.3393 31.9854 43.608 31.9854C43.8767 31.9854 44.1093 32.0837 44.3058 32.2802C44.4965 32.4766 44.5918 32.7179 44.5918 33.004C44.5918 33.29 44.4965 33.5284 44.3058 33.7191L37.7005 40.6018C37.504 40.7982 37.2729 40.8965 37.007 40.8965C36.7412 40.8965 36.5101 40.7982 36.3136 40.6018L29.6563 33.7191C29.5754 33.6382 29.5089 33.5327 29.4569 33.4027C29.4049 33.2727 29.3789 33.1383 29.3789 32.9996Z" fill="white"/>
</g>
</g>
<defs>
<filter id="filter0_d_290_10896" x="0.371172" y="0.92671" width="73.2459" height="75.4666" filterUnits="userSpaceOnUse" color-interpolation-filters="sRGB">
<feFlood flood-opacity="0" result="BackgroundImageFix"/>
<feColorMatrix in="SourceAlpha" type="matrix" values="0 0 0 0 0 0 0 0 0 0 0 0 0 0 0 0 0 0 127 0" result="hardAlpha"/>
<feOffset dy="2.2196"/>
<feGaussianBlur stdDeviation="4.9941"/>
<feComposite in2="hardAlpha" operator="out"/>
<feColorMatrix type="matrix" values="0 0 0 0 0 0 0 0 0 0 0 0 0 0 0 0 0 0 0.16 0"/>
<feBlend mode="normal" in2="BackgroundImageFix" result="effect1_dropShadow_290_10896"/>
<feBlend mode="normal" in="SourceGraphic" in2="effect1_dropShadow_290_10896" result="shape"/>
</filter>
<clipPath id="clip0_290_10896">
<rect width="15.2043" height="55.49" fill="white" transform="matrix(1 0 0 -1 29.3789 64.1855)"/>
</clipPath>
</defs>
</svg>
