<svg width="25" height="25" viewBox="0 0 25 25" fill="none" xmlns="http://www.w3.org/2000/svg">
<path fill-rule="evenodd" clip-rule="evenodd" d="M10.3332 5.41705C7.71516 5.41705 5.59283 7.53938 5.59283 10.1574C5.59283 12.7754 7.71516 14.8977 10.3332 14.8977C12.9512 14.8977 15.0735 12.7754 15.0735 10.1574C15.0735 7.53938 12.9512 5.41705 10.3332 5.41705ZM3.22266 10.1574C3.22266 6.23036 6.40615 3.04688 10.3332 3.04688C14.2602 3.04688 17.4437 6.23036 17.4437 10.1574C17.4437 11.6931 16.9569 13.115 16.1291 14.2774L21.8369 19.9852C22.2998 20.448 22.2998 21.1984 21.8369 21.6612C21.3741 22.124 20.6238 22.124 20.161 21.6612L14.4532 15.9534C13.2908 16.7811 11.8689 17.2679 10.3332 17.2679C6.40615 17.2679 3.22266 14.0844 3.22266 10.1574Z" fill="#9CA3AF"/>
</svg>
