<svg width="466" height="354" viewBox="0 0 466 354" fill="none" xmlns="http://www.w3.org/2000/svg">
<g clip-path="url(#clip0_252_725)">
<path d="M431.058 321.766C415.794 333.391 397.196 345.167 378.912 350.719C373.642 352.367 368.203 353.419 362.697 353.856C357.55 354.27 352.37 353.868 347.349 352.665C334.153 349.383 321.913 343.635 310.071 336.919C306.201 334.722 302.377 332.424 298.575 330.075C292.368 326.24 286.223 322.27 280.061 318.395C279.139 317.808 278.222 317.232 277.299 316.661H277.293C275.806 315.728 274.315 314.807 272.82 313.899C272.558 313.737 272.295 313.581 272.026 313.418C269.203 311.707 266.331 310.036 263.41 308.403C263.052 308.207 262.694 308.006 262.336 307.81C256.686 304.676 250.878 301.834 244.936 299.294C241.033 297.651 237.08 296.169 233.088 294.905H233.082C231.556 294.424 230.023 293.971 228.486 293.558C223.875 292.293 219.176 291.373 214.429 290.807C207.887 290.015 201.27 290.067 194.741 290.963C194.3 291.025 193.864 291.086 193.422 291.159C175.753 293.988 159.627 303.527 141.88 305.775C141.304 305.848 140.734 305.915 140.158 305.965C139.912 305.987 139.666 306.015 139.42 306.032C134.262 306.474 129.072 306.346 123.943 305.652C109.612 303.762 95.6555 297.897 83.0915 290.505C53.7196 273.222 29.9001 246.657 15.4182 215.893C12.9314 210.62 10.7235 205.221 8.80359 199.716C3.43576 184.453 0.479678 168.447 0.0417755 152.273C-1.31695 96.1573 30.571 39.857 80.6368 14.4775C130.708 -10.9021 196.575 -2.50933 236.957 36.4798C261.453 60.1316 275.627 92.1818 294.062 120.816C312.497 149.444 338.699 176.792 372.493 180.963C389.71 183.087 407.725 178.978 424.226 184.323C433.362 187.287 441.156 192.956 447.436 200.181C451.657 205.083 455.19 210.538 457.936 216.396C459.949 220.63 461.583 225.035 462.818 229.558C463.047 230.391 463.259 231.224 463.466 232.057C471.686 265.628 458.551 300.821 431.058 321.766Z" fill="#F2F2F2"/>
<path d="M156.083 260.992H103.524C95.6492 260.992 89.2656 267.376 89.2656 275.25V275.25C89.2656 283.125 95.6492 289.509 103.524 289.509H156.083C163.958 289.509 170.342 283.125 170.342 275.25C170.342 267.376 163.958 260.992 156.083 260.992Z" fill="#3F3D56"/>
<path d="M140.145 282.238V305.963C134.746 306.485 129.305 306.38 123.93 305.65V282.238H140.145Z" fill="#3F3D56"/>
<path d="M194.739 290.967C194.297 291.028 193.861 291.09 193.42 291.162C175.751 293.992 159.625 303.531 141.878 305.778C141.302 305.851 140.731 305.918 140.155 305.969C139.909 305.991 139.663 306.019 139.417 306.036C135.084 301.792 130.751 297.274 126.68 292.594C124.471 290.061 122.336 287.478 120.328 284.861C115.117 278.106 110.7 271.162 107.781 264.34C108.077 261.069 106.042 253.504 105.069 247.711L105.064 247.706C104.65 245.273 104.426 243.16 104.633 241.801C105.818 233.962 112.221 234.862 114.189 227.179C115.964 225.706 117.855 224.377 119.842 223.204C120.172 223.008 120.507 222.813 120.854 222.617L142.213 207.855L150.377 215.862L162.801 228.052L176.265 241.253L164.836 252.8C164.836 252.8 174.386 263.809 185.552 278.487C188.549 282.429 191.664 286.639 194.739 290.967Z" fill="#2F2E41"/>
<path d="M378.903 282.238V350.717C373.632 352.365 368.193 353.417 362.688 353.853V282.238H378.903Z" fill="#3F3D56"/>
<path d="M399.88 276.648H347.321C339.446 276.648 333.062 283.032 333.062 290.907V290.907C333.062 298.781 339.446 305.165 347.321 305.165H399.88C407.755 305.165 414.138 298.781 414.138 290.907C414.138 283.032 407.755 276.648 399.88 276.648Z" fill="#3F3D56"/>
<path d="M272.022 313.422C269.198 311.711 266.326 310.039 263.406 308.406C263.048 308.211 262.69 308.009 262.332 307.814L264.255 306.992L269.444 304.761L269.495 304.738L269.551 304.928L272.022 313.422Z" fill="#FFB6B6"/>
<path d="M280.059 318.395C279.136 317.808 278.219 317.232 277.297 316.662H277.291C275.804 315.728 274.313 314.808 272.818 313.9C272.555 313.738 272.292 313.581 272.024 313.419C269.2 311.708 266.328 310.036 263.407 308.403C263.05 308.208 262.692 308.007 262.334 307.811C256.683 304.676 250.875 301.834 244.933 299.295C241.03 297.651 237.077 296.169 233.085 294.906H233.079L229.943 289.655L215.824 266.009L212.721 260.815C212.721 260.815 202.136 263.946 187.157 266.949C181.705 268.044 175.678 269.118 169.354 270.024C162.594 270.986 155.504 271.752 148.459 272.121C145.098 272.3 141.749 272.389 138.45 272.361C129.923 272.305 121.731 271.506 114.558 269.604C112.164 267.357 104.951 264.298 99.785 261.497H99.7794C97.6099 260.323 95.8095 259.199 94.8645 258.198C89.4185 252.439 94.0705 247.949 89.2284 241.664C89.1632 239.358 89.281 237.051 89.5806 234.764C89.6309 234.384 89.6813 233.998 89.7428 233.607L91.2692 207.685L102.609 206.186L119.864 203.905L138.556 201.434L140.614 217.548C140.614 217.548 155.168 216.81 173.609 217.056C203.227 217.459 242.859 220.411 248.227 233.081C248.73 234.272 249.233 235.474 249.736 236.676C250.933 239.55 252.118 242.439 253.293 245.343C257.548 255.855 261.607 266.468 265.314 276.499C267.618 282.739 269.787 288.755 271.783 294.386C273.388 298.915 274.875 303.198 276.234 307.14C277.475 310.741 278.599 314.056 279.6 317.031C279.757 317.495 279.908 317.954 280.059 318.395Z" fill="#2F2E41"/>
<path d="M175.75 161.337L139.934 130.919L163.236 107.336L179.493 133.964L239.754 145.911C241.566 144.548 243.736 143.741 245.999 143.589C248.261 143.437 250.519 143.946 252.497 145.056C254.475 146.165 256.088 147.826 257.138 149.835C258.189 151.845 258.632 154.117 258.413 156.375C258.195 158.632 257.324 160.777 255.908 162.548C254.491 164.319 252.59 165.639 250.436 166.349C248.282 167.058 245.968 167.125 243.777 166.542C241.585 165.959 239.611 164.751 238.094 163.065L175.75 161.337Z" fill="#A0616A"/>
<path d="M108.281 90.9433C104.142 104.409 143.563 136.525 143.563 136.525C144.001 133.292 166.351 161.168 167.872 158.644C172.194 151.469 176.949 133.733 181.938 131.466C184.791 130.169 168.423 112.151 168.423 112.151C168.423 112.151 160.074 101.105 149.05 87.1046C146.006 83.0888 141.997 79.9082 137.393 77.8589C132.79 75.8097 127.744 74.9583 122.723 75.3842C122.723 75.3842 112.42 77.4777 108.281 90.9433Z" fill="#3F3D56"/>
<path d="M125.705 61.1363C139.084 61.1363 149.929 50.2906 149.929 36.9119C149.929 23.5331 139.084 12.6875 125.705 12.6875C112.326 12.6875 101.48 23.5331 101.48 36.9119C101.48 50.2906 112.326 61.1363 125.705 61.1363Z" fill="#A0616A"/>
<path d="M137.815 77.141C143.034 80.2436 146.156 85.9442 147.948 91.7451C151.266 102.485 153.263 113.589 153.895 124.811L155.788 158.41L179.231 229.951C158.914 247.142 82.5443 233.858 82.5443 233.858C82.5443 233.858 80.2 233.077 82.5443 230.732C84.8886 228.388 87.1708 230.465 84.8265 228.121C82.4823 225.776 84.0983 228.388 84.8798 226.044C85.6612 223.699 84.8798 225.262 84.0983 224.481C83.3169 223.699 90.1478 216.666 90.1478 216.666L83.8963 175.601L76.082 92.7695C85.4592 81.048 104.318 74.1383 104.318 74.1383L109.191 65.3672L133.555 67.3163L137.815 77.141Z" fill="#3F3D56"/>
<path d="M145.674 24.0399C147.557 25.4442 148.952 27.4036 149.662 29.6423C149.935 25.9838 149.952 22.3107 149.714 18.6498C149.429 16.0773 147.617 15.4986 145.52 14.8281C143.626 14.2223 141.484 13.5381 140.908 11.0407C133.293 3.63294 120.038 4.00648 110.966 6.59043C105.974 8.01233 103.102 9.83919 102.845 10.9094L102.791 11.1297L102.589 11.231C98.7408 13.155 97.9918 19.2303 98.0413 23.988C98.135 32.9519 101.23 43.1326 102.974 43.9596C103.066 44.0034 103.089 43.9862 103.129 43.953C105.755 41.8549 108.958 44.1124 110.365 45.3396C111.195 39.7684 113.869 34.6362 117.958 30.7625C122.047 26.8888 127.317 24.4971 132.925 23.9695C134.756 23.7925 136.573 23.4879 138.362 23.0578C139.269 22.823 140.202 22.7006 141.139 22.6933C142.753 22.6688 144.335 23.1387 145.674 24.0399Z" fill="#2F2E41"/>
<path d="M115.161 197.832L107.751 194.037C107.354 193.754 107.072 193.337 106.956 192.864C106.841 192.39 106.899 191.891 107.122 191.457C107.344 191.023 107.715 190.683 108.167 190.5C108.619 190.317 109.121 190.303 109.583 190.46L116.993 194.255C117.39 194.538 117.672 194.954 117.787 195.428C117.903 195.901 117.844 196.401 117.622 196.834C117.4 197.268 117.029 197.608 116.577 197.791C116.125 197.974 115.623 197.988 115.161 197.832Z" fill="#797CD0"/>
<path d="M90.2173 187.665L78.0273 142.284L110.602 136.117L108.851 167.267L151.651 211.337C153.917 211.245 156.161 211.814 158.11 212.974C160.058 214.135 161.626 215.837 162.624 217.874C163.621 219.91 164.005 222.193 163.727 224.444C163.45 226.695 162.523 228.816 161.061 230.549C159.599 232.283 157.663 233.553 155.492 234.206C153.32 234.858 151.005 234.865 148.829 234.225C146.654 233.584 144.712 232.325 143.239 230.6C141.767 228.875 140.829 226.759 140.539 224.51L90.2173 187.665Z" fill="#A0616A"/>
<path d="M74.6957 91.4068C63.6386 100.136 77.8304 148.962 77.8304 148.962C80.0277 146.551 82.581 182.19 85.2668 180.976C92.8998 177.527 106.89 165.634 112.284 166.604C115.368 167.158 112.137 143.03 112.137 143.03C112.137 143.03 111.542 129.196 110.425 111.412C110.203 106.378 108.71 101.483 106.087 97.1808C103.463 92.879 99.7938 89.311 95.4203 86.8088C95.4203 86.8088 85.7529 82.6778 74.6957 91.4068Z" fill="#3F3D56"/>
<path d="M457.93 216.398L15.4115 215.895C12.9247 210.622 10.7168 205.223 8.79688 199.719L447.429 200.183C451.65 205.085 455.183 210.54 457.93 216.398Z" fill="#3F3D56"/>
<path d="M316.988 333.718C314.702 334.825 312.394 335.893 310.066 336.922C306.197 334.725 302.372 332.427 298.57 330.078L312.672 323.883L316.988 333.718Z" fill="#FFB6B6"/>
<path d="M419.807 256.66C417.514 259.735 415.149 262.749 412.711 265.701C410.463 268.424 408.156 271.095 405.789 273.714C404.811 274.799 403.821 275.878 402.809 276.946C400.947 278.942 399.044 280.904 397.1 282.834C393.6 283.935 386.51 285.875 378.911 287.687C373.381 289.001 367.583 290.248 362.696 291.042C359.96 291.533 357.193 291.828 354.415 291.925C351.116 291.953 347.767 291.864 344.406 291.685C340.615 291.483 336.819 291.17 333.067 290.768C323.31 289.745 313.86 288.151 305.708 286.513C302.722 285.92 299.915 285.316 297.332 284.729C292.439 283.628 288.346 282.599 285.383 281.816C282.045 280.944 280.144 280.379 280.144 280.379L271.784 294.38L267.446 301.643L264.258 306.983L263.409 308.398C263.051 308.202 262.693 308.001 262.335 307.805C256.684 304.671 250.876 301.828 244.934 299.289C241.032 297.645 237.078 296.164 233.086 294.9H233.081C231.554 294.419 230.022 293.966 228.484 293.552C228.965 292.261 229.452 290.96 229.944 289.649C230.861 287.206 231.796 284.74 232.751 282.252C234.814 276.862 236.95 271.393 239.147 265.953C240.948 261.485 242.782 257.035 244.638 252.645C245.494 250.621 247.233 248.843 249.665 247.283C250.827 246.55 252.04 245.9 253.294 245.337C260.255 242.167 270.51 240.104 281.81 238.779C282.744 238.672 283.683 238.566 284.628 238.465C293.983 237.481 303.907 236.972 313.189 236.738C317.836 236.62 322.32 236.576 326.491 236.57C327.839 236.57 329.149 236.574 330.422 236.581H330.428C333.866 236.598 337.031 236.648 339.816 236.704C340.358 236.715 340.884 236.732 341.398 236.743H341.404C341.75 236.749 342.091 236.76 342.427 236.766C348.516 236.922 352.251 237.112 352.251 237.112L353.699 225.75L353.996 223.458L354.275 221.277V221.272L354.309 220.998L354.538 220.992L358.564 220.914L392.403 220.254L410.888 219.891L407.959 232.449L403.122 253.171C403.614 256.448 419.975 253.881 419.807 256.66Z" fill="#2F2E41"/>
<path d="M321.157 331.649C319.776 332.354 318.384 333.047 316.986 333.718C314.699 334.825 312.392 335.893 310.064 336.922C306.195 334.724 302.37 332.426 298.568 330.078C292.361 326.242 286.217 322.272 280.055 318.397C279.132 317.81 278.215 317.234 277.293 316.664H277.287C274.748 312.895 272.16 308.97 269.548 304.928C269.509 304.872 269.476 304.816 269.442 304.76C268.771 303.731 268.104 302.695 267.44 301.651C263.264 295.109 259.064 288.287 254.988 281.321L265.31 276.501L284.5 267.543L287.81 266L297.327 284.737L305.814 301.45L307.704 305.168L321.157 331.649Z" fill="#2F2E41"/>
<path d="M324.05 241.683L372.976 194.5L386.536 156.104L366.534 147.406C356.26 157.248 345.154 187.902 345.154 187.902L311.487 230.735C311.224 230.825 310.963 230.92 310.704 231.034C309.188 231.703 307.87 232.751 306.877 234.078C305.884 235.406 305.25 236.966 305.037 238.61C304.824 240.253 305.038 241.924 305.659 243.461C306.28 244.997 307.287 246.347 308.583 247.381C309.878 248.415 311.418 249.097 313.054 249.361C314.69 249.626 316.367 249.463 317.922 248.891C319.477 248.318 320.858 247.353 321.932 246.091C323.005 244.828 323.735 243.31 324.05 241.683Z" fill="#FFB8B8"/>
<path d="M360.91 151.699L386.282 159.754L386.377 159.738C395.82 158.156 403.656 142.733 408.567 130.073C410.182 125.898 410.152 121.264 408.482 117.11C406.812 112.955 403.627 109.59 399.571 107.694C396.57 106.315 393.242 105.804 389.965 106.217C386.688 106.631 383.592 107.953 381.027 110.034L367.999 120.679L360.91 151.699Z" fill="#797CD0"/>
<path d="M419.702 257.231L419.851 257.034C427.766 246.535 416.94 220.537 415.303 216.766L422.663 214.586L421.38 200.572L420.762 194.323L426.485 188.888L426.505 188.749L430.44 160.74L435.59 142.202C437.531 135.194 437.572 127.796 435.709 120.767C433.846 113.738 430.146 107.331 424.988 102.204L414.461 91.7522L401.849 72.0108L380.702 71.4648L373.098 84.9732C366.026 86.4164 359.685 90.2947 355.179 95.9324C350.673 101.57 348.287 108.61 348.438 115.826L349.154 151.788L341.566 196.344L341.353 204.438L333.906 212.297L335.283 220.242L329.712 222.461L326.986 233.751C325.945 235.053 319.071 243.743 319.008 246.165C318.999 246.529 319.258 246.887 319.824 247.292C324.274 250.476 349.144 257.374 360.337 253.227C372.26 248.813 418.989 257.103 419.459 257.187L419.702 257.231Z" fill="#797CD0"/>
<path d="M389.429 65.4131C404.902 65.4131 417.444 52.8703 417.444 37.398C417.444 21.9256 404.902 9.38281 389.429 9.38281C373.957 9.38281 361.414 21.9256 361.414 37.398C361.414 52.8703 373.957 65.4131 389.429 65.4131Z" fill="#FFB8B8"/>
<path d="M386.006 65.7921C390.344 65.8598 394.68 65.5567 398.967 64.8863C403.216 64.0222 412.722 57.0565 415.372 52.8648C417.34 49.7504 418.599 44.8871 419.309 41.3559C420.264 36.6831 420.228 31.8616 419.202 27.2037C418.176 22.5459 416.183 18.1554 413.352 14.3168C412.264 12.7111 410.762 11.4294 409.005 10.6072C408.85 10.5463 408.69 10.4924 408.528 10.4462C405.968 9.77277 403.668 8.34963 401.923 6.35953C401.585 5.957 401.218 5.57937 400.825 5.22956C398.853 3.56521 396.515 2.39121 394.002 1.80353C389.946 0.718006 384.076 1.79554 376.556 5.0093C372.778 6.62396 368.645 6.03961 365.467 5.35007C365.288 5.31563 365.104 5.32848 364.932 5.38734C364.761 5.44619 364.607 5.54901 364.487 5.68556C363.135 6.95521 361.352 7.66591 359.497 7.67481C358.361 7.7247 357.169 9.29787 355.728 11.3494C355.401 11.815 355.02 12.3585 354.744 12.6891L354.708 12.054L354.065 12.7625C353.055 13.876 352.343 15.2271 351.995 16.6899C351.648 18.1527 351.676 19.6797 352.077 21.1286C352.479 22.5775 353.241 23.9013 354.291 24.9766C355.342 26.0519 356.648 26.8438 358.088 27.2785C359.23 27.5826 360.401 27.7692 361.582 27.8354C362.297 27.8998 363.037 27.9663 363.746 28.0893C366.022 28.5553 368.138 29.6034 369.887 31.1312C371.637 32.659 372.96 34.6144 373.729 36.8065C373.91 37.3132 374.206 37.7713 374.593 38.1456C374.98 38.5199 375.447 38.8003 375.96 38.9651C376.472 39.1299 377.016 39.1748 377.548 39.0962C378.081 39.0177 378.588 38.8178 379.031 38.512C379.77 37.9369 380.636 37.549 381.557 37.3813C382.478 37.2136 383.426 37.2711 384.32 37.549C385.092 37.9785 385.694 38.6606 386.023 39.4808C386.423 40.3946 387.087 41.1685 387.928 41.7038C390.808 43.1883 391.006 49.765 389.972 55.2475C388.975 60.5321 387.005 64.355 385.18 64.544C383.776 64.6893 383.615 64.7891 383.513 65.0375L383.423 65.2598L383.58 65.4678C384.356 65.7491 385.183 65.8597 386.006 65.7921Z" fill="#2F2E41"/>
<path d="M367.86 143.235L357.058 121.699C341.379 122.77 310.26 140.899 310.26 140.899L251.383 153.382C249.639 152.712 247.749 152.512 245.903 152.805C244.058 153.097 242.322 153.87 240.87 155.046C239.418 156.223 238.302 157.761 237.633 159.506C236.965 161.251 236.768 163.141 237.063 164.986C237.357 166.832 238.132 168.567 239.31 170.017C240.489 171.468 242.028 172.582 243.774 173.248C245.52 173.915 247.41 174.109 249.255 173.813C251.1 173.516 252.834 172.739 254.283 171.559L329.178 166.19L367.86 143.235Z" fill="#FFB8B8"/>
<path d="M363.507 146.769L391.718 125.804L396.688 107.896C397.65 104.377 397.61 100.659 396.57 97.1615C395.53 93.6643 393.533 90.5275 390.805 88.1057C387.084 84.8476 382.264 83.1241 377.321 83.2836C372.378 83.4431 367.679 85.4737 364.176 88.9648C353.56 99.5613 341.451 114.344 344.052 124.595L344.079 124.699L363.507 146.769Z" fill="#797CD0"/>
<path d="M328.586 202.836H253.102V212.901H328.586V202.836Z" fill="white"/>
<path d="M135.684 202.836H60.1992V212.901H135.684V202.836Z" fill="white"/>
<path d="M144.496 154.445V202.366C144.497 202.977 144.739 203.562 145.171 203.994C145.603 204.426 146.189 204.669 146.799 204.669H217.813C218.424 204.669 219.009 204.426 219.441 203.994C219.873 203.562 220.116 202.977 220.116 202.366V154.445C220.115 153.835 219.872 153.25 219.44 152.819C219.008 152.388 218.423 152.145 217.813 152.145H146.799C146.189 152.145 145.604 152.388 145.172 152.819C144.741 153.25 144.498 153.835 144.496 154.445Z" fill="#3F3D56"/>
<path d="M146.156 155.034V201.768C146.157 202.094 146.287 202.407 146.517 202.638C146.748 202.868 147.061 202.998 147.387 202.999H217.216C217.542 202.998 217.855 202.868 218.086 202.638C218.317 202.407 218.447 202.094 218.447 201.768V155.034C218.447 154.708 218.317 154.394 218.087 154.163C217.856 153.932 217.543 153.801 217.216 153.801H147.387C147.06 153.801 146.747 153.932 146.517 154.163C146.286 154.394 146.156 154.708 146.156 155.034Z" fill="#797CD0"/>
<path d="M143.014 211.711C143.144 211.874 143.309 212.006 143.497 212.096C143.686 212.186 143.892 212.232 144.101 212.231H220.14C220.348 212.231 220.553 212.184 220.741 212.095C220.928 212.005 221.094 211.875 221.225 211.713C221.356 211.552 221.449 211.363 221.498 211.161C221.547 210.959 221.55 210.748 221.507 210.545L220.327 204.938C220.278 204.71 220.173 204.497 220.021 204.319C219.868 204.142 219.674 204.005 219.456 203.922C219.298 203.86 219.129 203.828 218.959 203.828H145.276C145.106 203.828 144.938 203.86 144.78 203.922C144.561 204.005 144.367 204.142 144.215 204.319C144.063 204.497 143.957 204.71 143.908 204.938L142.728 210.545C142.686 210.748 142.69 210.959 142.739 211.16C142.789 211.362 142.883 211.55 143.014 211.711Z" fill="#2F2E41"/>
<path d="M216.341 206.242H218.137C218.288 206.242 218.41 206.12 218.41 205.969V205.11C218.41 204.959 218.288 204.837 218.137 204.837H216.341C216.19 204.837 216.068 204.959 216.068 205.11V205.969C216.068 206.12 216.19 206.242 216.341 206.242Z" fill="#3F3D56"/>
<path d="M211.665 206.242H213.461C213.612 206.242 213.734 206.12 213.734 205.969V205.11C213.734 204.959 213.612 204.837 213.461 204.837H211.665C211.515 204.837 211.392 204.959 211.392 205.11V205.969C211.392 206.12 211.515 206.242 211.665 206.242Z" fill="#3F3D56"/>
<path d="M206.978 206.242H208.774C208.925 206.242 209.047 206.12 209.047 205.969V205.11C209.047 204.959 208.925 204.837 208.774 204.837H206.978C206.827 204.837 206.705 204.959 206.705 205.11V205.969C206.705 206.12 206.827 206.242 206.978 206.242Z" fill="#3F3D56"/>
<path d="M202.29 206.242H204.086C204.237 206.242 204.359 206.12 204.359 205.969V205.11C204.359 204.959 204.237 204.837 204.086 204.837H202.29C202.14 204.837 202.017 204.959 202.017 205.11V205.969C202.017 206.12 202.14 206.242 202.29 206.242Z" fill="#3F3D56"/>
<path d="M197.619 206.242H199.415C199.565 206.242 199.688 206.12 199.688 205.969V205.11C199.688 204.959 199.565 204.837 199.415 204.837H197.619C197.468 204.837 197.346 204.959 197.346 205.11V205.969C197.346 206.12 197.468 206.242 197.619 206.242Z" fill="#3F3D56"/>
<path d="M192.931 206.242H194.727C194.878 206.242 195 206.12 195 205.969V205.11C195 204.959 194.878 204.837 194.727 204.837H192.931C192.78 204.837 192.658 204.959 192.658 205.11V205.969C192.658 206.12 192.78 206.242 192.931 206.242Z" fill="#3F3D56"/>
<path d="M188.236 206.242H190.032C190.182 206.242 190.305 206.12 190.305 205.969V205.11C190.305 204.959 190.182 204.837 190.032 204.837H188.236C188.085 204.837 187.963 204.959 187.963 205.11V205.969C187.963 206.12 188.085 206.242 188.236 206.242Z" fill="#3F3D56"/>
<path d="M183.556 206.242H185.352C185.503 206.242 185.625 206.12 185.625 205.969V205.11C185.625 204.959 185.503 204.837 185.352 204.837H183.556C183.405 204.837 183.283 204.959 183.283 205.11V205.969C183.283 206.12 183.405 206.242 183.556 206.242Z" fill="#3F3D56"/>
<path d="M178.888 206.242H180.684C180.835 206.242 180.957 206.12 180.957 205.969V205.11C180.957 204.959 180.835 204.837 180.684 204.837H178.888C178.737 204.837 178.615 204.959 178.615 205.11V205.969C178.615 206.12 178.737 206.242 178.888 206.242Z" fill="#3F3D56"/>
<path d="M174.189 206.242H175.985C176.136 206.242 176.258 206.12 176.258 205.969V205.11C176.258 204.959 176.136 204.837 175.985 204.837H174.189C174.038 204.837 173.916 204.959 173.916 205.11V205.969C173.916 206.12 174.038 206.242 174.189 206.242Z" fill="#3F3D56"/>
<path d="M169.509 206.242H171.305C171.456 206.242 171.578 206.12 171.578 205.969V205.11C171.578 204.959 171.456 204.837 171.305 204.837H169.509C169.358 204.837 169.236 204.959 169.236 205.11V205.969C169.236 206.12 169.358 206.242 169.509 206.242Z" fill="#3F3D56"/>
<path d="M164.818 206.242H166.614C166.765 206.242 166.887 206.12 166.887 205.969V205.11C166.887 204.959 166.765 204.837 166.614 204.837H164.818C164.667 204.837 164.545 204.959 164.545 205.11V205.969C164.545 206.12 164.667 206.242 164.818 206.242Z" fill="#3F3D56"/>
<path d="M160.15 206.242H161.946C162.097 206.242 162.219 206.12 162.219 205.969V205.11C162.219 204.959 162.097 204.837 161.946 204.837H160.15C159.999 204.837 159.877 204.959 159.877 205.11V205.969C159.877 206.12 159.999 206.242 160.15 206.242Z" fill="#3F3D56"/>
<path d="M155.454 206.242H157.25C157.401 206.242 157.523 206.12 157.523 205.969V205.11C157.523 204.959 157.401 204.837 157.25 204.837H155.454C155.304 204.837 155.181 204.959 155.181 205.11V205.969C155.181 206.12 155.304 206.242 155.454 206.242Z" fill="#3F3D56"/>
<path d="M150.783 206.242H152.579C152.729 206.242 152.852 206.12 152.852 205.969V205.11C152.852 204.959 152.729 204.837 152.579 204.837H150.783C150.632 204.837 150.51 204.959 150.51 205.11V205.969C150.51 206.12 150.632 206.242 150.783 206.242Z" fill="#3F3D56"/>
<path d="M146.095 206.242H147.891C148.042 206.242 148.164 206.12 148.164 205.969V205.11C148.164 204.959 148.042 204.837 147.891 204.837H146.095C145.944 204.837 145.822 204.959 145.822 205.11V205.969C145.822 206.12 145.944 206.242 146.095 206.242Z" fill="#3F3D56"/>
<path d="M216.4 208.582H218.196C218.347 208.582 218.469 208.46 218.469 208.309V207.45C218.469 207.299 218.347 207.177 218.196 207.177H216.4C216.249 207.177 216.127 207.299 216.127 207.45V208.309C216.127 208.46 216.249 208.582 216.4 208.582Z" fill="#3F3D56"/>
<path d="M211.72 208.582H213.516C213.667 208.582 213.789 208.46 213.789 208.309V207.45C213.789 207.299 213.667 207.177 213.516 207.177H211.72C211.569 207.177 211.447 207.299 211.447 207.45V208.309C211.447 208.46 211.569 208.582 211.72 208.582Z" fill="#3F3D56"/>
<path d="M207.04 208.582H208.836C208.987 208.582 209.109 208.46 209.109 208.309V207.45C209.109 207.299 208.987 207.177 208.836 207.177H207.04C206.89 207.177 206.767 207.299 206.767 207.45V208.309C206.767 208.46 206.89 208.582 207.04 208.582Z" fill="#3F3D56"/>
<path d="M202.349 208.582H204.145C204.296 208.582 204.418 208.46 204.418 208.309V207.45C204.418 207.299 204.296 207.177 204.145 207.177H202.349C202.198 207.177 202.076 207.299 202.076 207.45V208.309C202.076 208.46 202.198 208.582 202.349 208.582Z" fill="#3F3D56"/>
<path d="M197.665 208.582H199.461C199.612 208.582 199.734 208.46 199.734 208.309V207.45C199.734 207.299 199.612 207.177 199.461 207.177H197.665C197.515 207.177 197.392 207.299 197.392 207.45V208.309C197.392 208.46 197.515 208.582 197.665 208.582Z" fill="#3F3D56"/>
<path d="M192.986 208.582H194.782C194.932 208.582 195.055 208.46 195.055 208.309V207.45C195.055 207.299 194.932 207.177 194.782 207.177H192.986C192.835 207.177 192.713 207.299 192.713 207.45V208.309C192.713 208.46 192.835 208.582 192.986 208.582Z" fill="#3F3D56"/>
<path d="M188.286 208.582H190.083C190.233 208.582 190.355 208.46 190.355 208.309V207.45C190.355 207.299 190.233 207.177 190.083 207.177H188.286C188.136 207.177 188.014 207.299 188.014 207.45V208.309C188.014 208.46 188.136 208.582 188.286 208.582Z" fill="#3F3D56"/>
<path d="M183.611 208.582H185.407C185.557 208.582 185.68 208.46 185.68 208.309V207.45C185.68 207.299 185.557 207.177 185.407 207.177H183.611C183.46 207.177 183.338 207.299 183.338 207.45V208.309C183.338 208.46 183.46 208.582 183.611 208.582Z" fill="#3F3D56"/>
<path d="M178.923 208.582H180.719C180.87 208.582 180.992 208.46 180.992 208.309V207.45C180.992 207.299 180.87 207.177 180.719 207.177H178.923C178.772 207.177 178.65 207.299 178.65 207.45V208.309C178.65 208.46 178.772 208.582 178.923 208.582Z" fill="#3F3D56"/>
<path d="M174.24 208.582H176.036C176.186 208.582 176.309 208.46 176.309 208.309V207.45C176.309 207.299 176.186 207.177 176.036 207.177H174.24C174.089 207.177 173.967 207.299 173.967 207.45V208.309C173.967 208.46 174.089 208.582 174.24 208.582Z" fill="#3F3D56"/>
<path d="M169.564 208.582H171.36C171.511 208.582 171.633 208.46 171.633 208.309V207.45C171.633 207.299 171.511 207.177 171.36 207.177H169.564C169.413 207.177 169.291 207.299 169.291 207.45V208.309C169.291 208.46 169.413 208.582 169.564 208.582Z" fill="#3F3D56"/>
<path d="M164.888 208.582H166.684C166.835 208.582 166.957 208.46 166.957 208.309V207.45C166.957 207.299 166.835 207.177 166.684 207.177H164.888C164.737 207.177 164.615 207.299 164.615 207.45V208.309C164.615 208.46 164.737 208.582 164.888 208.582Z" fill="#3F3D56"/>
<path d="M160.197 208.582H161.993C162.143 208.582 162.266 208.46 162.266 208.309V207.45C162.266 207.299 162.143 207.177 161.993 207.177H160.197C160.046 207.177 159.924 207.299 159.924 207.45V208.309C159.924 208.46 160.046 208.582 160.197 208.582Z" fill="#3F3D56"/>
<path d="M155.501 208.582H157.297C157.448 208.582 157.57 208.46 157.57 208.309V207.45C157.57 207.299 157.448 207.177 157.297 207.177H155.501C155.351 207.177 155.228 207.299 155.228 207.45V208.309C155.228 208.46 155.351 208.582 155.501 208.582Z" fill="#3F3D56"/>
<path d="M150.826 208.582H152.622C152.772 208.582 152.895 208.46 152.895 208.309V207.45C152.895 207.299 152.772 207.177 152.622 207.177H150.826C150.675 207.177 150.553 207.299 150.553 207.45V208.309C150.553 208.46 150.675 208.582 150.826 208.582Z" fill="#3F3D56"/>
<path d="M146.15 208.582H147.946C148.097 208.582 148.219 208.46 148.219 208.309V207.45C148.219 207.299 148.097 207.177 147.946 207.177H146.15C145.999 207.177 145.877 207.299 145.877 207.45V208.309C145.877 208.46 145.999 208.582 146.15 208.582Z" fill="#3F3D56"/>
<path d="M177.533 211.391H195.723C195.874 211.391 195.996 211.268 195.996 211.118V210.258C195.996 210.108 195.874 209.985 195.723 209.985H177.533C177.383 209.985 177.26 210.108 177.26 210.258V211.118C177.26 211.268 177.383 211.391 177.533 211.391Z" fill="#3F3D56"/>
</g>
<defs>
<clipPath id="clip0_252_725">
<rect width="465.891" height="354" fill="white"/>
</clipPath>
</defs>
</svg>
