<svg width="32" height="32" viewBox="0 0 32 32" fill="none" xmlns="http://www.w3.org/2000/svg">
<path d="M22.6717 19.8198H21.2684L20.7711 19.3402C22.5118 17.3153 23.5598 14.6865 23.5598 11.8268C23.5598 5.45009 18.3909 0.28125 12.0143 0.28125C5.63759 0.28125 0.46875 5.45009 0.46875 11.8268C0.46875 18.2034 5.63759 23.3723 12.0143 23.3723C14.874 23.3723 17.5028 22.3243 19.5277 20.5836L20.0073 21.0809V22.4842L28.8885 31.3476L31.5351 28.701L22.6717 19.8198ZM12.0143 19.8198C7.59144 19.8198 4.02122 16.2496 4.02122 11.8268C4.02122 7.40394 7.59144 3.83372 12.0143 3.83372C16.4371 3.83372 20.0073 7.40394 20.0073 11.8268C20.0073 16.2496 16.4371 19.8198 12.0143 19.8198Z" fill="white"/>
</svg>
