<svg width="31" height="31" viewBox="0 0 31 31" fill="none" xmlns="http://www.w3.org/2000/svg">
<path d="M15.5 0C6.9285 0 0 6.9285 0 15.5C0 24.0715 6.9285 31 15.5 31C24.0715 31 31 24.0715 31 15.5C31 6.9285 24.0715 0 15.5 0ZM22.165 22.165C21.5605 22.7695 20.584 22.7695 19.9795 22.165L15.5 17.6855L11.0205 22.165C10.416 22.7695 9.4395 22.7695 8.835 22.165C8.2305 21.5605 8.2305 20.584 8.835 19.9795L13.3145 15.5L8.835 11.0205C8.2305 10.416 8.2305 9.4395 8.835 8.835C9.4395 8.2305 10.416 8.2305 11.0205 8.835L15.5 13.3145L19.9795 8.835C20.584 8.2305 21.5605 8.2305 22.165 8.835C22.7695 9.4395 22.7695 10.416 22.165 11.0205L17.6855 15.5L22.165 19.9795C22.754 20.5685 22.754 21.5605 22.165 22.165Z" fill="#797CD0"/>
</svg>
